<?xml version="1.0" encoding="utf-8"?>
<!-- Generator: Adobe Illustrator 24.0.0, SVG Export Plug-In . SVG Version: 6.00 Build 0)  -->
<svg version="1.1" xmlns="http://www.w3.org/2000/svg" xmlns:xlink="http://www.w3.org/1999/xlink" x="0px" y="0px"
	 viewBox="0 0 64 64" enable-background="new 0 0 64 64" xml:space="preserve">
<g id="Captions">
</g>
<g id="Icons">
	<g>
		<g>
			<path fill="#F0F0F0" d="M48,18v41c0,0.55-0.45,1-1,1H9c-0.55,0-1-0.45-1-1V7c0-0.55,0.45-1,1-1h27L48,18z"/>
		</g>
		<g>
			<path fill="#D2D2D2" d="M48,37v18H24c-1.1,0-2-0.9-2-2V39c0-1.1,0.9-2,2-2H48z"/>
		</g>
		<g>
			<g>
				<path fill="#C80A50" d="M54,54H24c-1.105,0-2-0.895-2-2V38c0-1.105,0.895-2,2-2h30c1.105,0,2,0.895,2,2v14
					C56,53.105,55.105,54,54,54z"/>
			</g>
			<g>
				<g>
					<g>
						<path fill="#F0F0F0" d="M42,47h-6c-0.553,0-1-0.447-1-1v-3c0-2.206,1.794-4,4-4s4,1.794,4,4v3C43,46.553,42.553,47,42,47z
							 M37,45h4v-2c0-1.103-0.897-2-2-2s-2,0.897-2,2V45z"/>
					</g>
					<g>
						<path fill="#F0F0F0" d="M36,51c-0.553,0-1-0.447-1-1v-4c0-0.553,0.447-1,1-1s1,0.447,1,1v4C37,50.553,36.553,51,36,51z"/>
					</g>
				</g>
				<g>
					<path fill="#F0F0F0" d="M42,51c-0.553,0-1-0.447-1-1v-4c0-0.553,0.447-1,1-1s1,0.447,1,1v4C43,50.553,42.553,51,42,51z"/>
				</g>
			</g>
			<g>
				<g>
					<g>
						<path fill="#F0F0F0" d="M32,47h-6c-0.553,0-1-0.447-1-1v-3c0-2.206,1.794-4,4-4s4,1.794,4,4v3C33,46.553,32.553,47,32,47z
							 M27,45h4v-2c0-1.103-0.897-2-2-2s-2,0.897-2,2V45z"/>
					</g>
					<g>
						<path fill="#F0F0F0" d="M26,51c-0.553,0-1-0.447-1-1v-4c0-0.553,0.447-1,1-1s1,0.447,1,1v4C27,50.553,26.553,51,26,51z"/>
					</g>
				</g>
				<g>
					<path fill="#F0F0F0" d="M32,51c-0.553,0-1-0.447-1-1v-4c0-0.553,0.447-1,1-1s1,0.447,1,1v4C33,50.553,32.553,51,32,51z"/>
				</g>
			</g>
			<g>
				<path fill="#F0F0F0" d="M49,51c-2.206,0-4-1.794-4-4v-4c0-2.206,1.794-4,4-4s4,1.794,4,4c0,0.553-0.447,1-1,1s-1-0.447-1-1
					c0-1.103-0.897-2-2-2s-2,0.897-2,2v4c0,1.103,0.897,2,2,2s2-0.897,2-2c0-0.553,0.447-1,1-1s1,0.447,1,1
					C53,49.206,51.206,51,49,51z"/>
			</g>
		</g>
		<g>
			<path fill="#D2D2D2" d="M48,18H37c-0.552,0-1-0.448-1-1V6L48,18z"/>
		</g>
		<g>
			<g>
				<g>
					<path fill="#0A5078" d="M15,32c-2.206,0-4-1.794-4-4s1.794-4,4-4s4,1.794,4,4S17.206,32,15,32z M15,26c-1.103,0-2,0.897-2,2
						s0.897,2,2,2s2-0.897,2-2S16.103,26,15,26z"/>
				</g>
				<g>
					<path fill="#0A5078" d="M26,32c-2.757,0-5-2.243-5-5s2.243-5,5-5s5,2.243,5,5S28.757,32,26,32z M26,24c-1.654,0-3,1.346-3,3
						s1.346,3,3,3s3-1.346,3-3S27.654,24,26,24z"/>
				</g>
				<g>
					<path fill="#0A5078" d="M30,28c-0.553,0-1-0.447-1-1V14H19v13c0,0.553-0.447,1-1,1s-1-0.447-1-1V13c0-0.553,0.447-1,1-1h12
						c0.553,0,1,0.447,1,1v14C31,27.553,30.553,28,30,28z"/>
				</g>
			</g>
			<g>
				<path fill="#0A5078" d="M26,18h-8c-0.553,0-1-0.447-1-1s0.447-1,1-1h8c0.553,0,1,0.447,1,1S26.553,18,26,18z"/>
			</g>
		</g>
	</g>
</g>
</svg>
