<?xml version="1.0" encoding="utf-8"?>
<!-- Generator: Adobe Illustrator 24.0.0, SVG Export Plug-In . SVG Version: 6.00 Build 0)  -->
<svg version="1.1" xmlns="http://www.w3.org/2000/svg" xmlns:xlink="http://www.w3.org/1999/xlink" x="0px" y="0px"
	 viewBox="0 0 64 64" enable-background="new 0 0 64 64" xml:space="preserve">
<g id="Captions">
</g>
<g id="Icons">
	<g>
		<path fill="#0A5078" d="M54,54H24c-1.105,0-2-0.895-2-2V38c0-1.105,0.895-2,2-2h30c1.105,0,2,0.895,2,2v14
			C56,53.105,55.105,54,54,54z"/>
		<g>
			<path fill="#F0F0F0" d="M48,16v43c0,0.55-0.45,1-1,1H9c-0.55,0-1-0.45-1-1V5c0-0.55,0.45-1,1-1h27L48,16z"/>
		</g>
		<g>
			<g>
				<g>
					<path fill="#0A5078" d="M14,20c-1.654,0-3-1.346-3-3v-2c0-1.654,1.346-3,3-3s3,1.346,3,3v2C17,18.654,15.654,20,14,20z M14,14
						c-0.552,0-1,0.448-1,1v2c0,0.552,0.448,1,1,1s1-0.448,1-1v-2C15,14.448,14.552,14,14,14z"/>
				</g>
				<g>
					<g>
						<path fill="#0A5078" d="M20,16c-0.256,0-0.512-0.098-0.707-0.293c-0.391-0.391-0.391-1.023,0-1.414l2-2
							c0.391-0.391,1.023-0.391,1.414,0s0.391,1.023,0,1.414l-2,2C20.512,15.902,20.256,16,20,16z"/>
					</g>
					<g>
						<path fill="#0A5078" d="M22,20c-0.553,0-1-0.447-1-1v-6c0-0.553,0.447-1,1-1s1,0.447,1,1v6C23,19.553,22.553,20,22,20z"/>
					</g>
					<g>
						<path fill="#0A5078" d="M24,20h-4c-0.553,0-1-0.447-1-1s0.447-1,1-1h4c0.553,0,1,0.447,1,1S24.553,20,24,20z"/>
					</g>
				</g>
				<g>
					<path fill="#0A5078" d="M30,20c-1.654,0-3-1.346-3-3v-2c0-1.654,1.346-3,3-3s3,1.346,3,3v2C33,18.654,31.654,20,30,20z M30,14
						c-0.552,0-1,0.448-1,1v2c0,0.552,0.448,1,1,1s1-0.448,1-1v-2C31,14.448,30.552,14,30,14z"/>
				</g>
				<g>
					<g>
						<path fill="#0A5078" d="M20,16c-0.256,0-0.512-0.098-0.707-0.293c-0.391-0.391-0.391-1.023,0-1.414l2-2
							c0.391-0.391,1.023-0.391,1.414,0s0.391,1.023,0,1.414l-2,2C20.512,15.902,20.256,16,20,16z"/>
					</g>
					<g>
						<path fill="#0A5078" d="M22,20c-0.553,0-1-0.447-1-1v-6c0-0.553,0.447-1,1-1s1,0.447,1,1v6C23,19.553,22.553,20,22,20z"/>
					</g>
					<g>
						<path fill="#0A5078" d="M24,20h-4c-0.553,0-1-0.447-1-1s0.447-1,1-1h4c0.553,0,1,0.447,1,1S24.553,20,24,20z"/>
					</g>
				</g>
			</g>
			<g>
				<g>
					<g>
						<path fill="#0A5078" d="M12,26c-0.256,0-0.512-0.098-0.707-0.293c-0.391-0.391-0.391-1.023,0-1.414l2-2
							c0.391-0.391,1.023-0.391,1.414,0s0.391,1.023,0,1.414l-2,2C12.512,25.902,12.256,26,12,26z"/>
					</g>
					<g>
						<path fill="#0A5078" d="M14,30c-0.553,0-1-0.447-1-1v-6c0-0.553,0.447-1,1-1s1,0.447,1,1v6C15,29.553,14.553,30,14,30z"/>
					</g>
					<g>
						<path fill="#0A5078" d="M16,30h-4c-0.553,0-1-0.447-1-1s0.447-1,1-1h4c0.553,0,1,0.447,1,1S16.553,30,16,30z"/>
					</g>
				</g>
				<g>
					<path fill="#0A5078" d="M22,30c-1.654,0-3-1.346-3-3v-2c0-1.654,1.346-3,3-3s3,1.346,3,3v2C25,28.654,23.654,30,22,30z M22,24
						c-0.552,0-1,0.448-1,1v2c0,0.552,0.448,1,1,1s1-0.448,1-1v-2C23,24.448,22.552,24,22,24z"/>
				</g>
				<g>
					<g>
						<path fill="#0A5078" d="M28,26c-0.256,0-0.512-0.098-0.707-0.293c-0.391-0.391-0.391-1.023,0-1.414l2-2
							c0.391-0.391,1.023-0.391,1.414,0s0.391,1.023,0,1.414l-2,2C28.512,25.902,28.256,26,28,26z"/>
					</g>
					<g>
						<path fill="#0A5078" d="M30,30c-0.553,0-1-0.447-1-1v-6c0-0.553,0.447-1,1-1s1,0.447,1,1v6C31,29.553,30.553,30,30,30z"/>
					</g>
					<g>
						<path fill="#0A5078" d="M32,30h-4c-0.553,0-1-0.447-1-1s0.447-1,1-1h4c0.553,0,1,0.447,1,1S32.553,30,32,30z"/>
					</g>
				</g>
				<g>
					<g>
						<path fill="#0A5078" d="M12,26c-0.256,0-0.512-0.098-0.707-0.293c-0.391-0.391-0.391-1.023,0-1.414l2-2
							c0.391-0.391,1.023-0.391,1.414,0s0.391,1.023,0,1.414l-2,2C12.512,25.902,12.256,26,12,26z"/>
					</g>
					<g>
						<path fill="#0A5078" d="M14,30c-0.553,0-1-0.447-1-1v-6c0-0.553,0.447-1,1-1s1,0.447,1,1v6C15,29.553,14.553,30,14,30z"/>
					</g>
					<g>
						<path fill="#0A5078" d="M16,30h-4c-0.553,0-1-0.447-1-1s0.447-1,1-1h4c0.553,0,1,0.447,1,1S16.553,30,16,30z"/>
					</g>
				</g>
			</g>
		</g>
		<g>
			<path fill="#D2D2D2" d="M48,37v18H24c-1.1,0-2-0.9-2-2V39c0-1.1,0.9-2,2-2H48z"/>
		</g>
		<g>
			<path fill="#00A0C8" d="M54,54H24c-1.105,0-2-0.895-2-2V38c0-1.105,0.895-2,2-2h30c1.105,0,2,0.895,2,2v14
				C56,53.105,55.105,54,54,54z"/>
		</g>
		<g>
			<g>
				<path fill="#F0F0F0" d="M42,41h-6c-0.553,0-1-0.447-1-1s0.447-1,1-1h6c0.553,0,1,0.447,1,1S42.553,41,42,41z"/>
			</g>
			<g>
				<path fill="#F0F0F0" d="M42,51h-6c-0.553,0-1-0.447-1-1s0.447-1,1-1h6c0.553,0,1,0.447,1,1S42.553,51,42,51z"/>
			</g>
			<g>
				<path fill="#F0F0F0" d="M39,51c-0.553,0-1-0.447-1-1V40c0-0.553,0.447-1,1-1s1,0.447,1,1v10C40,50.553,39.553,51,39,51z"/>
			</g>
		</g>
		<g>
			<path fill="#D2D2D2" d="M48,16H37c-0.552,0-1-0.448-1-1V4L48,16z"/>
		</g>
		<g>
			<g>
				<g>
					<path fill="#F0F0F0" d="M29.5,51H26c-0.553,0-1-0.447-1-1V40c0-0.553,0.447-1,1-1h3.5c1.93,0,3.5,1.57,3.5,3.5
						c0,0.979-0.403,1.864-1.053,2.5C32.597,45.636,33,46.521,33,47.5C33,49.43,31.43,51,29.5,51z M27,49h2.5
						c0.827,0,1.5-0.673,1.5-1.5S30.327,46,29.5,46H27V49z M27,44h2.5c0.827,0,1.5-0.673,1.5-1.5S30.327,41,29.5,41H27V44z"/>
				</g>
			</g>
		</g>
		<g>
			<g>
				<path fill="#F0F0F0" d="M52,51c-0.345,0-0.674-0.179-0.857-0.485L47,43.61V50c0,0.553-0.447,1-1,1s-1-0.447-1-1V40
					c0-0.449,0.3-0.844,0.733-0.964c0.429-0.118,0.894,0.064,1.124,0.449L51,46.39V40c0-0.553,0.447-1,1-1s1,0.447,1,1v10
					c0,0.449-0.3,0.844-0.733,0.964C52.179,50.988,52.089,51,52,51z"/>
			</g>
		</g>
	</g>
</g>
</svg>
