<?xml version="1.0" encoding="utf-8"?>
<!-- Generator: Adobe Illustrator 24.0.0, SVG Export Plug-In . SVG Version: 6.00 Build 0)  -->
<svg version="1.1" xmlns="http://www.w3.org/2000/svg" xmlns:xlink="http://www.w3.org/1999/xlink" x="0px" y="0px"
	 viewBox="0 0 64 64" enable-background="new 0 0 64 64" xml:space="preserve">
<g id="Captions">
</g>
<g id="Icons">
	<g>
		<g>
			<path fill="#F0F0F0" d="M48,16v43c0,0.55-0.45,1-1,1H9c-0.55,0-1-0.45-1-1V5c0-0.55,0.45-1,1-1h27L48,16z"/>
		</g>
		<g>
			<path fill="#D2D2D2" d="M48,37v18H24c-1.1,0-2-0.9-2-2V39c0-1.1,0.9-2,2-2H48z"/>
		</g>
		<g>
			<path fill="#0A5078" d="M54,54H24c-1.105,0-2-0.895-2-2V38c0-1.105,0.895-2,2-2h30c1.105,0,2,0.895,2,2v14
				C56,53.105,55.105,54,54,54z"/>
		</g>
		<g>
			<g>
				<path fill="#F0F0F0" d="M42,51c-0.553,0-1-0.447-1-1v-6.39l-1.143,1.904c-0.361,0.602-1.354,0.602-1.715,0L37,43.61V50
					c0,0.553-0.447,1-1,1s-1-0.447-1-1V40c0-0.449,0.3-0.844,0.733-0.964c0.43-0.119,0.894,0.063,1.124,0.449L39,43.057l2.143-3.571
					c0.23-0.386,0.693-0.57,1.124-0.449C42.7,39.156,43,39.551,43,40v10C43,50.553,42.553,51,42,51z"/>
			</g>
		</g>
		<g>
			<g>
				<path fill="#F0F0F0" d="M50,47h-3c-0.553,0-1-0.447-1-1v-6c0-0.553,0.447-1,1-1h3c2.206,0,4,1.794,4,4S52.206,47,50,47z M48,45
					h2c1.103,0,2-0.897,2-2s-0.897-2-2-2h-2V45z"/>
			</g>
			<g>
				<path fill="#F0F0F0" d="M47,51c-0.553,0-1-0.447-1-1v-4c0-0.553,0.447-1,1-1s1,0.447,1,1v4C48,50.553,47.553,51,47,51z"/>
			</g>
		</g>
		<g>
			<path fill="#D2D2D2" d="M48,16H37c-0.552,0-1-0.448-1-1V4L48,16z"/>
		</g>
		<g>
			<g>
				<path fill="#00A0C8" d="M17.219,18.976L11.3,26.375C10.776,27.03,11.242,28,12.081,28h11.839c0.839,0,1.305-0.97,0.781-1.625
					l-5.919-7.399C18.381,18.476,17.619,18.476,17.219,18.976z"/>
			</g>
			<g>
				<path fill="#00A0C8" d="M27.219,18.976L21.3,26.375C20.776,27.03,21.242,28,22.081,28h11.839c0.839,0,1.305-0.97,0.781-1.625
					l-5.919-7.399C28.381,18.476,27.619,18.476,27.219,18.976z"/>
			</g>
		</g>
		<g>
			<circle fill="#FAB400" cx="23" cy="14" r="4"/>
		</g>
		<g>
			<g>
				<path fill="#0082AA" d="M23.92,28h-1.84c-0.84,0-1.3-0.97-0.78-1.62l1.7-2.12l1.7,2.12C25.22,27.03,24.76,28,23.92,28z"/>
			</g>
			<g>
				<path fill="#0082AA" d="M23.92,28h-1.84c-0.84,0-1.3-0.97-0.78-1.62l1.7-2.12l1.7,2.12C25.22,27.03,24.76,28,23.92,28z"/>
			</g>
		</g>
		<g>
			<g>
				<g>
					<path fill="#F0F0F0" d="M29.5,51H26c-0.553,0-1-0.447-1-1V40c0-0.553,0.447-1,1-1h3.5c1.93,0,3.5,1.57,3.5,3.5
						c0,0.979-0.403,1.864-1.053,2.5C32.597,45.636,33,46.521,33,47.5C33,49.43,31.43,51,29.5,51z M27,49h2.5
						c0.827,0,1.5-0.673,1.5-1.5S30.327,46,29.5,46H27V49z M27,44h2.5c0.827,0,1.5-0.673,1.5-1.5S30.327,41,29.5,41H27V44z"/>
				</g>
			</g>
		</g>
	</g>
</g>
</svg>
