<?xml version="1.0" encoding="utf-8"?>
<!-- Generator: Adobe Illustrator 24.0.0, SVG Export Plug-In . SVG Version: 6.00 Build 0)  -->
<svg version="1.1" xmlns="http://www.w3.org/2000/svg" xmlns:xlink="http://www.w3.org/1999/xlink" x="0px" y="0px"
	 viewBox="0 0 64 64" enable-background="new 0 0 64 64" xml:space="preserve">
<g id="Captions">
</g>
<g id="Icons">
	<g>
		<g>
			<path fill="#F0F0F0" d="M48,16v43c0,0.55-0.45,1-1,1H9c-0.55,0-1-0.45-1-1V5c0-0.55,0.45-1,1-1h27L48,16z"/>
		</g>
		<g>
			<path fill="#D2D2D2" d="M48,37v18H24c-1.1,0-2-0.9-2-2V39c0-1.1,0.9-2,2-2H48z"/>
		</g>
		<g>
			<path fill="#00A0C8" d="M54,54H24c-1.105,0-2-0.895-2-2V38c0-1.105,0.895-2,2-2h30c1.105,0,2,0.895,2,2v14
				C56,53.105,55.105,54,54,54z"/>
		</g>
		<g>
			<g>
				<path fill="#F0F0F0" d="M39.837,51h-1.674C36.419,51,35,49.581,35,47.837c0-0.552,0.447-1,1-1s1,0.448,1,1
					C37,48.478,37.521,49,38.163,49h1.674C40.479,49,41,48.478,41,47.837c0-0.443-0.246-0.842-0.643-1.04l-3.609-1.805
					C35.67,44.453,35,43.369,35,42.163C35,40.419,36.419,39,38.163,39h1.674C41.581,39,43,40.419,43,42.163c0,0.552-0.447,1-1,1
					s-1-0.448-1-1C41,41.522,40.479,41,39.837,41h-1.674C37.521,41,37,41.522,37,42.163c0,0.443,0.246,0.842,0.643,1.04l3.609,1.805
					C42.33,45.547,43,46.631,43,47.837C43,49.581,41.581,51,39.837,51z"/>
			</g>
		</g>
		<g>
			<g>
				<path fill="#F0F0F0" d="M29,51c-2.206,0-4-1.794-4-4v-4c0-2.206,1.794-4,4-4s4,1.794,4,4c0,0.552-0.448,1-1,1s-1-0.448-1-1
					c0-1.103-0.897-2-2-2s-2,0.897-2,2v4c0,1.103,0.897,2,2,2s2-0.897,2-2c0-0.552,0.448-1,1-1s1,0.448,1,1
					C33,49.206,31.206,51,29,51z"/>
			</g>
		</g>
		<g>
			<path fill="#D2D2D2" d="M48,16H37c-0.552,0-1-0.448-1-1V4L48,16z"/>
		</g>
		<g>
			<g>
				<path fill="#F0F0F0" d="M49,51c-0.441,0-0.831-0.29-0.958-0.712l-3-10c-0.158-0.529,0.142-1.087,0.671-1.246
					c0.529-0.158,1.087,0.142,1.245,0.67L49,46.52l2.042-6.807c0.158-0.528,0.714-0.832,1.245-0.67
					c0.529,0.159,0.829,0.716,0.671,1.246l-3,10C49.831,50.71,49.441,51,49,51z"/>
			</g>
		</g>
		<g>
			<g>
				<path fill="#0A5078" d="M20,26v1c0,0.552,0.448,1,1,1h1v2h0c1.105,0,2-0.895,2-2v-2c0-1.105-0.895-2-2-2h0
					C20.895,24,20,24.895,20,26z"/>
			</g>
			<g>
				<g>
					<g>
						<path fill="#0A5078" d="M17,24h-6c-0.552,0-1-0.448-1-1v-3c0-2.206,1.794-4,4-4s4,1.794,4,4v3C18,23.552,17.552,24,17,24z
							 M12,22h4v-2c0-1.103-0.897-2-2-2s-2,0.897-2,2V22z"/>
					</g>
					<g>
						<path fill="#0A5078" d="M11,28c-0.552,0-1-0.448-1-1v-4c0-0.552,0.448-1,1-1s1,0.448,1,1v4C12,27.552,11.552,28,11,28z"/>
					</g>
				</g>
				<g>
					<path fill="#0A5078" d="M17,28c-0.552,0-1-0.448-1-1v-4c0-0.552,0.448-1,1-1s1,0.448,1,1v4C18,27.552,17.552,28,17,28z"/>
				</g>
			</g>
			<g>
				<g>
					<path fill="#0A5078" d="M30.5,28H27c-0.552,0-1-0.448-1-1V17c0-0.552,0.448-1,1-1h3.5c1.93,0,3.5,1.57,3.5,3.5
						c0,0.979-0.403,1.864-1.053,2.5C33.597,22.636,34,23.521,34,24.5C34,26.43,32.43,28,30.5,28z M28,26h2.5
						c0.827,0,1.5-0.673,1.5-1.5S31.327,23,30.5,23H28V26z M28,21h2.5c0.827,0,1.5-0.673,1.5-1.5S31.327,18,30.5,18H28V21z"/>
				</g>
			</g>
		</g>
	</g>
</g>
</svg>
