<?xml version="1.0" encoding="utf-8"?>
<!-- Generator: Adobe Illustrator 24.0.0, SVG Export Plug-In . SVG Version: 6.00 Build 0)  -->
<svg version="1.1" xmlns="http://www.w3.org/2000/svg" xmlns:xlink="http://www.w3.org/1999/xlink" x="0px" y="0px"
	 viewBox="0 0 64 64" enable-background="new 0 0 64 64" xml:space="preserve">
<g id="Captions">
</g>
<g id="Icons">
	<g>
		<g>
			<g>
				<path fill="#F0F0F0" d="M48,16v43c0,0.55-0.45,1-1,1H9c-0.55,0-1-0.45-1-1V5c0-0.55,0.45-1,1-1h27L48,16z"/>
			</g>
			<g>
				<g>
					<path fill="#0A5078" d="M14,20c-1.654,0-3-1.346-3-3v-2c0-1.654,1.346-3,3-3s3,1.346,3,3v2C17,18.654,15.654,20,14,20z M14,14
						c-0.552,0-1,0.448-1,1v2c0,0.552,0.448,1,1,1s1-0.448,1-1v-2C15,14.448,14.552,14,14,14z"/>
				</g>
				<g>
					<g>
						<path fill="#0A5078" d="M20,16c-0.256,0-0.512-0.098-0.707-0.293c-0.391-0.391-0.391-1.023,0-1.414l2-2
							c0.391-0.391,1.023-0.391,1.414,0s0.391,1.023,0,1.414l-2,2C20.512,15.902,20.256,16,20,16z"/>
					</g>
					<g>
						<path fill="#0A5078" d="M22,20c-0.553,0-1-0.447-1-1v-6c0-0.553,0.447-1,1-1s1,0.447,1,1v6C23,19.553,22.553,20,22,20z"/>
					</g>
					<g>
						<path fill="#0A5078" d="M24,20h-4c-0.553,0-1-0.447-1-1s0.447-1,1-1h4c0.553,0,1,0.447,1,1S24.553,20,24,20z"/>
					</g>
				</g>
				<g>
					<path fill="#0A5078" d="M30,20c-1.654,0-3-1.346-3-3v-2c0-1.654,1.346-3,3-3s3,1.346,3,3v2C33,18.654,31.654,20,30,20z M30,14
						c-0.552,0-1,0.448-1,1v2c0,0.552,0.448,1,1,1s1-0.448,1-1v-2C31,14.448,30.552,14,30,14z"/>
				</g>
				<g>
					<g>
						<path fill="#0A5078" d="M20,16c-0.256,0-0.512-0.098-0.707-0.293c-0.391-0.391-0.391-1.023,0-1.414l2-2
							c0.391-0.391,1.023-0.391,1.414,0s0.391,1.023,0,1.414l-2,2C20.512,15.902,20.256,16,20,16z"/>
					</g>
					<g>
						<path fill="#0A5078" d="M22,20c-0.553,0-1-0.447-1-1v-6c0-0.553,0.447-1,1-1s1,0.447,1,1v6C23,19.553,22.553,20,22,20z"/>
					</g>
					<g>
						<path fill="#0A5078" d="M24,20h-4c-0.553,0-1-0.447-1-1s0.447-1,1-1h4c0.553,0,1,0.447,1,1S24.553,20,24,20z"/>
					</g>
				</g>
			</g>
			<g>
				<g>
					<path fill="#0A5078" d="M12,26c-0.256,0-0.512-0.098-0.707-0.293c-0.391-0.391-0.391-1.023,0-1.414l2-2
						c0.391-0.391,1.023-0.391,1.414,0s0.391,1.023,0,1.414l-2,2C12.512,25.902,12.256,26,12,26z"/>
				</g>
				<g>
					<path fill="#0A5078" d="M14,30c-0.553,0-1-0.447-1-1v-6c0-0.553,0.447-1,1-1s1,0.447,1,1v6C15,29.553,14.553,30,14,30z"/>
				</g>
				<g>
					<path fill="#0A5078" d="M16,30h-4c-0.553,0-1-0.447-1-1s0.447-1,1-1h4c0.553,0,1,0.447,1,1S16.553,30,16,30z"/>
				</g>
			</g>
			<g>
				<path fill="#0A5078" d="M22,30c-1.654,0-3-1.346-3-3v-2c0-1.654,1.346-3,3-3s3,1.346,3,3v2C25,28.654,23.654,30,22,30z M22,24
					c-0.552,0-1,0.448-1,1v2c0,0.552,0.448,1,1,1s1-0.448,1-1v-2C23,24.448,22.552,24,22,24z"/>
			</g>
			<g>
				<g>
					<path fill="#0A5078" d="M28,26c-0.256,0-0.512-0.098-0.707-0.293c-0.391-0.391-0.391-1.023,0-1.414l2-2
						c0.391-0.391,1.023-0.391,1.414,0s0.391,1.023,0,1.414l-2,2C28.512,25.902,28.256,26,28,26z"/>
				</g>
				<g>
					<path fill="#0A5078" d="M30,30c-0.553,0-1-0.447-1-1v-6c0-0.553,0.447-1,1-1s1,0.447,1,1v6C31,29.553,30.553,30,30,30z"/>
				</g>
				<g>
					<path fill="#0A5078" d="M32,30h-4c-0.553,0-1-0.447-1-1s0.447-1,1-1h4c0.553,0,1,0.447,1,1S32.553,30,32,30z"/>
				</g>
			</g>
			<g>
				<g>
					<path fill="#0A5078" d="M12,26c-0.256,0-0.512-0.098-0.707-0.293c-0.391-0.391-0.391-1.023,0-1.414l2-2
						c0.391-0.391,1.023-0.391,1.414,0s0.391,1.023,0,1.414l-2,2C12.512,25.902,12.256,26,12,26z"/>
				</g>
				<g>
					<path fill="#0A5078" d="M14,30c-0.553,0-1-0.447-1-1v-6c0-0.553,0.447-1,1-1s1,0.447,1,1v6C15,29.553,14.553,30,14,30z"/>
				</g>
				<g>
					<path fill="#0A5078" d="M16,30h-4c-0.553,0-1-0.447-1-1s0.447-1,1-1h4c0.553,0,1,0.447,1,1S16.553,30,16,30z"/>
				</g>
			</g>
			<g>
				<g>
					<path fill="#C80A50" d="M54,54H24c-1.105,0-2-0.895-2-2V38c0-1.105,0.895-2,2-2h30c1.105,0,2,0.895,2,2v14
						C56,53.105,55.105,54,54,54z"/>
				</g>
			</g>
			<g>
				<path fill="#D2D2D2" d="M48,16H37c-0.552,0-1-0.448-1-1V4L48,16z"/>
			</g>
		</g>
		<g>
			<g>
				<g>
					<g>
						<path fill="#F0F0F0" d="M52,41h-6c-0.553,0-1-0.447-1-1s0.447-1,1-1h6c0.553,0,1,0.447,1,1S52.553,41,52,41z"/>
					</g>
					<g>
						<path fill="#F0F0F0" d="M49,51c-0.553,0-1-0.447-1-1V40c0-0.553,0.447-1,1-1s1,0.447,1,1v10C50,50.553,49.553,51,49,51z"/>
					</g>
				</g>
				<g>
					<g>
						<g>
							<path fill="#F0F0F0" d="M42,47h-6c-0.553,0-1-0.447-1-1v-3c0-2.206,1.794-4,4-4s4,1.794,4,4v3C43,46.553,42.553,47,42,47z
								 M37,45h4v-2c0-1.103-0.897-2-2-2s-2,0.897-2,2V45z"/>
						</g>
						<g>
							<path fill="#F0F0F0" d="M36,51c-0.553,0-1-0.447-1-1v-4c0-0.553,0.447-1,1-1s1,0.447,1,1v4C37,50.553,36.553,51,36,51z"/>
						</g>
					</g>
					<g>
						<path fill="#F0F0F0" d="M42,51c-0.553,0-1-0.447-1-1v-4c0-0.553,0.447-1,1-1s1,0.447,1,1v4C43,50.553,42.553,51,42,51z"/>
					</g>
				</g>
			</g>
			<g>
				<path fill="#F0F0F0" d="M28,51h-2c-0.553,0-1-0.447-1-1V40c0-0.553,0.447-1,1-1h2c2.757,0,5,2.243,5,5v2
					C33,48.757,30.757,51,28,51z M27,49h1c1.654,0,3-1.346,3-3v-2c0-1.654-1.346-3-3-3h-1V49z"/>
			</g>
		</g>
	</g>
</g>
</svg>
