<?xml version="1.0" encoding="utf-8"?>
<!-- Generator: Adobe Illustrator 24.0.0, SVG Export Plug-In . SVG Version: 6.00 Build 0)  -->
<svg version="1.1" xmlns="http://www.w3.org/2000/svg" xmlns:xlink="http://www.w3.org/1999/xlink" x="0px" y="0px"
	 viewBox="0 0 64 64" enable-background="new 0 0 64 64" xml:space="preserve">
<g id="Captions">
</g>
<g id="Icons">
	<g>
		<g>
			<circle fill="#C80A50" cx="29" cy="29" r="21"/>
		</g>
		<g>
			<path fill="#A00028" d="M48.41,37C45.27,44.64,37.76,50,29,50c-2.45,0-4.81-0.42-7-1.2V39c0-1.1,0.9-2,2-2H48.41z"/>
		</g>
		<g>
			<g>
				<circle fill="#A00028" cx="29" cy="29" r="6"/>
			</g>
			<g>
				<circle fill="#F0F0F0" cx="29" cy="29" r="3"/>
			</g>
		</g>
		<g>
			<g>
				<path fill="#FAB400" d="M54,56H24c-1.105,0-2-0.895-2-2V40c0-1.105,0.895-2,2-2h30c1.105,0,2,0.895,2,2v14
					C56,55.105,55.105,56,54,56z"/>
			</g>
		</g>
		<g>
			<g>
				<path fill="#0A5078" d="M42,53c-0.552,0-1-0.447-1-1v-6.39l-1.143,1.904c-0.361,0.602-1.354,0.602-1.715,0L37,45.61V52
					c0,0.553-0.448,1-1,1s-1-0.447-1-1V42c0-0.449,0.3-0.844,0.733-0.964c0.437-0.12,0.894,0.064,1.125,0.449L39,45.057l2.143-3.571
					c0.231-0.386,0.69-0.569,1.125-0.449C42.7,41.156,43,41.551,43,42v10C43,52.553,42.552,53,42,53z"/>
			</g>
		</g>
		<g>
			<path fill="#0A5078" d="M28,53h-2c-0.552,0-1-0.447-1-1V42c0-0.553,0.448-1,1-1h2c2.757,0,5,2.243,5,5v2
				C33,50.757,30.757,53,28,53z M27,51h1c1.654,0,3-1.346,3-3v-2c0-1.654-1.346-3-3-3h-1V51z"/>
		</g>
		<g>
			<g>
				<path fill="#0A5078" d="M50,53h-2c-1.654,0-3-1.346-3-3v-6c0-1.654,1.346-3,3-3h2c1.654,0,3,1.346,3,3c0,0.553-0.448,1-1,1
					s-1-0.447-1-1c0-0.552-0.449-1-1-1h-2c-0.551,0-1,0.448-1,1v6c0,0.552,0.449,1,1,1h2c0.551,0,1-0.448,1-1v-2h-1.5
					c-0.552,0-1-0.447-1-1s0.448-1,1-1H52c0.552,0,1,0.447,1,1v3C53,51.654,51.654,53,50,53z"/>
			</g>
		</g>
	</g>
</g>
</svg>
