<?xml version="1.0" encoding="utf-8"?>
<!-- Generator: Adobe Illustrator 24.0.0, SVG Export Plug-In . SVG Version: 6.00 Build 0)  -->
<svg version="1.1" xmlns="http://www.w3.org/2000/svg" xmlns:xlink="http://www.w3.org/1999/xlink" x="0px" y="0px"
	 viewBox="0 0 64 64" enable-background="new 0 0 64 64" xml:space="preserve">
<g id="Captions">
</g>
<g id="Icons">
	<g>
		<path fill="#F0F0F0" d="M48,16v43c0,0.55-0.45,1-1,1H9c-0.55,0-1-0.45-1-1V5c0-0.55,0.45-1,1-1h27L48,16z"/>
	</g>
	<g>
		<g>
			<path fill="#0A5078" d="M29,23H14c-0.552,0-1-0.448-1-1v0c0-0.552,0.448-1,1-1h15c0.552,0,1,0.448,1,1v0
				C30,22.552,29.552,23,29,23z"/>
		</g>
		<g>
			<path fill="#0A5078" d="M29,27H14c-0.552,0-1-0.448-1-1v0c0-0.552,0.448-1,1-1h15c0.552,0,1,0.448,1,1v0
				C30,26.552,29.552,27,29,27z"/>
		</g>
		<g>
			<path fill="#0A5078" d="M29,19H14c-0.552,0-1-0.448-1-1v0c0-0.552,0.448-1,1-1h15c0.552,0,1,0.448,1,1v0
				C30,18.552,29.552,19,29,19z"/>
		</g>
	</g>
	<g>
		<path fill="#D2D2D2" d="M48,37v18H14c-1.1,0-2-0.9-2-2V39c0-1.1,0.9-2,2-2H48z"/>
	</g>
	<g>
		<path fill="#0A5078" d="M54,54H14c-1.105,0-2-0.895-2-2V38c0-1.105,0.895-2,2-2h40c1.105,0,2,0.895,2,2v14
			C56,53.105,55.105,54,54,54z"/>
	</g>
	<g>
		<path fill="#F0F0F0" d="M18,51h-2c-0.552,0-1-0.448-1-1V40c0-0.552,0.448-1,1-1h2c2.757,0,5,2.243,5,5v2
			C23,48.757,20.757,51,18,51z M17,49h1c1.654,0,3-1.346,3-3v-2c0-1.654-1.346-3-3-3h-1V49z"/>
	</g>
	<g>
		<path fill="#F0F0F0" d="M29,51c-2.206,0-4-1.794-4-4v-4c0-2.206,1.794-4,4-4s4,1.794,4,4v4C33,49.206,31.206,51,29,51z M29,41
			c-1.103,0-2,0.897-2,2v4c0,1.103,0.897,2,2,2s2-0.897,2-2v-4C31,41.897,30.103,41,29,41z"/>
	</g>
	<g>
		<path fill="#F0F0F0" d="M39,51c-2.206,0-4-1.794-4-4v-4c0-2.206,1.794-4,4-4s4,1.794,4,4c0,0.552-0.448,1-1,1s-1-0.448-1-1
			c0-1.103-0.897-2-2-2s-2,0.897-2,2v4c0,1.103,0.897,2,2,2s2-0.897,2-2c0-0.552,0.448-1,1-1s1,0.448,1,1C43,49.206,41.206,51,39,51
			z"/>
	</g>
	<g>
		<g>
			<path fill="#F0F0F0" d="M52.001,51c-0.34,0-0.671-0.173-0.858-0.485l-6-10c-0.284-0.474-0.131-1.088,0.343-1.372
				c0.474-0.284,1.088-0.131,1.372,0.343l6,10c0.284,0.474,0.131,1.088-0.343,1.372C52.354,50.954,52.176,51,52.001,51z"/>
		</g>
		<g>
			<path fill="#F0F0F0" d="M45.999,51c-0.175,0-0.353-0.046-0.514-0.143c-0.474-0.284-0.627-0.898-0.343-1.372l6-10
				c0.284-0.475,0.897-0.628,1.372-0.343c0.474,0.284,0.627,0.898,0.343,1.372l-6,10C46.67,50.827,46.339,51,45.999,51z"/>
		</g>
	</g>
	<g>
		<path fill="#D2D2D2" d="M48,16H37c-0.552,0-1-0.448-1-1V4L48,16z"/>
	</g>
</g>
</svg>
