<?xml version="1.0" encoding="utf-8"?>
<!-- Generator: Adobe Illustrator 24.0.0, SVG Export Plug-In . SVG Version: 6.00 Build 0)  -->
<svg version="1.1" xmlns="http://www.w3.org/2000/svg" xmlns:xlink="http://www.w3.org/1999/xlink" x="0px" y="0px"
	 viewBox="0 0 64 64" enable-background="new 0 0 64 64" xml:space="preserve">
<g id="Captions">
</g>
<g id="Icons">
	<g>
		<g>
			<path fill="#D2D2D2" d="M52,13v30c0,0.55-0.45,1-1,1H5c-0.55,0-1-0.45-1-1V13c0-0.55,0.45-1,1-1h46C51.55,12,52,12.45,52,13z"/>
		</g>
		<g>
			<path fill="#B4B4B4" d="M52,13L28.55,28.63c-0.33,0.22-0.77,0.22-1.1,0L4,13c0-0.31,0.14-0.58,0.36-0.76C4.53,12.09,4.76,12,5,12
				h46c0.24,0,0.47,0.09,0.64,0.24C51.86,12.42,52,12.69,52,13z"/>
		</g>
		<g>
			<path fill="#F0F0F0" d="M51.64,12.24L28.55,27.63c-0.33,0.22-0.77,0.22-1.1,0L4.36,12.24C4.53,12.09,4.76,12,5,12h46
				C51.24,12,51.47,12.09,51.64,12.24z"/>
		</g>
		<g>
			<g>
				<path fill="#00A0C8" d="M58,52H28c-1.105,0-2-0.895-2-2V36c0-1.105,0.895-2,2-2h30c1.105,0,2,0.895,2,2v14
					C60,51.105,59.105,52,58,52z"/>
			</g>
			<g>
				<g>
					<path fill="#F0F0F0" d="M57,49h-6c-0.553,0-1-0.448-1-1V38c0-0.552,0.447-1,1-1s1,0.448,1,1v9h5c0.553,0,1,0.448,1,1
						S57.553,49,57,49z"/>
				</g>
			</g>
			<g>
				<g>
					<path fill="#F0F0F0" d="M46,49c-0.553,0-1-0.448-1-1v-6.39l-1.143,1.904c-0.361,0.603-1.354,0.603-1.715,0L41,41.61V48
						c0,0.552-0.447,1-1,1s-1-0.448-1-1V38c0-0.45,0.3-0.844,0.733-0.964c0.43-0.117,0.893,0.063,1.124,0.449L43,41.056l2.143-3.571
						c0.23-0.385,0.693-0.568,1.124-0.449C46.7,37.156,47,37.55,47,38v10C47,48.552,46.553,49,46,49z"/>
				</g>
			</g>
			<g>
				<g>
					<path fill="#F0F0F0" d="M36,44h-6c-0.553,0-1-0.448-1-1v-5c0-0.552,0.447-1,1-1h6c0.553,0,1,0.448,1,1s-0.447,1-1,1h-5v3h5
						c0.553,0,1,0.448,1,1S36.553,44,36,44z"/>
				</g>
				<g>
					<path fill="#F0F0F0" d="M36,49h-6c-0.553,0-1-0.448-1-1v-5c0-0.552,0.447-1,1-1s1,0.448,1,1v4h5c0.553,0,1,0.448,1,1
						S36.553,49,36,49z"/>
				</g>
			</g>
		</g>
	</g>
</g>
</svg>
