<?xml version="1.0" encoding="utf-8"?>
<!-- Generator: Adobe Illustrator 24.0.0, SVG Export Plug-In . SVG Version: 6.00 Build 0)  -->
<svg version="1.1" xmlns="http://www.w3.org/2000/svg" xmlns:xlink="http://www.w3.org/1999/xlink" x="0px" y="0px"
	 viewBox="0 0 64 64" enable-background="new 0 0 64 64" xml:space="preserve">
<g id="Captions">
</g>
<g id="Icons">
	<g>
		<g>
			<path fill="#0A5078" d="M50,10v44c0,1.1-0.9,2-2,2H10c-1.1,0-2-0.9-2-2V10c0-1.1,0.9-2,2-2h38C49.1,8,50,8.9,50,10z"/>
		</g>
		<g>
			<path fill="#00325A" d="M50,30v18H24c-1.1,0-2-0.9-2-2V32c0-1.1,0.9-2,2-2H50z"/>
		</g>
		<g>
			<path fill="#F0F0F0" d="M48,16.5V50c0,0.55-0.45,1-1,1H11c-0.55,0-1-0.45-1-1V16.5c0-0.55,0.45-1,1-1h36
				C47.55,15.5,48,15.95,48,16.5z"/>
		</g>
		<g>
			<path fill="#D2D2D2" d="M48,30v18H24c-1.1,0-2-0.9-2-2V32c0-1.1,0.9-2,2-2H48z"/>
		</g>
		<g>
			<g>
				<path fill="#0A5078" d="M33,35h-4c-0.553,0-1-0.448-1-1s0.447-1,1-1h4c0.553,0,1,0.448,1,1S33.553,35,33,35z"/>
			</g>
		</g>
		<g>
			<circle fill="#C80A50" cx="47" cy="12" r="1"/>
		</g>
		<g>
			<circle fill="#FAB400" cx="43" cy="12" r="1"/>
		</g>
		<g>
			<circle fill="#00A0C8" cx="39" cy="12" r="1"/>
		</g>
		<g>
			<g>
				<path fill="#C80A50" d="M54,47H24c-1.105,0-2-0.895-2-2V31c0-1.105,0.895-2,2-2h30c1.105,0,2,0.895,2,2v14
					C56,46.105,55.105,47,54,47z"/>
			</g>
			<g>
				<g>
					<path fill="#F0F0F0" d="M32,39h-6c-0.553,0-1-0.448-1-1v-5c0-0.552,0.447-1,1-1h6c0.553,0,1,0.448,1,1s-0.447,1-1,1h-5v3h5
						c0.553,0,1,0.448,1,1S32.553,39,32,39z"/>
				</g>
				<g>
					<path fill="#F0F0F0" d="M32,44h-6c-0.553,0-1-0.448-1-1v-5c0-0.552,0.447-1,1-1s1,0.448,1,1v4h5c0.553,0,1,0.448,1,1
						S32.553,44,32,44z"/>
				</g>
			</g>
			<g>
				<g>
					<path fill="#F0F0F0" d="M52,39h-6c-0.553,0-1-0.448-1-1v-5c0-0.552,0.447-1,1-1h6c0.553,0,1,0.448,1,1s-0.447,1-1,1h-5v3h5
						c0.553,0,1,0.448,1,1S52.553,39,52,39z"/>
				</g>
				<g>
					<path fill="#F0F0F0" d="M52,44h-6c-0.553,0-1-0.448-1-1v-5c0-0.552,0.447-1,1-1s1,0.448,1,1v4h5c0.553,0,1,0.448,1,1
						S52.553,44,52,44z"/>
				</g>
			</g>
			<g>
				<g>
					<path fill="#F0F0F0" d="M42.001,44c-0.34,0-0.671-0.173-0.858-0.485l-6-10c-0.284-0.474-0.131-1.088,0.343-1.372
						c0.474-0.285,1.088-0.13,1.372,0.343l6,10c0.284,0.474,0.131,1.088-0.343,1.372C42.354,43.954,42.176,44,42.001,44z"/>
				</g>
			</g>
			<g>
				<g>
					<path fill="#F0F0F0" d="M35.999,44c-0.175,0-0.353-0.046-0.514-0.143c-0.474-0.284-0.627-0.898-0.343-1.372l6-10
						c0.284-0.473,0.897-0.627,1.372-0.343c0.474,0.284,0.627,0.898,0.343,1.372l-6,10C36.67,43.827,36.339,44,35.999,44z"/>
				</g>
			</g>
		</g>
		<g>
			<path fill="#0A5078" d="M17,27c-1.654,0-3-1.346-3-3v-2c0-1.654,1.346-3,3-3s3,1.346,3,3v2C20,25.654,18.654,27,17,27z M17,21
				c-0.552,0-1,0.449-1,1v2c0,0.551,0.448,1,1,1s1-0.449,1-1v-2C18,21.449,17.552,21,17,21z"/>
		</g>
		<g>
			<path fill="#0A5078" d="M17,47c-1.654,0-3-1.346-3-3v-2c0-1.654,1.346-3,3-3s3,1.346,3,3v2C20,45.654,18.654,47,17,47z M17,41
				c-0.552,0-1,0.449-1,1v2c0,0.551,0.448,1,1,1s1-0.449,1-1v-2C18,41.449,17.552,41,17,41z"/>
		</g>
		<g>
			<g>
				<path fill="#0A5078" d="M23,23c-0.256,0-0.512-0.098-0.707-0.293c-0.391-0.391-0.391-1.023,0-1.414l2-2
					c0.391-0.391,1.023-0.391,1.414,0s0.391,1.023,0,1.414l-2,2C23.512,22.902,23.256,23,23,23z"/>
			</g>
			<g>
				<path fill="#0A5078" d="M25,27c-0.553,0-1-0.448-1-1v-6c0-0.552,0.447-1,1-1s1,0.448,1,1v6C26,26.552,25.553,27,25,27z"/>
			</g>
			<g>
				<path fill="#0A5078" d="M27,27h-4c-0.553,0-1-0.448-1-1s0.447-1,1-1h4c0.553,0,1,0.448,1,1S27.553,27,27,27z"/>
			</g>
		</g>
		<g>
			<g>
				<path fill="#0A5078" d="M15,33c-0.256,0-0.512-0.098-0.707-0.293c-0.391-0.391-0.391-1.023,0-1.414l2-2
					c0.391-0.391,1.023-0.391,1.414,0s0.391,1.023,0,1.414l-2,2C15.512,32.902,15.256,33,15,33z"/>
			</g>
			<g>
				<path fill="#0A5078" d="M17,37c-0.553,0-1-0.448-1-1v-6c0-0.552,0.447-1,1-1s1,0.448,1,1v6C18,36.552,17.553,37,17,37z"/>
			</g>
			<g>
				<path fill="#0A5078" d="M19,37h-4c-0.553,0-1-0.448-1-1s0.447-1,1-1h4c0.553,0,1,0.448,1,1S19.553,37,19,37z"/>
			</g>
		</g>
		<g>
			<path fill="#0A5078" d="M33,27c-1.654,0-3-1.346-3-3v-2c0-1.654,1.346-3,3-3s3,1.346,3,3v2C36,25.654,34.654,27,33,27z M33,21
				c-0.552,0-1,0.449-1,1v2c0,0.551,0.448,1,1,1s1-0.449,1-1v-2C34,21.449,33.552,21,33,21z"/>
		</g>
		<g>
			<g>
				<path fill="#0A5078" d="M39,23c-0.256,0-0.512-0.098-0.707-0.293c-0.391-0.391-0.391-1.023,0-1.414l2-2
					c0.391-0.391,1.023-0.391,1.414,0s0.391,1.023,0,1.414l-2,2C39.512,22.902,39.256,23,39,23z"/>
			</g>
			<g>
				<path fill="#0A5078" d="M41,27c-0.553,0-1-0.448-1-1v-6c0-0.552,0.447-1,1-1s1,0.448,1,1v6C42,26.552,41.553,27,41,27z"/>
			</g>
			<g>
				<path fill="#0A5078" d="M43,27h-4c-0.553,0-1-0.448-1-1s0.447-1,1-1h4c0.553,0,1,0.448,1,1S43.553,27,43,27z"/>
			</g>
		</g>
		<g>
			<g>
				<path fill="#0A5078" d="M23,23c-0.256,0-0.512-0.098-0.707-0.293c-0.391-0.391-0.391-1.023,0-1.414l2-2
					c0.391-0.391,1.023-0.391,1.414,0s0.391,1.023,0,1.414l-2,2C23.512,22.902,23.256,23,23,23z"/>
			</g>
			<g>
				<path fill="#0A5078" d="M25,27c-0.553,0-1-0.448-1-1v-6c0-0.552,0.447-1,1-1s1,0.448,1,1v6C26,26.552,25.553,27,25,27z"/>
			</g>
			<g>
				<path fill="#0A5078" d="M27,27h-4c-0.553,0-1-0.448-1-1s0.447-1,1-1h4c0.553,0,1,0.448,1,1S27.553,27,27,27z"/>
			</g>
		</g>
	</g>
</g>
</svg>
