<?xml version="1.0" encoding="utf-8"?>
<!-- Generator: Adobe Illustrator 24.0.0, SVG Export Plug-In . SVG Version: 6.00 Build 0)  -->
<svg version="1.1" xmlns="http://www.w3.org/2000/svg" xmlns:xlink="http://www.w3.org/1999/xlink" x="0px" y="0px"
	 viewBox="0 0 64 64" enable-background="new 0 0 64 64" xml:space="preserve">
<g id="Captions">
</g>
<g id="Icons">
	<g>
		<g>
			<path fill="#F0F0F0" d="M48,12v47c0,0.55-0.45,1-1,1H9c-0.55,0-1-0.45-1-1V5c0-0.55,0.45-1,1-1h31L48,12z"/>
		</g>
		<g>
			<path fill="#00A0C8" d="M36,31H13c-0.552,0-1-0.448-1-1V14c0-0.552,0.448-1,1-1h23c0.552,0,1,0.448,1,1v16
				C37,30.552,36.552,31,36,31z"/>
		</g>
		<g>
			<path fill="#D2D2D2" d="M48,12h-7c-0.552,0-1-0.448-1-1V4L48,12z"/>
		</g>
		<g>
			<path fill="#D2D2D2" d="M48,37v18H24c-1.1,0-2-0.9-2-2V39c0-1.1,0.9-2,2-2H48z"/>
		</g>
		<g>
			<path fill="#C80A50" d="M54,54H24c-1.105,0-2-0.895-2-2V38c0-1.105,0.895-2,2-2h30c1.105,0,2,0.895,2,2v14
				C56,53.105,55.105,54,54,54z"/>
		</g>
		<g>
			<g>
				<g>
					<g>
						<path fill="#F0F0F0" d="M52,47h-6c-0.553,0-1-0.448-1-1v-3c0-2.206,1.794-4,4-4s4,1.794,4,4v3C53,46.552,52.553,47,52,47z
							 M47,45h4v-2c0-1.103-0.897-2-2-2s-2,0.897-2,2V45z"/>
					</g>
					<g>
						<path fill="#F0F0F0" d="M46,51c-0.553,0-1-0.448-1-1v-4c0-0.552,0.447-1,1-1s1,0.448,1,1v4C47,50.552,46.553,51,46,51z"/>
					</g>
				</g>
				<g>
					<path fill="#F0F0F0" d="M52,51c-0.553,0-1-0.448-1-1v-4c0-0.552,0.447-1,1-1s1,0.448,1,1v4C53,50.552,52.553,51,52,51z"/>
				</g>
			</g>
			<g>
				<g>
					<path fill="#F0F0F0" d="M42,51h-6c-0.553,0-1-0.448-1-1V40c0-0.552,0.447-1,1-1s1,0.448,1,1v9h5c0.553,0,1,0.448,1,1
						S42.553,51,42,51z"/>
				</g>
			</g>
			<g>
				<g>
					<path fill="#F0F0F0" d="M32,47h-6c-0.553,0-1-0.448-1-1v-6c0-0.552,0.447-1,1-1h6c0.553,0,1,0.448,1,1s-0.447,1-1,1h-5v4h5
						c0.553,0,1,0.448,1,1S32.553,47,32,47z"/>
				</g>
				<g>
					<path fill="#F0F0F0" d="M26,51c-0.553,0-1-0.448-1-1v-4c0-0.552,0.447-1,1-1s1,0.448,1,1v4C27,50.552,26.553,51,26,51z"/>
				</g>
			</g>
		</g>
		<g>
			<g>
				<rect x="13" y="15" fill="#F0F0F0" width="2" height="2"/>
			</g>
			<g>
				<rect x="13" y="19" fill="#F0F0F0" width="2" height="2"/>
			</g>
			<g>
				<rect x="13" y="23" fill="#F0F0F0" width="2" height="2"/>
			</g>
			<g>
				<rect x="13" y="27" fill="#F0F0F0" width="2" height="2"/>
			</g>
		</g>
		<g>
			<g>
				<rect x="34" y="15" fill="#F0F0F0" width="2" height="2"/>
			</g>
			<g>
				<rect x="34" y="19" fill="#F0F0F0" width="2" height="2"/>
			</g>
			<g>
				<rect x="34" y="23" fill="#F0F0F0" width="2" height="2"/>
			</g>
			<g>
				<rect x="34" y="27" fill="#F0F0F0" width="2" height="2"/>
			</g>
		</g>
		<g>
			<g>
				<rect x="16" y="13" fill="#0A5078" width="17" height="18"/>
			</g>
		</g>
		<g>
			<g>
				<path fill="#DC9600" d="M26,20.5h-5c-0.276,0-0.5-0.224-0.5-0.5s0.224-0.5,0.5-0.5h5c0.276,0,0.5,0.224,0.5,0.5
					S26.276,20.5,26,20.5z"/>
			</g>
			<g>
				<path fill="#DC9600" d="M24,22.5h-5c-0.276,0-0.5-0.224-0.5-0.5s0.224-0.5,0.5-0.5h5c0.276,0,0.5,0.224,0.5,0.5
					S24.276,22.5,24,22.5z"/>
			</g>
			<g>
				<path fill="#DC9600" d="M26,24.5h-5c-0.276,0-0.5-0.224-0.5-0.5s0.224-0.5,0.5-0.5h5c0.276,0,0.5,0.224,0.5,0.5
					S26.276,24.5,26,24.5z"/>
			</g>
		</g>
		<g>
			<circle fill="#FAB400" cx="26" cy="22" r="4"/>
		</g>
	</g>
</g>
</svg>
