<?xml version="1.0" encoding="utf-8"?>
<!-- Generator: Adobe Illustrator 24.0.0, SVG Export Plug-In . SVG Version: 6.00 Build 0)  -->
<svg version="1.1" xmlns="http://www.w3.org/2000/svg" xmlns:xlink="http://www.w3.org/1999/xlink" x="0px" y="0px"
	 viewBox="0 0 64 64" enable-background="new 0 0 64 64" xml:space="preserve">
<g id="Captions">
</g>
<g id="Icons">
	<g>
		<path fill="#F0F0F0" d="M48,16v43c0,0.55-0.45,1-1,1H9c-0.55,0-1-0.45-1-1V5c0-0.55,0.45-1,1-1h27L48,16z"/>
	</g>
	<g>
		<path fill="#D2D2D2" d="M48,37v18H14c-1.1,0-2-0.9-2-2V39c0-1.1,0.9-2,2-2H48z"/>
	</g>
	<g>
		<path fill="#00A0C8" d="M54,54H14c-1.105,0-2-0.895-2-2V38c0-1.105,0.895-2,2-2h40c1.105,0,2,0.895,2,2v14
			C56,53.105,55.105,54,54,54z"/>
	</g>
	<g>
		<g>
			<g>
				<path fill="#F0F0F0" d="M39,51c-0.553,0-1-0.448-1-1V40c0-0.552,0.447-1,1-1s1,0.448,1,1v10C40,50.552,39.553,51,39,51z"/>
			</g>
		</g>
		<g>
			<path fill="#F0F0F0" d="M42,41h-6c-0.553,0-1-0.448-1-1s0.447-1,1-1h6c0.553,0,1,0.448,1,1S42.553,41,42,41z"/>
		</g>
	</g>
	<g>
		<path fill="#D2D2D2" d="M48,16H37c-0.552,0-1-0.448-1-1V4L48,16z"/>
	</g>
	<g>
		<path fill="#F0F0F0" d="M52,51h-6c-0.553,0-1-0.448-1-1V40c0-0.552,0.447-1,1-1s1,0.448,1,1v9h5c0.553,0,1,0.448,1,1
			S52.553,51,52,51z"/>
	</g>
	<g>
		<path fill="#F0F0F0" d="M32,51c-0.553,0-1-0.448-1-1v-6.39l-1.143,1.904c-0.361,0.603-1.354,0.603-1.715,0L27,43.61V50
			c0,0.552-0.447,1-1,1s-1-0.448-1-1V40c0-0.45,0.3-0.844,0.733-0.964c0.429-0.117,0.894,0.063,1.124,0.449L29,43.056l2.143-3.571
			c0.23-0.386,0.695-0.568,1.124-0.449C32.7,39.156,33,39.55,33,40v10C33,50.552,32.553,51,32,51z"/>
	</g>
	<g>
		<g>
			<path fill="#F0F0F0" d="M16,51c-0.553,0-1-0.448-1-1V40c0-0.552,0.447-1,1-1s1,0.448,1,1v10C17,50.552,16.553,51,16,51z"/>
		</g>
		<g>
			<path fill="#F0F0F0" d="M22,51c-0.553,0-1-0.448-1-1V40c0-0.552,0.447-1,1-1s1,0.448,1,1v10C23,50.552,22.553,51,22,51z"/>
		</g>
		<g>
			<g>
				<path fill="#F0F0F0" d="M22,46h-6c-0.553,0-1-0.448-1-1s0.447-1,1-1h6c0.553,0,1,0.448,1,1S22.553,46,22,46z"/>
			</g>
		</g>
	</g>
	<g>
		<path fill="#0A5078" d="M17.001,29c-0.287,0-0.571-0.123-0.77-0.36l-5-6c-0.309-0.371-0.309-0.91,0-1.28l5-6
			c0.354-0.424,0.982-0.482,1.409-0.128c0.424,0.354,0.481,0.984,0.128,1.408L13.302,22l4.467,5.36
			c0.354,0.424,0.296,1.055-0.128,1.408C17.453,28.924,17.227,29,17.001,29z"/>
	</g>
	<g>
		<path fill="#0A5078" d="M28.999,29c-0.226,0-0.452-0.076-0.64-0.232c-0.424-0.354-0.481-0.984-0.128-1.408L32.698,22l-4.467-5.36
			c-0.354-0.424-0.296-1.055,0.128-1.408c0.426-0.354,1.056-0.296,1.409,0.128l5,6c0.309,0.371,0.309,0.91,0,1.28l-5,6
			C29.57,28.877,29.286,29,28.999,29z"/>
	</g>
	<g>
		<path fill="#0A5078" d="M22.001,29c-0.055,0-0.109-0.004-0.165-0.014c-0.545-0.091-0.913-0.606-0.822-1.151l2-12
			c0.091-0.545,0.605-0.916,1.15-0.822c0.545,0.091,0.913,0.606,0.822,1.151l-2,12C22.905,28.653,22.481,29,22.001,29z"/>
	</g>
</g>
</svg>
