<?xml version="1.0" encoding="utf-8"?>
<!-- Generator: Adobe Illustrator 24.0.0, SVG Export Plug-In . SVG Version: 6.00 Build 0)  -->
<svg version="1.1" xmlns="http://www.w3.org/2000/svg" xmlns:xlink="http://www.w3.org/1999/xlink" x="0px" y="0px"
	 viewBox="0 0 64 64" enable-background="new 0 0 64 64" xml:space="preserve">
<g id="Captions">
</g>
<g id="Icons">
	<g>
		<g>
			<path fill="#C80A50" d="M48,12v47c0,0.55-0.45,1-1,1H9c-0.55,0-1-0.45-1-1V5c0-0.55,0.45-1,1-1h31L48,12z"/>
		</g>
		<g>
			<path fill="#A00028" d="M48,12h-7c-0.552,0-1-0.448-1-1V4L48,12z"/>
		</g>
		<g>
			<path fill="#A00028" d="M48,37v18H14c-1.1,0-2-0.9-2-2V39c0-1.1,0.9-2,2-2H48z"/>
		</g>
		<g>
			<path fill="#F0F0F0" d="M54,54H14c-1.105,0-2-0.895-2-2V38c0-1.105,0.895-2,2-2h40c1.105,0,2,0.895,2,2v14
				C56,53.105,55.105,54,54,54z"/>
		</g>
		<g>
			<g>
				<path fill="#0A5078" d="M22,41h-6c-0.552,0-1-0.447-1-1s0.448-1,1-1h6c0.552,0,1,0.447,1,1S22.552,41,22,41z"/>
			</g>
			<g>
				<path fill="#0A5078" d="M22,51h-6c-0.552,0-1-0.447-1-1s0.448-1,1-1h6c0.552,0,1,0.447,1,1S22.552,51,22,51z"/>
			</g>
			<g>
				<path fill="#0A5078" d="M19,51c-0.552,0-1-0.447-1-1V40c0-0.553,0.448-1,1-1s1,0.447,1,1v10C20,50.553,19.552,51,19,51z"/>
			</g>
		</g>
		<g>
			<g>
				<path fill="#0A5078" d="M32,51c-0.345,0-0.673-0.179-0.857-0.485L27,43.61V50c0,0.553-0.448,1-1,1s-1-0.447-1-1V40
					c0-0.449,0.3-0.844,0.733-0.964c0.437-0.118,0.893,0.064,1.125,0.449L31,46.39V40c0-0.553,0.448-1,1-1s1,0.447,1,1v10
					c0,0.449-0.3,0.844-0.733,0.964C32.178,50.988,32.088,51,32,51z"/>
			</g>
		</g>
		<g>
			<path fill="#0A5078" d="M38,51h-2c-0.552,0-1-0.447-1-1V40c0-0.553,0.448-1,1-1h2c2.757,0,5,2.243,5,5v2
				C43,48.757,40.757,51,38,51z M37,49h1c1.654,0,3-1.346,3-3v-2c0-1.654-1.346-3-3-3h-1V49z"/>
		</g>
		<g>
			<path fill="#0A5078" d="M48,51h-2c-0.552,0-1-0.447-1-1V40c0-0.553,0.448-1,1-1h2c2.757,0,5,2.243,5,5v2
				C53,48.757,50.757,51,48,51z M47,49h1c1.654,0,3-1.346,3-3v-2c0-1.654-1.346-3-3-3h-1V49z"/>
		</g>
		<g>
			<path fill="#F0F0F0" d="M35,28H12V12h23V28z M14,26h19V14H14V26z"/>
		</g>
		<g>
			<circle fill="#00A0C8" cx="13" cy="13" r="2"/>
		</g>
		<g>
			<circle fill="#00A0C8" cx="34" cy="13" r="2"/>
		</g>
		<g>
			<circle fill="#00A0C8" cx="13" cy="27" r="2"/>
		</g>
		<g>
			<circle fill="#00A0C8" cx="34" cy="27" r="2"/>
		</g>
		<g>
			<path fill="#F0F0F0" d="M26.854,20.732l-1.793-1.793l0.232-0.232c0.63-0.63,0.184-1.707-0.707-1.707H22c-0.552,0-1,0.448-1,1
				v2.586c0,0.891,1.077,1.337,1.707,0.707l0.232-0.232l1.793,1.793c0.391,0.391,1.024,0.391,1.414,0l0.707-0.707
				C27.244,21.756,27.244,21.123,26.854,20.732z"/>
		</g>
	</g>
</g>
</svg>
