<?xml version="1.0" encoding="utf-8"?>
<!-- Generator: Adobe Illustrator 24.0.0, SVG Export Plug-In . SVG Version: 6.00 Build 0)  -->
<svg version="1.1" xmlns="http://www.w3.org/2000/svg" xmlns:xlink="http://www.w3.org/1999/xlink" x="0px" y="0px"
	 viewBox="0 0 64 64" enable-background="new 0 0 64 64" xml:space="preserve">
<g id="Captions">
</g>
<g id="Icons">
	<g>
		<g>
			<circle fill="#FAB400" cx="29" cy="29" r="21"/>
		</g>
		<g>
			<path fill="#DC9600" d="M48.41,37C45.27,44.64,37.76,50,29,50c-2.45,0-4.81-0.42-7-1.2V39c0-1.1,0.9-2,2-2H48.41z"/>
		</g>
		<g>
			<g>
				<circle fill="#DC9600" cx="29" cy="29" r="6"/>
			</g>
			<g>
				<circle fill="#F0F0F0" cx="29" cy="29" r="3"/>
			</g>
		</g>
		<g>
			<g>
				<path fill="#00A0C8" d="M54,56H24c-1.105,0-2-0.895-2-2V40c0-1.105,0.895-2,2-2h30c1.105,0,2,0.895,2,2v14
					C56,55.105,55.105,56,54,56z"/>
			</g>
			<g>
				<g>
					<path fill="#F0F0F0" d="M33,43h-6c-0.552,0-1-0.447-1-1s0.448-1,1-1h6c0.552,0,1,0.447,1,1S33.552,43,33,43z"/>
				</g>
				<g>
					<path fill="#F0F0F0" d="M33,53h-6c-0.552,0-1-0.447-1-1s0.448-1,1-1h6c0.552,0,1,0.447,1,1S33.552,53,33,53z"/>
				</g>
				<g>
					<path fill="#F0F0F0" d="M30,53c-0.552,0-1-0.447-1-1V42c0-0.553,0.448-1,1-1s1,0.447,1,1v10C31,52.553,30.552,53,30,53z"/>
				</g>
			</g>
			<g>
				<g>
					<path fill="#F0F0F0" d="M40.837,53h-1.674C37.419,53,36,51.581,36,49.837c0-0.553,0.448-1,1-1s1,0.447,1,1
						C38,50.479,38.522,51,39.163,51h1.674C41.478,51,42,50.479,42,49.837c0-0.443-0.246-0.842-0.643-1.04l-3.609-1.805
						C36.67,46.453,36,45.369,36,44.163C36,42.419,37.419,41,39.163,41h1.674C42.581,41,44,42.419,44,44.163c0,0.553-0.448,1-1,1
						s-1-0.447-1-1C42,43.521,41.478,43,40.837,43h-1.674C38.522,43,38,43.521,38,44.163c0,0.443,0.246,0.842,0.643,1.04
						l3.609,1.805C43.33,47.547,44,48.631,44,49.837C44,51.581,42.581,53,40.837,53z"/>
				</g>
			</g>
		</g>
		<g>
			<g>
				<path fill="#F0F0F0" d="M50,53c-2.206,0-4-1.794-4-4v-4c0-2.206,1.794-4,4-4s4,1.794,4,4v4C54,51.206,52.206,53,50,53z M50,43
					c-1.103,0-2,0.897-2,2v4c0,1.103,0.897,2,2,2s2-0.897,2-2v-4C52,43.897,51.103,43,50,43z"/>
			</g>
		</g>
	</g>
</g>
</svg>
