<?xml version="1.0" encoding="utf-8"?>
<!-- Generator: Adobe Illustrator 24.0.0, SVG Export Plug-In . SVG Version: 6.00 Build 0)  -->
<svg version="1.1" xmlns="http://www.w3.org/2000/svg" xmlns:xlink="http://www.w3.org/1999/xlink" x="0px" y="0px"
	 viewBox="0 0 64 64" enable-background="new 0 0 64 64" xml:space="preserve">
<g id="Captions">
</g>
<g id="Icons">
	<g>
		<g>
			<path fill="#F0F0F0" d="M48,16v43c0,0.55-0.45,1-1,1H9c-0.55,0-1-0.45-1-1V5c0-0.55,0.45-1,1-1h27L48,16z"/>
		</g>
		<g>
			<path fill="#D2D2D2" d="M48,37v18H24c-1.1,0-2-0.9-2-2V39c0-1.1,0.9-2,2-2H48z"/>
		</g>
		<g>
			<g>
				<path fill="#C80A50" d="M54,54H24c-1.105,0-2-0.895-2-2V38c0-1.105,0.895-2,2-2h30c1.105,0,2,0.895,2,2v14
					C56,53.105,55.105,54,54,54z"/>
			</g>
			<g>
				<path fill="#F0F0F0" d="M29,51c-2.206,0-4-1.794-4-4c0-0.553,0.448-1,1-1s1,0.447,1,1c0,1.103,0.897,2,2,2s2-0.897,2-2v-6h-5
					c-0.552,0-1-0.447-1-1s0.448-1,1-1h6c0.552,0,1,0.447,1,1v7C33,49.206,31.206,51,29,51z"/>
			</g>
			<g>
				<g>
					<g>
						<path fill="#F0F0F0" d="M42,47h-6c-0.552,0-1-0.447-1-1v-3c0-2.206,1.794-4,4-4s4,1.794,4,4v3C43,46.553,42.552,47,42,47z
							 M37,45h4v-2c0-1.103-0.897-2-2-2s-2,0.897-2,2V45z"/>
					</g>
					<g>
						<path fill="#F0F0F0" d="M36,51c-0.552,0-1-0.447-1-1v-4c0-0.553,0.448-1,1-1s1,0.447,1,1v4C37,50.553,36.552,51,36,51z"/>
					</g>
				</g>
				<g>
					<path fill="#F0F0F0" d="M42,51c-0.552,0-1-0.447-1-1v-4c0-0.553,0.448-1,1-1s1,0.447,1,1v4C43,50.553,42.552,51,42,51z"/>
				</g>
			</g>
			<g>
				<g>
					<g>
						<path fill="#F0F0F0" d="M49,47h-3c-0.552,0-1-0.447-1-1v-6c0-0.553,0.448-1,1-1h3c2.206,0,4,1.794,4,4S51.206,47,49,47z
							 M47,45h2c1.103,0,2-0.897,2-2s-0.897-2-2-2h-2V45z"/>
					</g>
					<g>
						<path fill="#F0F0F0" d="M46,51c-0.552,0-1-0.447-1-1v-4c0-0.553,0.448-1,1-1s1,0.447,1,1v4C47,50.553,46.552,51,46,51z"/>
					</g>
				</g>
				<g>
					<path fill="#F0F0F0" d="M52.001,51c-0.367,0-0.72-0.202-0.896-0.553l-2-4c-0.247-0.494-0.047-1.095,0.447-1.342
						c0.495-0.246,1.095-0.047,1.342,0.447l2,4c0.247,0.494,0.047,1.095-0.447,1.342C52.304,50.966,52.151,51,52.001,51z"/>
				</g>
			</g>
		</g>
		<g>
			<path fill="#D2D2D2" d="M48,16H37c-0.552,0-1-0.448-1-1V4L48,16z"/>
		</g>
		<g>
			<path fill="#0A5078" d="M20,27h-4c-2.206,0-4-1.794-4-4s1.794-4,4-4h4V27z M16,21c-1.103,0-2,0.897-2,2s0.897,2,2,2h2v-4H16z"/>
		</g>
		<g>
			<path fill="#00A0C8" d="M23,30L23,30c-3.314,0-6-2.686-6-6v-6c0-0.552,0.448-1,1-1h10c0.552,0,1,0.448,1,1v6
				C29,27.314,26.314,30,23,30z"/>
		</g>
		<g>
			<path fill="#0A5078" d="M30,31H16c-0.552,0-1-0.448-1-1v0c0-0.552,0.448-1,1-1h14c0.552,0,1,0.448,1,1v0
				C31,30.552,30.552,31,30,31z"/>
		</g>
		<g>
			<g>
				<g>
					<path fill="#C80A50" d="M20.292,15.5c-0.075,0-0.151-0.017-0.223-0.053c-0.247-0.123-0.348-0.424-0.224-0.671
						c0.243-0.486,0.243-1.066,0-1.553c-0.383-0.767-0.383-1.681,0-2.447c0.125-0.246,0.424-0.348,0.671-0.224
						c0.247,0.124,0.347,0.424,0.224,0.671c-0.243,0.486-0.243,1.066,0,1.553c0.382,0.767,0.382,1.681,0,2.447
						C20.652,15.398,20.475,15.5,20.292,15.5z"/>
				</g>
			</g>
			<g>
				<g>
					<path fill="#C80A50" d="M23.027,15.5c-0.075,0-0.151-0.017-0.223-0.053c-0.247-0.124-0.347-0.424-0.224-0.671
						c0.243-0.486,0.243-1.066,0-1.553c-0.383-0.767-0.383-1.681,0-2.447c0.124-0.246,0.424-0.348,0.671-0.224
						s0.347,0.424,0.224,0.671c-0.243,0.486-0.243,1.066,0,1.553c0.383,0.767,0.383,1.681,0,2.447
						C23.387,15.398,23.211,15.5,23.027,15.5z"/>
				</g>
			</g>
			<g>
				<g>
					<path fill="#C80A50" d="M25.764,15.5c-0.075,0-0.151-0.017-0.223-0.053c-0.247-0.123-0.348-0.424-0.224-0.671
						c0.243-0.486,0.243-1.066,0-1.553c-0.383-0.767-0.383-1.681,0-2.447c0.124-0.246,0.423-0.348,0.671-0.224
						c0.247,0.124,0.347,0.424,0.224,0.671c-0.243,0.486-0.243,1.066,0,1.553c0.382,0.767,0.382,1.681,0,2.447
						C26.124,15.398,25.947,15.5,25.764,15.5z"/>
				</g>
			</g>
		</g>
	</g>
</g>
</svg>
