<?xml version="1.0" encoding="utf-8"?>
<!-- Generator: Adobe Illustrator 24.0.0, SVG Export Plug-In . SVG Version: 6.00 Build 0)  -->
<svg version="1.1" xmlns="http://www.w3.org/2000/svg" xmlns:xlink="http://www.w3.org/1999/xlink" x="0px" y="0px"
	 viewBox="0 0 64 64" enable-background="new 0 0 64 64" xml:space="preserve">
<g id="Captions">
</g>
<g id="Icons">
	<g>
		<g>
			<path fill="#F0F0F0" d="M48,16v43c0,0.55-0.45,1-1,1H9c-0.55,0-1-0.45-1-1V5c0-0.55,0.45-1,1-1h27L48,16z"/>
		</g>
		<g>
			<path fill="#D2D2D2" d="M48,37v18H24c-1.1,0-2-0.9-2-2V39c0-1.1,0.9-2,2-2H48z"/>
		</g>
		<g>
			<path fill="#C80A50" d="M54,54H24c-1.105,0-2-0.895-2-2V38c0-1.105,0.895-2,2-2h30c1.105,0,2,0.895,2,2v14
				C56,53.105,55.105,54,54,54z"/>
		</g>
		<g>
			<path fill="#D2D2D2" d="M48,16H37c-0.552,0-1-0.448-1-1V4L48,16z"/>
		</g>
		<g>
			<g>
				<path fill="#F0F0F0" d="M42,51h-6c-0.553,0-1-0.447-1-1V40c0-0.553,0.447-1,1-1h6c0.553,0,1,0.447,1,1s-0.447,1-1,1h-5v8h5
					c0.553,0,1,0.447,1,1S42.553,51,42,51z"/>
			</g>
			<g>
				<path fill="#F0F0F0" d="M42,46h-6c-0.553,0-1-0.447-1-1s0.447-1,1-1h6c0.553,0,1,0.447,1,1S42.553,46,42,46z"/>
			</g>
		</g>
		<g>
			<g>
				<path fill="#F0F0F0" d="M49,46c-0.352,0-0.677-0.185-0.857-0.485l-3-5c-0.284-0.474-0.131-1.088,0.343-1.372
					c0.475-0.284,1.089-0.13,1.372,0.343L49,43.057l2.143-3.571c0.283-0.473,0.898-0.627,1.372-0.343s0.627,0.898,0.343,1.372l-3,5
					C49.677,45.815,49.352,46,49,46z"/>
			</g>
			<g>
				<path fill="#F0F0F0" d="M49,51c-0.553,0-1-0.447-1-1v-5c0-0.553,0.447-1,1-1s1,0.447,1,1v5C50,50.553,49.553,51,49,51z"/>
			</g>
		</g>
		<g>
			<g>
				<path fill="#F0F0F0" d="M26,51c-0.552,0-1-0.447-1-1V40c0-0.553,0.448-1,1-1s1,0.447,1,1v10C27,50.553,26.552,51,26,51z"/>
			</g>
			<g>
				<path fill="#F0F0F0" d="M26,47c-0.256,0-0.512-0.098-0.707-0.293c-0.391-0.391-0.391-1.023,0-1.414l6-6
					c0.391-0.391,1.023-0.391,1.414,0s0.391,1.023,0,1.414l-6,6C26.512,46.902,26.256,47,26,47z"/>
			</g>
			<g>
				<path fill="#F0F0F0" d="M32.001,51c-0.367,0-0.721-0.202-0.896-0.554l-3.33-6.67c-0.247-0.494-0.046-1.095,0.448-1.341
					c0.495-0.245,1.095-0.047,1.341,0.448l3.33,6.67c0.247,0.494,0.046,1.095-0.448,1.341C32.303,50.966,32.151,51,32.001,51z"/>
			</g>
		</g>
		<g>
			<g>
				<path fill="#00A0C8" d="M30.802,22H14.198c-0.624,0-1.095-0.565-0.984-1.179l1.636-9C14.937,11.346,15.351,11,15.835,11h13.331
					c0.483,0,0.897,0.346,0.984,0.821l1.636,9C31.897,21.435,31.426,22,30.802,22z"/>
			</g>
			<g>
				<path fill="#0A5078" d="M31,24H14c-0.552,0-1-0.448-1-1v0c0-0.552,0.448-1,1-1h17c0.552,0,1,0.448,1,1v0
					C32,23.552,31.552,24,31,24z"/>
			</g>
			<g>
				<rect x="21.5" y="22" fill="#0A5078" width="2" height="10"/>
			</g>
			<g>
				<path fill="#0A5078" d="M27,32h-9c-0.552,0-1-0.448-1-1v0c0-0.552,0.448-1,1-1h9c0.552,0,1,0.448,1,1v0
					C28,31.552,27.552,32,27,32z"/>
			</g>
			<g>
				<path fill="#F0F0F0" d="M22,21c-2.21,0-4-1.79-4-4c0-2.622,2.485-4.521,4.97-3.88L22,17l3.75-1.36
					C26.721,18.038,24.897,21,22,21z"/>
			</g>
			<g>
				<path fill="#C80A50" d="M26.935,14.455l-3.75,1.36l0.97-3.88C25.455,12.255,26.495,13.215,26.935,14.455z"/>
			</g>
		</g>
	</g>
</g>
</svg>
