<?xml version="1.0" encoding="utf-8"?>
<!-- Generator: Adobe Illustrator 24.0.0, SVG Export Plug-In . SVG Version: 6.00 Build 0)  -->
<svg version="1.1" xmlns="http://www.w3.org/2000/svg" xmlns:xlink="http://www.w3.org/1999/xlink" x="0px" y="0px"
	 viewBox="0 0 64 64" enable-background="new 0 0 64 64" xml:space="preserve">
<g id="Captions">
</g>
<g id="Icons">
	<g>
		<g>
			<path fill="#F0F0F0" d="M48,16v43c0,0.55-0.45,1-1,1H9c-0.55,0-1-0.45-1-1V5c0-0.55,0.45-1,1-1h27L48,16z"/>
		</g>
		<g>
			<path fill="#D2D2D2" d="M48,37v18H24c-1.1,0-2-0.9-2-2V39c0-1.1,0.9-2,2-2H48z"/>
		</g>
		<g>
			<g>
				<path fill="#0A5078" d="M54,54H24c-1.105,0-2-0.895-2-2V38c0-1.105,0.895-2,2-2h30c1.105,0,2,0.895,2,2v14
					C56,53.105,55.105,54,54,54z"/>
			</g>
		</g>
		<g>
			<path fill="#D2D2D2" d="M48,16H37c-0.552,0-1-0.448-1-1V4L48,16z"/>
		</g>
		<g>
			<g>
				<g>
					<path fill="#F0F0F0" d="M32,51c-0.345,0-0.674-0.179-0.857-0.485L27,43.61V50c0,0.553-0.447,1-1,1s-1-0.447-1-1V40
						c0-0.449,0.3-0.844,0.733-0.964c0.431-0.117,0.894,0.063,1.124,0.449L31,46.39V40c0-0.553,0.447-1,1-1s1,0.447,1,1v10
						c0,0.449-0.3,0.844-0.733,0.964C32.179,50.988,32.089,51,32,51z"/>
				</g>
			</g>
			<g>
				<g>
					<path fill="#F0F0F0" d="M42,46h-6c-0.553,0-1-0.447-1-1v-5c0-0.553,0.447-1,1-1h6c0.553,0,1,0.447,1,1s-0.447,1-1,1h-5v3h5
						c0.553,0,1,0.447,1,1S42.553,46,42,46z"/>
				</g>
				<g>
					<path fill="#F0F0F0" d="M36,51c-0.553,0-1-0.447-1-1v-5c0-0.553,0.447-1,1-1s1,0.447,1,1v5C37,50.553,36.553,51,36,51z"/>
				</g>
			</g>
		</g>
		<g>
			<path fill="#F0F0F0" d="M49,51c-2.206,0-4-1.794-4-4v-4c0-2.206,1.794-4,4-4s4,1.794,4,4v4C53,49.206,51.206,51,49,51z M49,41
				c-1.103,0-2,0.897-2,2v4c0,1.103,0.897,2,2,2s2-0.897,2-2v-4C51,41.897,50.103,41,49,41z"/>
		</g>
		<g>
			<path fill="#FAB400" d="M30,16.5c0-4.86-4.079-8.767-9-8.486c0,0,0,0,0,0c-4.131,0.236-7.38,3.435-7.914,7.262
				c-0.475,3.398,1.064,6.471,3.592,8.216C17.477,24.043,18,24.909,18,25.88V27h7v-1.067c0-0.935,0.427-1.844,1.205-2.362
				C28.491,22.049,30,19.453,30,16.5z"/>
		</g>
		<g>
			<g>
				<g>
					<path fill="#F0F0F0" d="M21.5,28c-0.553,0-1-0.447-1-1V14c0-0.553,0.447-1,1-1s1,0.447,1,1v13C22.5,27.553,22.053,28,21.5,28z"
						/>
				</g>
			</g>
			<g>
				<g>
					<path fill="#F0F0F0" d="M18.903,19.5c-0.346,0-0.682-0.179-0.867-0.5c-0.276-0.479-0.112-1.09,0.366-1.366l5.195-3
						c0.476-0.277,1.089-0.113,1.366,0.366c0.276,0.479,0.112,1.09-0.366,1.366l-5.195,3C19.245,19.457,19.073,19.5,18.903,19.5z"/>
				</g>
			</g>
			<g>
				<g>
					<path fill="#F0F0F0" d="M24.097,19.5c-0.17,0-0.342-0.043-0.499-0.134l-5.195-3C17.924,16.09,17.76,15.479,18.036,15
						c0.276-0.479,0.889-0.644,1.366-0.366l5.195,3c0.479,0.276,0.643,0.888,0.366,1.366C24.778,19.321,24.442,19.5,24.097,19.5z"/>
				</g>
			</g>
		</g>
		<g>
			<path fill="#00A0C8" d="M25,27h-7v4c0,0.552,0.448,1,1,1h5c0.552,0,1-0.448,1-1V27z"/>
		</g>
	</g>
</g>
</svg>
