<?xml version="1.0" encoding="utf-8"?>
<!-- Generator: Adobe Illustrator 24.0.0, SVG Export Plug-In . SVG Version: 6.00 Build 0)  -->
<svg version="1.1" xmlns="http://www.w3.org/2000/svg" xmlns:xlink="http://www.w3.org/1999/xlink" x="0px" y="0px"
	 viewBox="0 0 64 64" enable-background="new 0 0 64 64" xml:space="preserve">
<g id="Captions">
</g>
<g id="Icons">
	<g>
		<g>
			<circle fill="#C80A50" cx="26" cy="26" r="18"/>
		</g>
		<g>
			<path fill="#A00028" d="M40.24,37c-3.29,4.26-8.44,7-14.24,7c-1.37,0-2.71-0.15-4-0.46V39c0-1.1,0.9-2,2-2H40.24z"/>
		</g>
		<g>
			<g>
				<path fill="#FAB400" d="M54,56H24c-1.105,0-2-0.895-2-2V40c0-1.105,0.895-2,2-2h30c1.105,0,2,0.895,2,2v14
					C56,55.105,55.105,56,54,56z"/>
			</g>
		</g>
		<g>
			<g>
				<g>
					<path fill="#F0F0F0" d="M19,35c-2.206,0-4-1.794-4-4s1.794-4,4-4s4,1.794,4,4S21.206,35,19,35z M19,29c-1.103,0-2,0.897-2,2
						s0.897,2,2,2s2-0.897,2-2S20.103,29,19,29z"/>
				</g>
				<g>
					<path fill="#F0F0F0" d="M30,35c-2.757,0-5-2.243-5-5s2.243-5,5-5s5,2.243,5,5S32.757,35,30,35z M30,27c-1.654,0-3,1.346-3,3
						s1.346,3,3,3s3-1.346,3-3S31.654,27,30,27z"/>
				</g>
				<g>
					<path fill="#F0F0F0" d="M34,31c-0.553,0-1-0.448-1-1V17H23v13c0,0.552-0.447,1-1,1s-1-0.448-1-1V16c0-0.552,0.447-1,1-1h12
						c0.553,0,1,0.448,1,1v14C35,30.552,34.553,31,34,31z"/>
				</g>
			</g>
			<g>
				<path fill="#F0F0F0" d="M30,21h-8c-0.553,0-1-0.448-1-1s0.447-1,1-1h8c0.553,0,1,0.448,1,1S30.553,21,30,21z"/>
			</g>
		</g>
		<g>
			<g>
				<g>
					<path fill="#0A5078" d="M50,53h-2c-1.654,0-3-1.346-3-3v-6c0-1.654,1.346-3,3-3h2c1.654,0,3,1.346,3,3c0,0.552-0.447,1-1,1
						s-1-0.448-1-1c0-0.551-0.448-1-1-1h-2c-0.552,0-1,0.449-1,1v6c0,0.551,0.448,1,1,1h2c0.552,0,1-0.449,1-1v-2h-1.5
						c-0.553,0-1-0.448-1-1s0.447-1,1-1H52c0.553,0,1,0.448,1,1v3C53,51.654,51.654,53,50,53z"/>
				</g>
			</g>
			<g>
				<g>
					<path fill="#0A5078" d="M40,53h-2c-1.654,0-3-1.346-3-3v-6c0-1.654,1.346-3,3-3h2c1.654,0,3,1.346,3,3c0,0.552-0.447,1-1,1
						s-1-0.448-1-1c0-0.551-0.448-1-1-1h-2c-0.552,0-1,0.449-1,1v6c0,0.551,0.448,1,1,1h2c0.552,0,1-0.449,1-1v-2h-1.5
						c-0.553,0-1-0.448-1-1s0.447-1,1-1H42c0.553,0,1,0.448,1,1v3C43,51.654,41.654,53,40,53z"/>
				</g>
			</g>
			<g>
				<path fill="#0A5078" d="M29,53c-2.206,0-4-1.794-4-4v-4c0-2.206,1.794-4,4-4s4,1.794,4,4v4C33,51.206,31.206,53,29,53z M29,43
					c-1.103,0-2,0.897-2,2v4c0,1.103,0.897,2,2,2s2-0.897,2-2v-4C31,43.897,30.103,43,29,43z"/>
			</g>
		</g>
	</g>
</g>
</svg>
