<?xml version="1.0" encoding="utf-8"?>
<!-- Generator: Adobe Illustrator 24.0.0, SVG Export Plug-In . SVG Version: 6.00 Build 0)  -->
<svg version="1.1" xmlns="http://www.w3.org/2000/svg" xmlns:xlink="http://www.w3.org/1999/xlink" x="0px" y="0px"
	 viewBox="0 0 64 64" enable-background="new 0 0 64 64" xml:space="preserve">
<g id="Captions">
</g>
<g id="Icons">
	<g>
		<g>
			<path fill="#00A0C8" d="M36,9v38c0,0.55-0.45,1-1,1H9c-0.55,0-1-0.45-1-1V9c0-0.55,0.45-1,1-1h26C35.55,8,36,8.45,36,9z"/>
		</g>
		<g>
			<path fill="#0082AA" d="M36,11v36c0,0.55-0.45,1-1,1H11V12c0-0.55,0.45-1,1-1H36z"/>
		</g>
		<g>
			<path fill="#C80A50" d="M40,13v38c0,0.55-0.45,1-1,1H13c-0.55,0-1-0.45-1-1V13c0-0.55,0.45-1,1-1h26C39.55,12,40,12.45,40,13z"/>
		</g>
		<g>
			<path fill="#A00028" d="M40,15v36c0,0.55-0.45,1-1,1H15V16c0-0.55,0.45-1,1-1H40z"/>
		</g>
		<g>
			<path fill="#FAB400" d="M44,21v34c0,0.55-0.45,1-1,1H17c-0.55,0-1-0.45-1-1V17c0-0.55,0.45-1,1-1h22L44,21z"/>
		</g>
		<g>
			<path fill="#DC9600" d="M44,39v13H23c-0.55,0-1-0.45-1-1V40c0-0.55,0.45-1,1-1H44z"/>
		</g>
		<g>
			<g>
				<path fill="#0A5078" d="M37,30H23c-0.552,0-1-0.448-1-1v0c0-0.552,0.448-1,1-1h14c0.552,0,1,0.448,1,1v0
					C38,29.552,37.552,30,37,30z"/>
			</g>
			<g>
				<path fill="#0A5078" d="M37,34H23c-0.552,0-1-0.448-1-1l0,0c0-0.552,0.448-1,1-1h14c0.552,0,1,0.448,1,1l0,0
					C38,33.552,37.552,34,37,34z"/>
			</g>
			<g>
				<path fill="#0A5078" d="M37,26H23c-0.552,0-1-0.448-1-1v0c0-0.552,0.448-1,1-1h14c0.552,0,1,0.448,1,1v0
					C38,25.552,37.552,26,37,26z"/>
			</g>
		</g>
		<g>
			<path fill="#0A5078" d="M55,51H23c-0.552,0-1-0.448-1-1V39c0-0.552,0.448-1,1-1h32c0.552,0,1,0.448,1,1v11
				C56,50.552,55.552,51,55,51z"/>
		</g>
		<g>
			<g>
				<path fill="#F0F0F0" d="M27,45.5h-2c-0.276,0-0.5-0.224-0.5-0.5v-4c0-0.276,0.224-0.5,0.5-0.5h2c1.378,0,2.5,1.121,2.5,2.5
					S28.378,45.5,27,45.5z M25.5,44.5H27c0.827,0,1.5-0.673,1.5-1.5s-0.673-1.5-1.5-1.5h-1.5V44.5z"/>
			</g>
			<g>
				<path fill="#F0F0F0" d="M35,48.5c-0.276,0-0.5-0.224-0.5-0.5v-5c0-0.827-0.673-1.5-1.5-1.5s-1.5,0.673-1.5,1.5v5
					c0,0.276-0.224,0.5-0.5,0.5s-0.5-0.224-0.5-0.5v-5c0-1.379,1.122-2.5,2.5-2.5s2.5,1.121,2.5,2.5v5
					C35.5,48.276,35.276,48.5,35,48.5z"/>
			</g>
			<g>
				<path fill="#F0F0F0" d="M39,48.5c-1.378,0-2.5-1.121-2.5-2.5v-3c0-1.379,1.122-2.5,2.5-2.5s2.5,1.121,2.5,2.5
					c0,0.276-0.224,0.5-0.5,0.5s-0.5-0.224-0.5-0.5c0-0.827-0.673-1.5-1.5-1.5s-1.5,0.673-1.5,1.5v3c0,0.827,0.673,1.5,1.5,1.5
					s1.5-0.673,1.5-1.5v-0.5H39c-0.276,0-0.5-0.224-0.5-0.5s0.224-0.5,0.5-0.5h2c0.276,0,0.5,0.224,0.5,0.5v1
					C41.5,47.379,40.378,48.5,39,48.5z"/>
			</g>
			<g>
				<path fill="#F0F0F0" d="M47,48.5h-4c-0.276,0-0.5-0.224-0.5-0.5v-7c0-0.276,0.224-0.5,0.5-0.5h4c0.276,0,0.5,0.224,0.5,0.5
					s-0.224,0.5-0.5,0.5h-3.5v6H47c0.276,0,0.5,0.224,0.5,0.5S47.276,48.5,47,48.5z"/>
			</g>
			<g>
				<g>
					<path fill="#F0F0F0" d="M51.315,48.5h-0.631c-1.205,0-2.185-0.98-2.185-2.185V46c0-0.276,0.224-0.5,0.5-0.5s0.5,0.224,0.5,0.5
						v0.315c0,0.653,0.531,1.185,1.185,1.185h0.631c0.653,0,1.185-0.531,1.185-1.185c0-0.545-0.369-1.018-0.897-1.149l-1.448-0.361
						c-0.975-0.244-1.655-1.115-1.655-2.12c0-1.204,0.98-2.185,2.185-2.185h0.631c1.205,0,2.185,0.98,2.185,2.185V43
						c0,0.276-0.224,0.5-0.5,0.5s-0.5-0.224-0.5-0.5v-0.315c0-0.653-0.531-1.185-1.185-1.185h-0.631
						c-0.653,0-1.185,0.531-1.185,1.185c0,0.545,0.369,1.018,0.897,1.149l1.448,0.361c0.975,0.244,1.655,1.115,1.655,2.12
						C53.5,47.52,52.52,48.5,51.315,48.5z"/>
				</g>
			</g>
			<g>
				<path fill="#F0F0F0" d="M47,45h-4c-0.276,0-0.5-0.224-0.5-0.5S42.724,44,43,44h4c0.276,0,0.5,0.224,0.5,0.5S47.276,45,47,45z"/>
			</g>
			<g>
				<path fill="#F0F0F0" d="M35,45.5h-4c-0.276,0-0.5-0.224-0.5-0.5s0.224-0.5,0.5-0.5h4c0.276,0,0.5,0.224,0.5,0.5
					S35.276,45.5,35,45.5z"/>
			</g>
			<g>
				<path fill="#F0F0F0" d="M25,48.5c-0.276,0-0.5-0.224-0.5-0.5v-7c0-0.276,0.224-0.5,0.5-0.5s0.5,0.224,0.5,0.5v7
					C25.5,48.276,25.276,48.5,25,48.5z"/>
			</g>
		</g>
		<g>
			<path fill="#DC9600" d="M44,21h-4c-0.552,0-1-0.448-1-1v-4L44,21z"/>
		</g>
	</g>
</g>
</svg>
