<?xml version="1.0" encoding="utf-8"?>
<!-- Generator: Adobe Illustrator 24.0.0, SVG Export Plug-In . SVG Version: 6.00 Build 0)  -->
<svg version="1.1" xmlns="http://www.w3.org/2000/svg" xmlns:xlink="http://www.w3.org/1999/xlink" x="0px" y="0px"
	 viewBox="0 0 64 64" enable-background="new 0 0 64 64" xml:space="preserve">
<g id="Captions">
</g>
<g id="Icons">
	<g>
		<g>
			<path fill="#F0F0F0" d="M48,16v43c0,0.55-0.45,1-1,1H9c-0.55,0-1-0.45-1-1V5c0-0.55,0.45-1,1-1h27L48,16z"/>
		</g>
		<g>
			<path fill="#D2D2D2" d="M48,37v18H24c-1.1,0-2-0.9-2-2V39c0-1.1,0.9-2,2-2H48z"/>
		</g>
		<g>
			<path fill="#C80A50" d="M54,54H24c-1.105,0-2-0.895-2-2V38c0-1.105,0.895-2,2-2h30c1.105,0,2,0.895,2,2v14
				C56,53.105,55.105,54,54,54z"/>
		</g>
		<g>
			<g>
				<path fill="#F0F0F0" d="M29,47h-3c-0.553,0-1-0.448-1-1v-6c0-0.552,0.447-1,1-1h3c2.206,0,4,1.794,4,4S31.206,47,29,47z M27,45
					h2c1.103,0,2-0.897,2-2s-0.897-2-2-2h-2V45z"/>
			</g>
			<g>
				<path fill="#F0F0F0" d="M26,51c-0.553,0-1-0.448-1-1v-4c0-0.552,0.447-1,1-1s1,0.448,1,1v4C27,50.552,26.553,51,26,51z"/>
			</g>
		</g>
		<g>
			<g>
				<path fill="#F0F0F0" d="M49,47h-3c-0.553,0-1-0.448-1-1v-6c0-0.552,0.447-1,1-1h3c2.206,0,4,1.794,4,4S51.206,47,49,47z M47,45
					h2c1.103,0,2-0.897,2-2s-0.897-2-2-2h-2V45z"/>
			</g>
			<g>
				<path fill="#F0F0F0" d="M46,51c-0.553,0-1-0.448-1-1v-4c0-0.552,0.447-1,1-1s1,0.448,1,1v4C47,50.552,46.553,51,46,51z"/>
			</g>
		</g>
		<g>
			<path fill="#D2D2D2" d="M48,16H37c-0.552,0-1-0.448-1-1V4L48,16z"/>
		</g>
		<g>
			<path fill="#0A5078" d="M17.001,29c-0.287,0-0.571-0.123-0.77-0.36l-5-6c-0.309-0.371-0.309-0.91,0-1.28l5-6
				c0.354-0.424,0.982-0.481,1.409-0.128c0.424,0.354,0.481,0.984,0.128,1.408L13.302,22l4.467,5.36
				c0.354,0.424,0.296,1.055-0.128,1.408C17.453,28.924,17.227,29,17.001,29z"/>
		</g>
		<g>
			<path fill="#0A5078" d="M28.999,29c-0.226,0-0.452-0.076-0.64-0.232c-0.424-0.354-0.481-0.984-0.128-1.408L32.698,22l-4.467-5.36
				c-0.354-0.424-0.296-1.055,0.128-1.408c0.426-0.354,1.056-0.296,1.409,0.128l5,6c0.309,0.371,0.309,0.91,0,1.28l-5,6
				C29.57,28.877,29.286,29,28.999,29z"/>
		</g>
		<g>
			<path fill="#0A5078" d="M22.001,29c-0.055,0-0.109-0.004-0.165-0.014c-0.545-0.091-0.913-0.606-0.822-1.151l2-12
				c0.091-0.544,0.605-0.911,1.15-0.822c0.545,0.091,0.913,0.606,0.822,1.151l-2,12C22.905,28.653,22.481,29,22.001,29z"/>
		</g>
		<g>
			<g>
				<path fill="#F0F0F0" d="M36,51c-0.553,0-1-0.448-1-1V40c0-0.552,0.447-1,1-1s1,0.448,1,1v10C37,50.552,36.553,51,36,51z"/>
			</g>
			<g>
				<path fill="#F0F0F0" d="M42,51c-0.553,0-1-0.448-1-1V40c0-0.552,0.447-1,1-1s1,0.448,1,1v10C43,50.552,42.553,51,42,51z"/>
			</g>
			<g>
				<g>
					<path fill="#F0F0F0" d="M42,46h-6c-0.553,0-1-0.448-1-1s0.447-1,1-1h6c0.553,0,1,0.448,1,1S42.553,46,42,46z"/>
				</g>
			</g>
		</g>
	</g>
</g>
</svg>
