<?xml version="1.0" encoding="utf-8"?>
<!-- Generator: Adobe Illustrator 24.0.0, SVG Export Plug-In . SVG Version: 6.00 Build 0)  -->
<svg version="1.1" xmlns="http://www.w3.org/2000/svg" xmlns:xlink="http://www.w3.org/1999/xlink" x="0px" y="0px"
	 viewBox="0 0 64 64" enable-background="new 0 0 64 64" xml:space="preserve">
<g id="Captions">
</g>
<g id="Icons">
	<g>
		<g>
			<g>
				<path fill="#00A0C8" d="M56,35v8c0,1.66-1.34,3-3,3H11c-1.66,0-3-1.34-3-3v-8c0-1.66,1.34-3,3-3h42C54.66,32,56,33.34,56,35z"/>
			</g>
			<g>
				<path fill="#0082AA" d="M44,29v5c0,1.66-1.34,3-3,3H23c-1.66,0-3-1.34-3-3v-5h4v4h16v-4H44z"/>
			</g>
			<g>
				<path fill="#C80A50" d="M53,32H11c-1.657,0-3-1.343-3-3v-8c0-1.657,1.343-3,3-3h42c1.657,0,3,1.343,3,3v8
					C56,30.657,54.657,32,53,32z"/>
			</g>
			<g>
				<path fill="#00A0C8" d="M53,18H11c-1.657,0-3-1.343-3-3V7c0-1.657,1.343-3,3-3h42c1.657,0,3,1.343,3,3v8
					C56,16.657,54.657,18,53,18z"/>
			</g>
			<g>
				<rect x="24" y="4" fill="#FAB400" width="16" height="42"/>
			</g>
			<g>
				<path fill="#DC9600" d="M32,46L32,46c-4.418,0-8-3.582-8-8v-4h16v4C40,42.418,36.418,46,32,46z"/>
			</g>
			<g>
				<path fill="#FAB400" d="M32,44L32,44c-4.418,0-8-3.582-8-8v-4h16v4C40,40.418,36.418,44,32,44z"/>
			</g>
			<g>
				<rect x="24" y="33" fill="#DC9600" width="16" height="4"/>
			</g>
			<g>
				<path fill="#F0F0F0" d="M44,17v16c0,1.66-1.34,3-3,3H23c-1.66,0-3-1.34-3-3V17c0-1.66,1.34-3,3-3h1v18h16V14h1
					C42.66,14,44,15.34,44,17z"/>
			</g>
			<g>
				<path fill="#D2D2D2" d="M34,31v2c0,1.1-0.9,2-2,2s-2-0.9-2-2v-2H34z"/>
			</g>
			<g>
				<path fill="#F0F0F0" d="M32,34L32,34c-1.105,0-2-0.895-2-2v-8c0-1.105,0.895-2,2-2h0c1.105,0,2,0.895,2,2v8
					C34,33.105,33.105,34,32,34z"/>
			</g>
			<g>
				<circle fill="#C80A50" cx="32" cy="18" r="2"/>
			</g>
			<g>
				<circle fill="#00A0C8" cx="32" cy="10" r="2"/>
			</g>
			<g>
				<path fill="#F0F0F0" d="M34,18h-4c0-1.1,0.9-2,2-2S34,16.9,34,18z"/>
			</g>
		</g>
		<g>
			<g>
				<path fill="#0A5078" d="M47,60H17c-1.105,0-2-0.895-2-2V44c0-1.105,0.895-2,2-2h30c1.105,0,2,0.895,2,2v14
					C49,59.105,48.105,60,47,60z"/>
			</g>
			<g>
				<g>
					<g>
						<path fill="#F0F0F0" d="M35,53h-6c-0.552,0-1-0.448-1-1v-3c0-2.206,1.794-4,4-4s4,1.794,4,4v3C36,52.552,35.552,53,35,53z
							 M30,51h4v-2c0-1.103-0.897-2-2-2s-2,0.897-2,2V51z"/>
					</g>
					<g>
						<path fill="#F0F0F0" d="M29,57c-0.552,0-1-0.448-1-1v-4c0-0.552,0.448-1,1-1s1,0.448,1,1v4C30,56.552,29.552,57,29,57z"/>
					</g>
				</g>
				<g>
					<path fill="#F0F0F0" d="M35,57c-0.552,0-1-0.448-1-1v-4c0-0.552,0.448-1,1-1s1,0.448,1,1v4C36,56.552,35.552,57,35,57z"/>
				</g>
			</g>
			<g>
				<g>
					<g>
						<path fill="#F0F0F0" d="M42,53h-3c-0.552,0-1-0.448-1-1v-6c0-0.552,0.448-1,1-1h3c2.206,0,4,1.794,4,4S44.206,53,42,53z
							 M40,51h2c1.103,0,2-0.897,2-2s-0.897-2-2-2h-2V51z"/>
					</g>
					<g>
						<path fill="#F0F0F0" d="M39,57c-0.552,0-1-0.448-1-1v-4c0-0.552,0.448-1,1-1s1,0.448,1,1v4C40,56.552,39.552,57,39,57z"/>
					</g>
				</g>
				<g>
					<path fill="#F0F0F0" d="M45.001,57c-0.367,0-0.72-0.202-0.896-0.553l-2-4c-0.247-0.494-0.047-1.095,0.447-1.342
						c0.495-0.248,1.095-0.047,1.342,0.447l2,4c0.247,0.494,0.047,1.095-0.447,1.342C45.304,56.966,45.151,57,45.001,57z"/>
				</g>
			</g>
			<g>
				<g>
					<g>
						<path fill="#F0F0F0" d="M22,53h-3c-0.552,0-1-0.448-1-1v-6c0-0.552,0.448-1,1-1h3c2.206,0,4,1.794,4,4S24.206,53,22,53z
							 M20,51h2c1.103,0,2-0.897,2-2s-0.897-2-2-2h-2V51z"/>
					</g>
					<g>
						<path fill="#F0F0F0" d="M19,57c-0.552,0-1-0.448-1-1v-4c0-0.552,0.448-1,1-1s1,0.448,1,1v4C20,56.552,19.552,57,19,57z"/>
					</g>
				</g>
				<g>
					<path fill="#F0F0F0" d="M25.001,57c-0.367,0-0.72-0.202-0.896-0.553l-2-4c-0.247-0.494-0.047-1.095,0.447-1.342
						c0.495-0.248,1.095-0.047,1.342,0.447l2,4c0.247,0.494,0.047,1.095-0.447,1.342C25.304,56.966,25.151,57,25.001,57z"/>
				</g>
			</g>
		</g>
	</g>
</g>
</svg>
