<?xml version="1.0" encoding="utf-8"?>
<!-- Generator: Adobe Illustrator 24.0.0, SVG Export Plug-In . SVG Version: 6.00 Build 0)  -->
<svg version="1.1" xmlns="http://www.w3.org/2000/svg" xmlns:xlink="http://www.w3.org/1999/xlink" x="0px" y="0px"
	 viewBox="0 0 64 64" enable-background="new 0 0 64 64" xml:space="preserve">
<g id="Captions">
</g>
<g id="Icons">
	<g>
		<g>
			<path fill="#F0F0F0" d="M48,16v43c0,0.55-0.45,1-1,1H9c-0.55,0-1-0.45-1-1V5c0-0.55,0.45-1,1-1h27L48,16z"/>
		</g>
		<g>
			<g>
				<path fill="#0A5078" d="M29,23H14c-0.552,0-1-0.448-1-1v0c0-0.552,0.448-1,1-1h15c0.552,0,1,0.448,1,1v0
					C30,22.552,29.552,23,29,23z"/>
			</g>
			<g>
				<path fill="#0A5078" d="M29,27H14c-0.552,0-1-0.448-1-1v0c0-0.552,0.448-1,1-1h15c0.552,0,1,0.448,1,1v0
					C30,26.552,29.552,27,29,27z"/>
			</g>
			<g>
				<path fill="#0A5078" d="M29,19H14c-0.552,0-1-0.448-1-1v0c0-0.552,0.448-1,1-1h15c0.552,0,1,0.448,1,1v0
					C30,18.552,29.552,19,29,19z"/>
			</g>
		</g>
		<g>
			<path fill="#D2D2D2" d="M48,37v18H24c-1.1,0-2-0.9-2-2V39c0-1.1,0.9-2,2-2H48z"/>
		</g>
		<g>
			<path fill="#C80A50" d="M54,54H24c-1.105,0-2-0.895-2-2V38c0-1.105,0.895-2,2-2h30c1.105,0,2,0.895,2,2v14
				C56,53.105,55.105,54,54,54z"/>
		</g>
		<g>
			<path fill="#D2D2D2" d="M48,16H37c-0.552,0-1-0.448-1-1V4L48,16z"/>
		</g>
		<g>
			<g>
				<path fill="#F0F0F0" d="M52,46h-6c-0.552,0-1-0.448-1-1v-5c0-0.552,0.448-1,1-1h6c0.552,0,1,0.448,1,1s-0.448,1-1,1h-5v3h5
					c0.552,0,1,0.448,1,1S52.552,46,52,46z"/>
			</g>
			<g>
				<path fill="#F0F0F0" d="M46,51c-0.552,0-1-0.448-1-1v-5c0-0.552,0.448-1,1-1s1,0.448,1,1v5C47,50.552,46.552,51,46,51z"/>
			</g>
		</g>
		<g>
			<g>
				<path fill="#F0F0F0" d="M42,41h-6c-0.552,0-1-0.448-1-1s0.448-1,1-1h6c0.552,0,1,0.448,1,1S42.552,41,42,41z"/>
			</g>
		</g>
		<g>
			<g>
				<path fill="#F0F0F0" d="M39,51c-0.552,0-1-0.448-1-1V40c0-0.552,0.448-1,1-1s1,0.448,1,1v10C40,50.552,39.552,51,39,51z"/>
			</g>
		</g>
		<g>
			<g>
				<g>
					<path fill="#F0F0F0" d="M29,47h-3c-0.552,0-1-0.448-1-1v-6c0-0.552,0.448-1,1-1h3c2.206,0,4,1.794,4,4S31.206,47,29,47z M27,45
						h2c1.103,0,2-0.897,2-2s-0.897-2-2-2h-2V45z"/>
				</g>
				<g>
					<path fill="#F0F0F0" d="M26,51c-0.552,0-1-0.448-1-1v-4c0-0.552,0.448-1,1-1s1,0.448,1,1v4C27,50.552,26.552,51,26,51z"/>
				</g>
			</g>
			<g>
				<path fill="#F0F0F0" d="M32.001,51c-0.367,0-0.72-0.202-0.896-0.553l-2-4c-0.247-0.494-0.047-1.095,0.447-1.342
					c0.495-0.247,1.095-0.046,1.342,0.447l2,4c0.247,0.494,0.047,1.095-0.447,1.342C32.304,50.966,32.151,51,32.001,51z"/>
			</g>
		</g>
	</g>
</g>
</svg>
