<?xml version="1.0" encoding="utf-8"?>
<!-- Generator: Adobe Illustrator 24.0.0, SVG Export Plug-In . SVG Version: 6.00 Build 0)  -->
<svg version="1.1" xmlns="http://www.w3.org/2000/svg" xmlns:xlink="http://www.w3.org/1999/xlink" x="0px" y="0px"
	 viewBox="0 0 64 64" enable-background="new 0 0 64 64" xml:space="preserve">
<g id="Captions">
</g>
<g id="Icons">
	<g>
		<g>
			<path fill="#F0F0F0" d="M48,16v43c0,0.55-0.45,1-1,1H9c-0.55,0-1-0.45-1-1V5c0-0.55,0.45-1,1-1h27L48,16z"/>
		</g>
		<g>
			<g>
				<path fill="#0A5078" d="M27,28H13c-0.552,0-1-0.448-1-1v0c0-0.552,0.448-1,1-1h14c0.552,0,1,0.448,1,1v0
					C28,27.552,27.552,28,27,28z"/>
			</g>
			<g>
				<path fill="#0A5078" d="M27,32H13c-0.552,0-1-0.448-1-1v0c0-0.552,0.448-1,1-1h14c0.552,0,1,0.448,1,1v0
					C28,31.552,27.552,32,27,32z"/>
			</g>
		</g>
		<g>
			<path fill="#D2D2D2" d="M48,37v18H24c-1.1,0-2-0.9-2-2V39c0-1.1,0.9-2,2-2H48z"/>
		</g>
		<g>
			<path fill="#C80A50" d="M54,54H24c-1.105,0-2-0.895-2-2V38c0-1.105,0.895-2,2-2h30c1.105,0,2,0.895,2,2v14
				C56,53.105,55.105,54,54,54z"/>
		</g>
		<g>
			<g>
				<path fill="#F0F0F0" d="M29.837,51h-1.674C26.419,51,25,49.581,25,47.837c0-0.553,0.447-1,1-1s1,0.447,1,1
					C27,48.479,27.521,49,28.163,49h1.674C30.479,49,31,48.479,31,47.837c0-0.443-0.246-0.842-0.643-1.04l-3.609-1.805
					C25.67,44.453,25,43.369,25,42.163C25,40.419,26.419,39,28.163,39h1.674C31.581,39,33,40.419,33,42.163c0,0.553-0.447,1-1,1
					s-1-0.447-1-1C31,41.521,30.479,41,29.837,41h-1.674C27.521,41,27,41.521,27,42.163c0,0.443,0.246,0.842,0.643,1.04l3.609,1.805
					C32.33,45.547,33,46.631,33,47.837C33,49.581,31.581,51,29.837,51z"/>
			</g>
		</g>
		<g>
			<path fill="#D2D2D2" d="M48,16H37c-0.552,0-1-0.448-1-1V4L48,16z"/>
		</g>
		<g>
			<g>
				<path fill="#F0F0F0" d="M39,51c-2.206,0-4-1.794-4-4v-7c0-0.553,0.447-1,1-1s1,0.447,1,1v7c0,1.103,0.897,2,2,2s2-0.897,2-2v-7
					c0-0.553,0.447-1,1-1s1,0.447,1,1v7C43,49.206,41.206,51,39,51z"/>
			</g>
		</g>
		<g>
			<g>
				<g>
					<path fill="#F0F0F0" d="M49.5,51H46c-0.553,0-1-0.447-1-1V40c0-0.553,0.447-1,1-1h3.5c1.93,0,3.5,1.57,3.5,3.5
						c0,0.979-0.403,1.864-1.053,2.5C52.597,45.636,53,46.521,53,47.5C53,49.43,51.43,51,49.5,51z M47,49h2.5
						c0.827,0,1.5-0.673,1.5-1.5S50.327,46,49.5,46H47V49z M47,44h2.5c0.827,0,1.5-0.673,1.5-1.5S50.327,41,49.5,41H47V44z"/>
				</g>
			</g>
		</g>
		<path fill="#00A0C8" d="M20,24c-3.859,0-7-3.141-7-7s3.141-7,7-7s7,3.141,7,7S23.859,24,20,24z M20,12c-2.757,0-5,2.243-5,5
			s2.243,5,5,5s5-2.243,5-5S22.757,12,20,12z"/>
		<path fill="#0A5078" d="M20,18.5c-0.553,0-1-0.447-1-1v-3c0-0.553,0.447-1,1-1s1,0.447,1,1v3C21,18.053,20.553,18.5,20,18.5z"/>
		<path fill="#00A0C8" d="M20,11.5c-0.553,0-1-0.447-1-1V8c0-0.553,0.447-1,1-1s1,0.447,1,1v2.5C21,11.053,20.553,11.5,20,11.5z"/>
		<path fill="#00A0C8" d="M22,9h-4c-0.553,0-1-0.447-1-1s0.447-1,1-1h4c0.553,0,1,0.447,1,1S22.553,9,22,9z"/>
	</g>
</g>
</svg>
