<?xml version="1.0" encoding="utf-8"?>
<!-- Generator: Adobe Illustrator 24.0.0, SVG Export Plug-In . SVG Version: 6.00 Build 0)  -->
<svg version="1.1" xmlns="http://www.w3.org/2000/svg" xmlns:xlink="http://www.w3.org/1999/xlink" x="0px" y="0px"
	 viewBox="0 0 64 64" enable-background="new 0 0 64 64" xml:space="preserve">
<g id="Captions">
</g>
<g id="Icons">
	<g>
		<g>
			<path fill="#F0F0F0" d="M48,16v43c0,0.55-0.45,1-1,1H9c-0.55,0-1-0.45-1-1V5c0-0.55,0.45-1,1-1h27L48,16z"/>
		</g>
		<g>
			<path fill="#D2D2D2" d="M48,37v18H24c-1.1,0-2-0.9-2-2V39c0-1.1,0.9-2,2-2H48z"/>
		</g>
		<g>
			<path fill="#C80A50" d="M54,54H24c-1.105,0-2-0.895-2-2V38c0-1.105,0.895-2,2-2h30c1.105,0,2,0.895,2,2v14
				C56,53.105,55.105,54,54,54z"/>
		</g>
		<g>
			<path fill="#D2D2D2" d="M48,16H37c-0.552,0-1-0.448-1-1V4L48,16z"/>
		</g>
		<g>
			<g>
				<path fill="#F0F0F0" d="M52,46h-6c-0.553,0-1-0.447-1-1v-5c0-0.553,0.447-1,1-1h6c0.553,0,1,0.447,1,1s-0.447,1-1,1h-5v3h5
					c0.553,0,1,0.447,1,1S52.553,46,52,46z"/>
			</g>
			<g>
				<path fill="#F0F0F0" d="M46,51c-0.553,0-1-0.447-1-1v-5c0-0.553,0.447-1,1-1s1,0.447,1,1v5C47,50.553,46.553,51,46,51z"/>
			</g>
		</g>
		<g>
			<g>
				<path fill="#F0F0F0" d="M29.837,51h-1.674C26.419,51,25,49.581,25,47.837c0-0.553,0.448-1,1-1s1,0.447,1,1
					C27,48.479,27.522,49,28.163,49h1.674C30.478,49,31,48.479,31,47.837c0-0.443-0.246-0.842-0.643-1.04l-3.609-1.805
					C25.67,44.453,25,43.369,25,42.163C25,40.419,26.419,39,28.163,39h1.674C31.581,39,33,40.419,33,42.163c0,0.553-0.448,1-1,1
					s-1-0.447-1-1C31,41.521,30.478,41,29.837,41h-1.674C27.522,41,27,41.521,27,42.163c0,0.443,0.246,0.842,0.643,1.04l3.609,1.805
					C32.33,45.547,33,46.631,33,47.837C33,49.581,31.581,51,29.837,51z"/>
			</g>
		</g>
		<g>
			<path fill="#F0F0F0" d="M42,51c-0.345,0-0.674-0.179-0.857-0.485L39,46.943l-2.143,3.571c-0.23,0.386-0.696,0.567-1.124,0.449
				C35.3,50.844,35,50.449,35,50V40c0-0.553,0.447-1,1-1s1,0.447,1,1v6.39l1.143-1.904c0.361-0.602,1.354-0.602,1.715,0L41,46.39V40
				c0-0.553,0.447-1,1-1s1,0.447,1,1v10c0,0.449-0.3,0.844-0.733,0.964C42.179,50.988,42.089,51,42,51z"/>
		</g>
		<g>
			<path fill="#C80A50" d="M27,13.107v-2.028c0-0.605-0.536-1.084-1.135-0.998c-3.364,0.48-6.097,3.064-6.704,6.496l-1.262,7.152
				c-0.285,1.618-1.522,2.857-3.075,3.186C14.351,27.014,14,27.409,14,27.893v2.028c0,0.605,0.536,1.084,1.135,0.998
				c3.364-0.48,6.097-3.064,6.704-6.496L22.09,23H25c0.552,0,1-0.448,1-1v-2c0-0.552-0.448-1-1-1h-2.204l0.305-1.729
				c0.285-1.618,1.522-2.857,3.075-3.186C26.649,13.986,27,13.591,27,13.107z"/>
		</g>
	</g>
</g>
</svg>
