<?xml version="1.0" encoding="utf-8"?>
<!-- Generator: Adobe Illustrator 24.0.0, SVG Export Plug-In . SVG Version: 6.00 Build 0)  -->
<svg version="1.1" xmlns="http://www.w3.org/2000/svg" xmlns:xlink="http://www.w3.org/1999/xlink" x="0px" y="0px"
	 viewBox="0 0 64 64" enable-background="new 0 0 64 64" xml:space="preserve">
<g id="Captions">
</g>
<g id="Icons">
	<g>
		<g>
			<path fill="#F0F0F0" d="M48,16v43c0,0.55-0.45,1-1,1H9c-0.55,0-1-0.45-1-1V5c0-0.55,0.45-1,1-1h27L48,16z"/>
		</g>
		<g>
			<path fill="#D2D2D2" d="M48,37v18H24c-1.1,0-2-0.9-2-2V39c0-1.1,0.9-2,2-2H48z"/>
		</g>
		<g>
			<g>
				<path fill="#00A0C8" d="M54,54H24c-1.105,0-2-0.895-2-2V38c0-1.105,0.895-2,2-2h30c1.105,0,2,0.895,2,2v14
					C56,53.105,55.105,54,54,54z"/>
			</g>
		</g>
		<g>
			<path fill="#D2D2D2" d="M48,16H37c-0.552,0-1-0.448-1-1V4L48,16z"/>
		</g>
		<g>
			<path fill="#C80A50" d="M31.29,22.9l-1.38-0.79c0.117-0.723,0.123-1.459,0-2.22l1.38-0.79c0.48-0.28,0.65-0.89,0.37-1.37l-2-3.46
				c-0.28-0.48-0.89-0.64-1.37-0.37l-1.37,0.8c-0.58-0.46-1.23-0.83-1.92-1.11V12c0-0.55-0.45-1-1-1h-4c-0.55,0-1,0.45-1,1v1.59
				c-0.69,0.28-1.34,0.65-1.92,1.11l-1.37-0.8c-0.48-0.27-1.09-0.11-1.37,0.37l-2,3.46c-0.28,0.48-0.11,1.09,0.37,1.37l1.38,0.79
				c-0.117,0.723-0.123,1.459,0,2.22l-1.38,0.79c-0.48,0.28-0.65,0.89-0.37,1.37l2,3.46c0.28,0.48,0.89,0.64,1.37,0.37l1.37-0.8
				c0.58,0.46,1.23,0.83,1.92,1.11V30c0,0.55,0.45,1,1,1h4c0.55,0,1-0.45,1-1v-1.59c0.69-0.28,1.34-0.65,1.92-1.11l1.37,0.8
				c0.48,0.27,1.09,0.11,1.37-0.37l2-3.46C31.94,23.79,31.77,23.18,31.29,22.9z M22,25c-2.21,0-4-1.79-4-4c0-2.21,1.79-4,4-4
				s4,1.79,4,4C26,23.21,24.21,25,22,25z"/>
		</g>
		<g>
			<g>
				<g>
					<path fill="#F0F0F0" d="M29.837,51h-1.674C26.419,51,25,49.581,25,47.837c0-0.553,0.448-1,1-1s1,0.447,1,1
						C27,48.479,27.522,49,28.163,49h1.674C30.478,49,31,48.479,31,47.837c0-0.443-0.246-0.842-0.643-1.04l-3.609-1.805
						C25.67,44.453,25,43.369,25,42.163C25,40.419,26.419,39,28.163,39h1.674C31.581,39,33,40.419,33,42.163c0,0.553-0.448,1-1,1
						s-1-0.447-1-1C31,41.521,30.478,41,29.837,41h-1.674C27.522,41,27,41.521,27,42.163c0,0.443,0.246,0.842,0.643,1.04
						l3.609,1.805C32.33,45.547,33,46.631,33,47.837C33,49.581,31.581,51,29.837,51z"/>
				</g>
			</g>
			<g>
				<g>
					<path fill="#F0F0F0" d="M49.837,51h-1.674C46.419,51,45,49.581,45,47.837c0-0.553,0.447-1,1-1s1,0.447,1,1
						C47,48.479,47.521,49,48.163,49h1.674C50.479,49,51,48.479,51,47.837c0-0.443-0.246-0.842-0.643-1.04l-3.609-1.805
						C45.67,44.453,45,43.369,45,42.163C45,40.419,46.419,39,48.163,39h1.674C51.581,39,53,40.419,53,42.163c0,0.553-0.447,1-1,1
						s-1-0.447-1-1C51,41.521,50.479,41,49.837,41h-1.674C47.521,41,47,41.521,47,42.163c0,0.443,0.246,0.842,0.643,1.04
						l3.609,1.805C52.33,45.547,53,46.631,53,47.837C53,49.581,51.581,51,49.837,51z"/>
				</g>
			</g>
			<g>
				<g>
					<path fill="#F0F0F0" d="M39,46c-0.352,0-0.677-0.185-0.857-0.485l-3-5c-0.284-0.474-0.131-1.088,0.343-1.372
						c0.475-0.285,1.088-0.131,1.372,0.343L39,43.057l2.143-3.571c0.284-0.474,0.898-0.628,1.372-0.343
						c0.474,0.284,0.627,0.898,0.343,1.372l-3,5C39.677,45.815,39.352,46,39,46z"/>
				</g>
				<g>
					<path fill="#F0F0F0" d="M39,51c-0.553,0-1-0.447-1-1v-5c0-0.553,0.447-1,1-1s1,0.447,1,1v5C40,50.553,39.553,51,39,51z"/>
				</g>
			</g>
		</g>
	</g>
</g>
</svg>
