<?xml version="1.0" encoding="utf-8"?>
<!-- Generator: Adobe Illustrator 24.0.0, SVG Export Plug-In . SVG Version: 6.00 Build 0)  -->
<svg version="1.1" xmlns="http://www.w3.org/2000/svg" xmlns:xlink="http://www.w3.org/1999/xlink" x="0px" y="0px"
	 viewBox="0 0 64 64" enable-background="new 0 0 64 64" xml:space="preserve">
<g id="Captions">
</g>
<g id="Icons">
	<g>
		<path fill="#F0F0F0" d="M44,17v42c0,0.55-0.45,1-1,1H9c-0.55,0-1-0.45-1-1V17H44z"/>
	</g>
	<g>
		<path fill="#D2D2D2" d="M44,39v18H24c-1.1,0-2-0.9-2-2V41c0-1.1,0.9-2,2-2H44z"/>
	</g>
	<g>
		<path fill="#00A0C8" d="M54,56H24c-1.105,0-2-0.895-2-2V40c0-1.105,0.895-2,2-2h30c1.105,0,2,0.895,2,2v14
			C56,55.105,55.105,56,54,56z"/>
	</g>
	<g>
		<g>
			<g>
				<path fill="#F0F0F0" d="M42.001,53c-0.34,0-0.671-0.173-0.858-0.485l-6-10c-0.284-0.474-0.131-1.088,0.343-1.372
					s1.088-0.13,1.372,0.343l6,10c0.284,0.474,0.131,1.088-0.343,1.372C42.354,52.954,42.176,53,42.001,53z"/>
			</g>
			<g>
				<path fill="#F0F0F0" d="M35.999,53c-0.175,0-0.353-0.046-0.514-0.143c-0.474-0.284-0.627-0.898-0.343-1.372l6-10
					c0.284-0.473,0.897-0.627,1.372-0.343c0.474,0.284,0.627,0.898,0.343,1.372l-6,10C36.67,52.827,36.339,53,35.999,53z"/>
			</g>
		</g>
		<g>
			<g>
				<g>
					<path fill="#F0F0F0" d="M29,53c-0.553,0-1-0.448-1-1V42c0-0.552,0.447-1,1-1s1,0.448,1,1v10C30,52.552,29.553,53,29,53z"/>
				</g>
			</g>
			<g>
				<path fill="#F0F0F0" d="M32,43h-6c-0.553,0-1-0.448-1-1s0.447-1,1-1h6c0.553,0,1,0.448,1,1S32.553,43,32,43z"/>
			</g>
		</g>
	</g>
	<g>
		<g>
			<path fill="#F0F0F0" d="M52,43h-6c-0.553,0-1-0.448-1-1s0.447-1,1-1h6c0.553,0,1,0.448,1,1S52.553,43,52,43z"/>
		</g>
		<g>
			<g>
				<path fill="#F0F0F0" d="M49,53c-0.553,0-1-0.448-1-1V42c0-0.552,0.447-1,1-1s1,0.448,1,1v10C50,52.552,49.553,53,49,53z"/>
			</g>
		</g>
	</g>
	<g>
		<path fill="#C80A50" d="M44,17H8v-7c0-1.105,0.895-2,2-2h32c1.105,0,2,0.895,2,2V17z"/>
	</g>
	<g>
		<g>
			<g>
				<path fill="#0A5078" d="M16,12h-1c-0.552,0-1-0.448-1-1V5c0-0.552,0.448-1,1-1h1c0.552,0,1,0.448,1,1v6
					C17,11.552,16.552,12,16,12z"/>
			</g>
		</g>
		<g>
			<g>
				<path fill="#0A5078" d="M26.5,12h-1c-0.552,0-1-0.448-1-1V5c0-0.552,0.448-1,1-1h1c0.552,0,1,0.448,1,1v6
					C27.5,11.552,27.052,12,26.5,12z"/>
			</g>
		</g>
		<g>
			<g>
				<path fill="#0A5078" d="M37,12h-1c-0.552,0-1-0.448-1-1V5c0-0.552,0.448-1,1-1h1c0.552,0,1,0.448,1,1v6
					C38,11.552,37.552,12,37,12z"/>
			</g>
		</g>
	</g>
	<g>
		<g>
			<path fill="#0A5078" d="M37,24H15c-0.552,0-1-0.448-1-1v0c0-0.552,0.448-1,1-1h22c0.552,0,1,0.448,1,1v0
				C38,23.552,37.552,24,37,24z"/>
		</g>
	</g>
	<g>
		<g>
			<path fill="#0A5078" d="M37,29H15c-0.552,0-1-0.448-1-1v0c0-0.552,0.448-1,1-1h22c0.552,0,1,0.448,1,1v0
				C38,28.552,37.552,29,37,29z"/>
		</g>
	</g>
	<g>
		<g>
			<path fill="#0A5078" d="M37,34H15c-0.552,0-1-0.448-1-1l0,0c0-0.552,0.448-1,1-1h22c0.552,0,1,0.448,1,1l0,0
				C38,33.552,37.552,34,37,34z"/>
		</g>
	</g>
</g>
</svg>
