<?xml version="1.0" encoding="utf-8"?>
<!-- Generator: Adobe Illustrator 24.0.0, SVG Export Plug-In . SVG Version: 6.00 Build 0)  -->
<svg version="1.1" xmlns="http://www.w3.org/2000/svg" xmlns:xlink="http://www.w3.org/1999/xlink" x="0px" y="0px"
	 viewBox="0 0 64 64" enable-background="new 0 0 64 64" xml:space="preserve">
<g id="Captions">
</g>
<g id="Icons">
	<g>
		<g>
			<g>
				<path fill="#F0F0F0" d="M48,16v43c0,0.55-0.45,1-1,1H9c-0.55,0-1-0.45-1-1V5c0-0.55,0.45-1,1-1h27L48,16z"/>
			</g>
			<g>
				<path fill="#D2D2D2" d="M48,37v18H24c-1.1,0-2-0.9-2-2V39c0-1.1,0.9-2,2-2H48z"/>
			</g>
			<g>
				<path fill="#0A5078" d="M54,54H24c-1.105,0-2-0.895-2-2V38c0-1.105,0.895-2,2-2h30c1.105,0,2,0.895,2,2v14
					C56,53.105,55.105,54,54,54z"/>
			</g>
			<g>
				<g>
					<g>
						<path fill="#F0F0F0" d="M39,47h-3c-0.553,0-1-0.447-1-1v-6c0-0.553,0.447-1,1-1h3c2.206,0,4,1.794,4,4S41.206,47,39,47z
							 M37,45h2c1.103,0,2-0.897,2-2s-0.897-2-2-2h-2V45z"/>
					</g>
					<g>
						<path fill="#F0F0F0" d="M36,51c-0.553,0-1-0.447-1-1v-4c0-0.553,0.447-1,1-1s1,0.447,1,1v4C37,50.553,36.553,51,36,51z"/>
					</g>
				</g>
				<g>
					<path fill="#F0F0F0" d="M42.001,51c-0.367,0-0.72-0.202-0.896-0.553l-2-4c-0.247-0.494-0.047-1.095,0.447-1.342
						c0.493-0.245,1.094-0.047,1.342,0.447l2,4c0.247,0.494,0.047,1.095-0.447,1.342C42.304,50.966,42.151,51,42.001,51z"/>
				</g>
			</g>
			<g>
				<path fill="#D2D2D2" d="M48,16H37c-0.552,0-1-0.448-1-1V4L48,16z"/>
			</g>
			<g>
				<path fill="#F0F0F0" d="M52,51h-6c-0.553,0-1-0.447-1-1V40c0-0.553,0.447-1,1-1s1,0.447,1,1v9h5c0.553,0,1,0.447,1,1
					S52.553,51,52,51z"/>
			</g>
			<g>
				<path fill="#F0F0F0" d="M29,51c-2.206,0-4-1.794-4-4v-7c0-0.553,0.447-1,1-1s1,0.447,1,1v7c0,1.103,0.897,2,2,2s2-0.897,2-2v-7
					c0-0.553,0.447-1,1-1s1,0.447,1,1v7C33,49.206,31.206,51,29,51z"/>
			</g>
		</g>
		<g>
			<g>
				<path fill="#00A0C8" d="M22.5,33C16.159,33,11,27.841,11,21.5S16.159,10,22.5,10S34,15.159,34,21.5S28.841,33,22.5,33z M22.5,12
					c-5.238,0-9.5,4.262-9.5,9.5s4.262,9.5,9.5,9.5s9.5-4.262,9.5-9.5S27.738,12,22.5,12z"/>
			</g>
			<g>
				<path fill="#00A0C8" d="M22.5,33c-3.136,0-5.5-4.944-5.5-11.5S19.364,10,22.5,10S28,14.944,28,21.5S25.636,33,22.5,33z M22.5,12
					c-1.462,0-3.5,3.614-3.5,9.5s2.038,9.5,3.5,9.5s3.5-3.614,3.5-9.5S23.962,12,22.5,12z"/>
			</g>
			<g>
				<path fill="#00A0C8" d="M31.98,27H13.02c-0.553,0-1-0.448-1-1s0.447-1,1-1H31.98c0.553,0,1,0.448,1,1S32.533,27,31.98,27z"/>
			</g>
			<g>
				<path fill="#00A0C8" d="M31.98,18H13.02c-0.553,0-1-0.448-1-1s0.447-1,1-1H31.98c0.553,0,1,0.448,1,1S32.533,18,31.98,18z"/>
			</g>
		</g>
	</g>
</g>
</svg>
