<?xml version="1.0" encoding="utf-8"?>
<!-- Generator: Adobe Illustrator 24.0.0, SVG Export Plug-In . SVG Version: 6.00 Build 0)  -->
<svg version="1.1" xmlns="http://www.w3.org/2000/svg" xmlns:xlink="http://www.w3.org/1999/xlink" x="0px" y="0px"
	 viewBox="0 0 64 64" enable-background="new 0 0 64 64" xml:space="preserve">
<g id="Captions">
</g>
<g id="Icons">
	<g>
		<path fill="#F0F0F0" d="M48,16v43c0,0.55-0.45,1-1,1H9c-0.55,0-1-0.45-1-1V5c0-0.55,0.45-1,1-1h27L48,16z"/>
	</g>
	<g>
		<path fill="#D2D2D2" d="M48,37v18H24c-1.1,0-2-0.9-2-2V39c0-1.1,0.9-2,2-2H48z"/>
	</g>
	<g>
		<path fill="#00A0C8" d="M54,54H24c-1.105,0-2-0.895-2-2V38c0-1.105,0.895-2,2-2h30c1.105,0,2,0.895,2,2v14
			C56,53.105,55.105,54,54,54z"/>
	</g>
	<g>
		<path fill="#D2D2D2" d="M48,16H37c-0.552,0-1-0.448-1-1V4L48,16z"/>
	</g>
	<g>
		<g>
			<g>
				<path fill="#F0F0F0" d="M42,47h-6c-0.552,0-1-0.448-1-1v-3c0-2.206,1.794-4,4-4s4,1.794,4,4v3C43,46.552,42.552,47,42,47z
					 M37,45h4v-2c0-1.103-0.897-2-2-2s-2,0.897-2,2V45z"/>
			</g>
			<g>
				<path fill="#F0F0F0" d="M36,51c-0.552,0-1-0.448-1-1v-4c0-0.552,0.448-1,1-1s1,0.448,1,1v4C37,50.552,36.552,51,36,51z"/>
			</g>
		</g>
		<g>
			<path fill="#F0F0F0" d="M32,51c-0.345,0-0.673-0.179-0.857-0.485L29,46.944l-2.143,3.571c-0.231,0.386-0.691,0.568-1.125,0.449
				C25.3,50.844,25,50.45,25,50V40c0-0.552,0.448-1,1-1s1,0.448,1,1v6.39l1.143-1.904c0.361-0.603,1.354-0.603,1.715,0L31,46.39V40
				c0-0.552,0.448-1,1-1s1,0.448,1,1v10c0,0.45-0.3,0.844-0.733,0.964C32.178,50.988,32.088,51,32,51z"/>
		</g>
		<g>
			<path fill="#F0F0F0" d="M42,51c-0.552,0-1-0.448-1-1v-4c0-0.552,0.448-1,1-1s1,0.448,1,1v4C43,50.552,42.552,51,42,51z"/>
		</g>
	</g>
	<g>
		<g>
			<path fill="#C80A50" d="M15,25c-0.552,0-1-0.448-1-1v-4c0-0.552,0.448-1,1-1s1,0.448,1,1v4C16,24.552,15.552,25,15,25z"/>
		</g>
		<g>
			<path fill="#C80A50" d="M19,28c-0.552,0-1-0.448-1-1V17c0-0.552,0.448-1,1-1s1,0.448,1,1v10C20,27.552,19.552,28,19,28z"/>
		</g>
		<g>
			<path fill="#C80A50" d="M31,25c-0.552,0-1-0.448-1-1v-4c0-0.552,0.448-1,1-1s1,0.448,1,1v4C32,24.552,31.552,25,31,25z"/>
		</g>
		<g>
			<path fill="#C80A50" d="M27,28c-0.552,0-1-0.448-1-1V17c0-0.552,0.448-1,1-1s1,0.448,1,1v10C28,27.552,27.552,28,27,28z"/>
		</g>
		<g>
			<path fill="#C80A50" d="M23,30c-0.552,0-1-0.448-1-1V15c0-0.552,0.448-1,1-1s1,0.448,1,1v14C24,29.552,23.552,30,23,30z"/>
		</g>
	</g>
	<path fill="#F0F0F0" d="M52.958,40.287L52.958,40.287c0.159-0.529-0.141-1.087-0.67-1.245c-0.531-0.157-1.086,0.142-1.246,0.67
		L49,46.517l-2.042-6.805c-0.159-0.529-0.715-0.828-1.246-0.67c-0.529,0.159-0.829,0.716-0.67,1.245l0,0l-0.001,0
		c2.196,7.317,1.474,4.911,3,9.999c0.285,0.949,1.632,0.949,1.917,0C51.484,45.2,50.764,47.602,52.958,40.287L52.958,40.287z"/>
</g>
</svg>
