<?xml version="1.0" encoding="utf-8"?>
<!-- Generator: Adobe Illustrator 24.0.0, SVG Export Plug-In . SVG Version: 6.00 Build 0)  -->
<svg version="1.1" xmlns="http://www.w3.org/2000/svg" xmlns:xlink="http://www.w3.org/1999/xlink" x="0px" y="0px"
	 viewBox="0 0 64 64" enable-background="new 0 0 64 64" xml:space="preserve">
<g id="Captions">
</g>
<g id="Icons">
	<g>
		<path fill="#F0F0F0" d="M48,16v43c0,0.55-0.45,1-1,1H9c-0.55,0-1-0.45-1-1V5c0-0.55,0.45-1,1-1h27L48,16z"/>
	</g>
	<g>
		<path fill="#D2D2D2" d="M48,37v18H24c-1.1,0-2-0.9-2-2V39c0-1.1,0.9-2,2-2H48z"/>
	</g>
	<g>
		<path fill="#00A0C8" d="M54,54H24c-1.105,0-2-0.895-2-2V38c0-1.105,0.895-2,2-2h30c1.105,0,2,0.895,2,2v14
			C56,53.105,55.105,54,54,54z"/>
	</g>
	<g>
		<path fill="#D2D2D2" d="M48,16H37c-0.552,0-1-0.448-1-1V4L48,16z"/>
	</g>
	<g>
		<g>
			<g>
				<path fill="#F0F0F0" d="M42,51h-6c-0.553,0-1-0.448-1-1V40c0-0.552,0.447-1,1-1s1,0.448,1,1v9h5c0.553,0,1,0.448,1,1
					S42.553,51,42,51z"/>
			</g>
		</g>
		<g>
			<g>
				<path fill="#F0F0F0" d="M32.001,51c-0.34,0-0.671-0.173-0.858-0.485l-6-10c-0.284-0.474-0.131-1.088,0.343-1.372
					s1.088-0.131,1.372,0.343l6,10c0.284,0.474,0.131,1.088-0.343,1.372C32.354,50.954,32.176,51,32.001,51z"/>
			</g>
			<g>
				<path fill="#F0F0F0" d="M25.999,51c-0.175,0-0.353-0.046-0.514-0.143c-0.474-0.284-0.627-0.898-0.343-1.372l6-10
					c0.284-0.475,0.898-0.628,1.372-0.343c0.474,0.284,0.627,0.898,0.343,1.372l-6,10C26.67,50.827,26.339,51,25.999,51z"/>
			</g>
		</g>
		<g>
			<g>
				<path fill="#F0F0F0" d="M49.837,51h-1.674C46.419,51,45,49.581,45,47.837c0-0.552,0.447-1,1-1s1,0.448,1,1
					C47,48.478,47.521,49,48.163,49h1.674C50.479,49,51,48.478,51,47.837c0-0.443-0.246-0.842-0.643-1.04l-3.609-1.805
					C45.67,44.453,45,43.369,45,42.163C45,40.419,46.419,39,48.163,39h1.674C51.581,39,53,40.419,53,42.163c0,0.552-0.447,1-1,1
					s-1-0.448-1-1C51,41.522,50.479,41,49.837,41h-1.674C47.521,41,47,41.522,47,42.163c0,0.443,0.246,0.842,0.643,1.04l3.609,1.805
					C52.33,45.547,53,46.631,53,47.837C53,49.581,51.581,51,49.837,51z"/>
			</g>
		</g>
	</g>
	<g>
		<g>
			<g>
				<path fill="#D2D2D2" d="M20,18h-8c-0.552,0-1-0.448-1-1v-2c0-0.552,0.448-1,1-1h8c0.552,0,1,0.448,1,1v2
					C21,17.552,20.552,18,20,18z"/>
			</g>
			<g>
				<path fill="#D2D2D2" d="M32,18h-8c-0.552,0-1-0.448-1-1v-2c0-0.552,0.448-1,1-1h8c0.552,0,1,0.448,1,1v2
					C33,17.552,32.552,18,32,18z"/>
			</g>
		</g>
		<g>
			<g>
				<path fill="#D2D2D2" d="M20,24h-8c-0.552,0-1-0.448-1-1v-2c0-0.552,0.448-1,1-1h8c0.552,0,1,0.448,1,1v2
					C21,23.552,20.552,24,20,24z"/>
			</g>
			<g>
				<path fill="#D2D2D2" d="M32,24h-8c-0.552,0-1-0.448-1-1v-2c0-0.552,0.448-1,1-1h8c0.552,0,1,0.448,1,1v2
					C33,23.552,32.552,24,32,24z"/>
			</g>
		</g>
		<g>
			<g>
				<path fill="#D2D2D2" d="M20,30h-8c-0.552,0-1-0.448-1-1v-2c0-0.552,0.448-1,1-1h8c0.552,0,1,0.448,1,1v2
					C21,29.552,20.552,30,20,30z"/>
			</g>
			<g>
				<path fill="#D2D2D2" d="M32,30h-8c-0.552,0-1-0.448-1-1v-2c0-0.552,0.448-1,1-1h8c0.552,0,1,0.448,1,1v2
					C33,29.552,32.552,30,32,30z"/>
			</g>
		</g>
	</g>
</g>
</svg>
