<?xml version="1.0" encoding="utf-8"?>
<!-- Generator: Adobe Illustrator 24.0.0, SVG Export Plug-In . SVG Version: 6.00 Build 0)  -->
<svg version="1.1" xmlns="http://www.w3.org/2000/svg" xmlns:xlink="http://www.w3.org/1999/xlink" x="0px" y="0px"
	 viewBox="0 0 64 64" enable-background="new 0 0 64 64" xml:space="preserve">
<g id="Captions">
</g>
<g id="Icons">
	<g>
		<g>
			<path fill="#F0F0F0" d="M48,16v43c0,0.55-0.45,1-1,1H9c-0.55,0-1-0.45-1-1V5c0-0.55,0.45-1,1-1h27L48,16z"/>
		</g>
		<g>
			<path fill="#D2D2D2" d="M48,37v18H24c-1.1,0-2-0.9-2-2V39c0-1.1,0.9-2,2-2H48z"/>
		</g>
		<g>
			<path fill="#C80A50" d="M54,54H24c-1.105,0-2-0.895-2-2V38c0-1.105,0.895-2,2-2h30c1.105,0,2,0.895,2,2v14
				C56,53.105,55.105,54,54,54z"/>
		</g>
		<g>
			<path fill="#D2D2D2" d="M48,16H37c-0.552,0-1-0.448-1-1V4L48,16z"/>
		</g>
		<g>
			<g>
				<path fill="#0A5078" d="M18.001,29c-0.287,0-0.571-0.123-0.77-0.36l-5-6c-0.309-0.371-0.309-0.91,0-1.28l5-6
					c0.354-0.424,0.983-0.482,1.409-0.128c0.424,0.354,0.481,0.984,0.128,1.408L14.302,22l4.467,5.36
					c0.354,0.424,0.296,1.055-0.128,1.408C18.453,28.924,18.227,29,18.001,29z"/>
			</g>
			<g>
				<path fill="#0A5078" d="M29.999,29c-0.226,0-0.452-0.076-0.64-0.232c-0.424-0.354-0.481-0.984-0.128-1.408L33.698,22
					l-4.467-5.36c-0.354-0.424-0.296-1.055,0.128-1.408c0.426-0.354,1.055-0.296,1.409,0.128l5,6c0.309,0.371,0.309,0.91,0,1.28
					l-5,6C30.57,28.877,30.286,29,29.999,29z"/>
			</g>
			<g>
				<path fill="#0A5078" d="M23.001,29c-0.055,0-0.109-0.004-0.165-0.014c-0.545-0.091-0.913-0.606-0.822-1.151l2-12
					c0.091-0.544,0.604-0.912,1.15-0.822c0.545,0.091,0.913,0.606,0.822,1.151l-2,12C23.905,28.653,23.481,29,23.001,29z"/>
			</g>
		</g>
		<g>
			<g>
				<path fill="#F0F0F0" d="M42,51c-0.553,0-1-0.447-1-1v-6.39l-1.143,1.904c-0.361,0.602-1.354,0.602-1.715,0L37,43.61V50
					c0,0.553-0.447,1-1,1s-1-0.447-1-1V40c0-0.449,0.3-0.844,0.733-0.964c0.43-0.117,0.894,0.063,1.124,0.449L39,43.057l2.143-3.571
					c0.23-0.386,0.693-0.568,1.124-0.449C42.7,39.156,43,39.551,43,40v10C43,50.553,42.553,51,42,51z"/>
			</g>
		</g>
		<g>
			<path fill="#F0F0F0" d="M52,51h-6c-0.553,0-1-0.447-1-1V40c0-0.553,0.447-1,1-1s1,0.447,1,1v9h5c0.553,0,1,0.447,1,1
				S52.553,51,52,51z"/>
		</g>
		<g>
			<path fill="#F0F0F0" d="M32.001,51c-0.34,0-0.671-0.173-0.858-0.485l-6-10c-0.284-0.474-0.131-1.088,0.343-1.372
				s1.089-0.13,1.372,0.343l6,10c0.284,0.474,0.131,1.088-0.343,1.372C32.354,50.954,32.176,51,32.001,51z"/>
		</g>
		<g>
			<path fill="#F0F0F0" d="M25.999,51c-0.175,0-0.353-0.046-0.514-0.143c-0.474-0.284-0.627-0.898-0.343-1.372l6-10
				c0.283-0.473,0.897-0.627,1.372-0.343c0.474,0.284,0.627,0.898,0.343,1.372l-6,10C26.67,50.827,26.339,51,25.999,51z"/>
		</g>
	</g>
</g>
</svg>
