<?xml version="1.0" encoding="utf-8"?>
<!-- Generator: Adobe Illustrator 24.0.0, SVG Export Plug-In . SVG Version: 6.00 Build 0)  -->
<svg version="1.1" xmlns="http://www.w3.org/2000/svg" xmlns:xlink="http://www.w3.org/1999/xlink" x="0px" y="0px"
	 viewBox="0 0 64 64" enable-background="new 0 0 64 64" xml:space="preserve">
<g id="Captions">
</g>
<g id="Icons">
	<g>
		<g>
			<path fill="#F0F0F0" d="M48,16v43c0,0.55-0.45,1-1,1H9c-0.55,0-1-0.45-1-1V5c0-0.55,0.45-1,1-1h27L48,16z"/>
		</g>
		<g>
			<path fill="#D2D2D2" d="M48,37v18H28c-1.1,0-2-0.9-2-2V39c0-1.1,0.9-2,2-2H48z"/>
		</g>
		<g>
			<path fill="#00A0C8" d="M54,54H28c-1.105,0-2-0.895-2-2V38c0-1.105,0.895-2,2-2h26c1.105,0,2,0.895,2,2v14
				C56,53.105,55.105,54,54,54z"/>
		</g>
		<g>
			<path fill="#D2D2D2" d="M48,16H37c-0.552,0-1-0.448-1-1V4L48,16z"/>
		</g>
		<g>
			<g>
				<path fill="#F0F0F0" d="M38,51h-6c-0.36,0-0.692-0.194-0.87-0.507s-0.173-0.698,0.013-1.007L36.233,41H32c-0.553,0-1-0.448-1-1
					s0.447-1,1-1h6c0.36,0,0.692,0.194,0.87,0.507s0.173,0.698-0.013,1.007L33.767,49H38c0.553,0,1,0.448,1,1S38.553,51,38,51z"/>
			</g>
		</g>
		<g>
			<g>
				<path fill="#F0F0F0" d="M42,51c-0.553,0-1-0.448-1-1V40c0-0.552,0.447-1,1-1s1,0.448,1,1v10C43,50.552,42.553,51,42,51z"/>
			</g>
		</g>
		<g>
			<g>
				<path fill="#F0F0F0" d="M49,47h-3c-0.553,0-1-0.448-1-1v-6c0-0.552,0.447-1,1-1h3c2.206,0,4,1.794,4,4S51.206,47,49,47z M47,45
					h2c1.103,0,2-0.897,2-2s-0.897-2-2-2h-2V45z"/>
			</g>
			<g>
				<path fill="#F0F0F0" d="M46,51c-0.553,0-1-0.448-1-1v-4c0-0.552,0.447-1,1-1s1,0.448,1,1v4C47,50.552,46.553,51,46,51z"/>
			</g>
		</g>
		<g>
			<rect x="20" y="4" fill="#0A5078" width="4" height="4"/>
		</g>
		<g>
			<rect x="24" y="8" fill="#0A5078" width="4" height="4"/>
		</g>
		<g>
			<rect x="20" y="12" fill="#0A5078" width="4" height="4"/>
		</g>
		<g>
			<rect x="24" y="16" fill="#0A5078" width="4" height="4"/>
		</g>
		<g>
			<path fill="#C80A50" d="M26,32h-4c-1.105,0-2-0.895-2-2V20h8v10C28,31.105,27.105,32,26,32z"/>
		</g>
		<g>
			<path fill="#F0F0F0" d="M25,30h-2c-0.552,0-1-0.448-1-1v-2c0-0.552,0.448-1,1-1h2c0.552,0,1,0.448,1,1v2
				C26,29.552,25.552,30,25,30z"/>
		</g>
	</g>
</g>
</svg>
