<?xml version="1.0" encoding="utf-8"?>
<!-- Generator: Adobe Illustrator 24.0.0, SVG Export Plug-In . SVG Version: 6.00 Build 0)  -->
<svg version="1.1" xmlns="http://www.w3.org/2000/svg" xmlns:xlink="http://www.w3.org/1999/xlink" x="0px" y="0px"
	 viewBox="0 0 64 64" enable-background="new 0 0 64 64" xml:space="preserve">
<g id="Captions">
</g>
<g id="Icons">
	<g>
		<path fill="#F0F0F0" d="M48,16v43c0,0.55-0.45,1-1,1H9c-0.55,0-1-0.45-1-1V5c0-0.55,0.45-1,1-1h27L48,16z"/>
	</g>
	<g>
		<path fill="#D2D2D2" d="M48,37v18H30c-1.1,0-2-0.9-2-2V39c0-1.1,0.9-2,2-2H48z"/>
	</g>
	<g>
		<path fill="#C80A50" d="M54,54H30c-1.105,0-2-0.895-2-2V38c0-1.105,0.895-2,2-2h24c1.105,0,2,0.895,2,2v14
			C56,53.105,55.105,54,54,54z"/>
	</g>
	<g>
		<path fill="#D2D2D2" d="M48,16H37c-0.552,0-1-0.448-1-1V4L48,16z"/>
	</g>
	<g>
		<rect x="20" y="4" fill="#00A0C8" width="4" height="4"/>
	</g>
	<g>
		<rect x="24" y="8" fill="#00A0C8" width="4" height="4"/>
	</g>
	<g>
		<rect x="20" y="12" fill="#00A0C8" width="4" height="4"/>
	</g>
	<g>
		<rect x="24" y="16" fill="#00A0C8" width="4" height="4"/>
	</g>
	<g>
		<path fill="#0A5078" d="M26,32h-4c-1.105,0-2-0.895-2-2V20h8v10C28,31.105,27.105,32,26,32z"/>
	</g>
	<g>
		<path fill="#F0F0F0" d="M25,26h-2c-0.552,0-1-0.448-1-1v-2c0-0.552,0.448-1,1-1h2c0.552,0,1,0.448,1,1v2
			C26,25.552,25.552,26,25,26z"/>
	</g>
	<g>
		<g>
			<g>
				<path fill="#F0F0F0" d="M36,51c-0.124,0-0.249-0.023-0.371-0.072c-0.513-0.206-0.762-0.787-0.557-1.3L38.523,41H34
					c-0.552,0-1-0.448-1-1s0.448-1,1-1h6c0.332,0,0.642,0.165,0.828,0.439s0.224,0.624,0.101,0.932l-4,10
					C36.772,50.762,36.396,51,36,51z"/>
			</g>
		</g>
		<g>
			<path fill="#F0F0F0" d="M50,51h-6c-0.36,0-0.693-0.194-0.87-0.507c-0.178-0.313-0.173-0.698,0.013-1.007L48.234,41H44
				c-0.552,0-1-0.448-1-1s0.448-1,1-1h6c0.36,0,0.693,0.194,0.87,0.507c0.178,0.313,0.173,0.698-0.013,1.007L45.766,49H50
				c0.552,0,1,0.448,1,1S50.552,51,50,51z"/>
		</g>
	</g>
</g>
</svg>
