<?xml version="1.0" encoding="utf-8"?>
<!-- Generator: Adobe Illustrator 24.0.0, SVG Export Plug-In . SVG Version: 6.00 Build 0)  -->
<svg version="1.1" xmlns="http://www.w3.org/2000/svg" xmlns:xlink="http://www.w3.org/1999/xlink" x="0px" y="0px"
	 viewBox="0 0 64 64" enable-background="new 0 0 64 64" xml:space="preserve">
<g id="Captions">
</g>
<g id="Icons">
	<g>
		<g>
			<path fill="#FAB400" d="M48,12v47c0,0.55-0.45,1-1,1H9c-0.55,0-1-0.45-1-1V5c0-0.55,0.45-1,1-1h31L48,12z"/>
		</g>
		<g>
			<path fill="#DC9600" d="M48,37v18H34c-1.1,0-2-0.9-2-2V39c0-1.1,0.9-2,2-2H48z"/>
		</g>
		<g>
			<path fill="#F0F0F0" d="M54,54H34c-1.105,0-2-0.895-2-2V38c0-1.105,0.895-2,2-2h20c1.105,0,2,0.895,2,2v14
				C56,53.105,55.105,54,54,54z"/>
		</g>
		<g>
			<g>
				<path fill="#0A5078" d="M52,41h-6c-0.552,0-1-0.448-1-1s0.448-1,1-1h6c0.552,0,1,0.448,1,1S52.552,41,52,41z"/>
			</g>
			<g>
				<path fill="#0A5078" d="M52,51h-6c-0.552,0-1-0.448-1-1s0.448-1,1-1h6c0.552,0,1,0.448,1,1S52.552,51,52,51z"/>
			</g>
			<g>
				<g>
					<path fill="#0A5078" d="M49,51c-0.552,0-1-0.448-1-1V40c0-0.552,0.448-1,1-1s1,0.448,1,1v10C50,50.552,49.552,51,49,51z"/>
				</g>
			</g>
		</g>
		<g>
			<g>
				<g>
					<path fill="#0A5078" d="M42,47h-6c-0.552,0-1-0.448-1-1v-3c0-2.206,1.794-4,4-4s4,1.794,4,4v3C43,46.552,42.552,47,42,47z
						 M37,45h4v-2c0-1.103-0.897-2-2-2s-2,0.897-2,2V45z"/>
				</g>
				<g>
					<path fill="#0A5078" d="M36,51c-0.552,0-1-0.448-1-1v-4c0-0.552,0.448-1,1-1s1,0.448,1,1v4C37,50.552,36.552,51,36,51z"/>
				</g>
			</g>
			<g>
				<path fill="#0A5078" d="M42,51c-0.552,0-1-0.448-1-1v-4c0-0.552,0.448-1,1-1s1,0.448,1,1v4C43,50.552,42.552,51,42,51z"/>
			</g>
		</g>
	</g>
	<g>
		<g>
			<g>
				<path fill="#00A0C8" d="M32,26c-0.552,0-1-0.448-1-1c0-4.411-3.589-8-8-8s-8,3.589-8,8c0,0.552-0.448,1-1,1s-1-0.448-1-1
					c0-5.514,4.486-10,10-10s10,4.486,10,10C33,25.552,32.552,26,32,26z"/>
			</g>
			<g>
				<g>
					<path fill="#0A5078" d="M34,17H12c-0.552,0-1-0.448-1-1s0.448-1,1-1h22c0.552,0,1,0.448,1,1S34.552,17,34,17z"/>
				</g>
			</g>
			<g>
				<circle fill="#00A0C8" cx="34" cy="16" r="2"/>
			</g>
			<g>
				<circle fill="#00A0C8" cx="12" cy="16" r="2"/>
			</g>
		</g>
		<g>
			<path fill="#C80A50" d="M24,18h-2c-0.552,0-1-0.448-1-1v-2c0-0.552,0.448-1,1-1h2c0.552,0,1,0.448,1,1v2
				C25,17.552,24.552,18,24,18z"/>
		</g>
		<g>
			<path fill="#C80A50" d="M15,28h-2c-0.552,0-1-0.448-1-1v-2c0-0.552,0.448-1,1-1h2c0.552,0,1,0.448,1,1v2
				C16,27.552,15.552,28,15,28z"/>
		</g>
		<g>
			<path fill="#C80A50" d="M33,28h-2c-0.552,0-1-0.448-1-1v-2c0-0.552,0.448-1,1-1h2c0.552,0,1,0.448,1,1v2
				C34,27.552,33.552,28,33,28z"/>
		</g>
		<g>
			<path fill="#F0F0F0" d="M26.387,23.652c-0.509,1.097-0.843,2.191-0.95,3.453C25.394,27.614,24.957,28,24.447,28h-2.893
				c-0.51,0-0.947-0.385-0.99-0.893c-0.108-1.273-0.448-2.374-0.952-3.468c-0.128-0.279-0.131-0.599,0.006-0.874l2.488-4.975
				c0.369-0.737,1.421-0.737,1.789,0.001l2.489,4.985C26.52,23.051,26.516,23.373,26.387,23.652z"/>
		</g>
		<g>
			<path fill="#D2D2D2" d="M24,28h-2v-6c0-0.552,0.448-1,1-1h0c0.552,0,1,0.448,1,1V28z"/>
		</g>
		<g>
			<path fill="#0A5078" d="M23,48L23,48c-1.657,0-3-1.343-3-3V30c0-1.105,0.895-2,2-2h2c1.105,0,2,0.895,2,2v15
				C26,46.657,24.657,48,23,48z"/>
		</g>
	</g>
	<g>
		<path fill="#DC9600" d="M48,12h-7c-0.552,0-1-0.448-1-1V4L48,12z"/>
	</g>
</g>
</svg>
