<?xml version="1.0" encoding="utf-8"?>
<!-- Generator: Adobe Illustrator 24.0.0, SVG Export Plug-In . SVG Version: 6.00 Build 0)  -->
<svg version="1.1" xmlns="http://www.w3.org/2000/svg" xmlns:xlink="http://www.w3.org/1999/xlink" x="0px" y="0px"
	 viewBox="0 0 64 64" enable-background="new 0 0 64 64" xml:space="preserve">
<g id="Captions">
</g>
<g id="Icons">
	<g>
		<g>
			<path fill="#C80A50" d="M50,12v47c0,0.55-0.45,1-1,1H9c-0.55,0-1-0.45-1-1V5c0-0.55,0.45-1,1-1h33L50,12z"/>
		</g>
		<g>
			<path fill="#F0F0F0" d="M50,12h-7c-0.55,0-1-0.45-1-1V4L50,12z"/>
		</g>
		<g>
			<path fill="#A00028" d="M50,39v18H24c-1.1,0-2-0.9-2-2V41c0-1.1,0.9-2,2-2H50z"/>
		</g>
		<g>
			<g>
				<path fill="#F0F0F0" d="M13,10h-2c-0.552,0-1-0.448-1-1V7c0-0.552,0.448-1,1-1h2c0.552,0,1,0.448,1,1v2
					C14,9.552,13.552,10,13,10z"/>
			</g>
			<g>
				<path fill="#F0F0F0" d="M13,18h-2c-0.552,0-1-0.448-1-1v-2c0-0.552,0.448-1,1-1h2c0.552,0,1,0.448,1,1v2
					C14,17.552,13.552,18,13,18z"/>
			</g>
			<g>
				<path fill="#F0F0F0" d="M13,26h-2c-0.552,0-1-0.448-1-1v-2c0-0.552,0.448-1,1-1h2c0.552,0,1,0.448,1,1v2
					C14,25.552,13.552,26,13,26z"/>
			</g>
			<g>
				<path fill="#F0F0F0" d="M13,34h-2c-0.552,0-1-0.448-1-1v-2c0-0.552,0.448-1,1-1h2c0.552,0,1,0.448,1,1v2
					C14,33.552,13.552,34,13,34z"/>
			</g>
			<g>
				<path fill="#F0F0F0" d="M13,42h-2c-0.552,0-1-0.448-1-1v-2c0-0.552,0.448-1,1-1h2c0.552,0,1,0.448,1,1v2
					C14,41.552,13.552,42,13,42z"/>
			</g>
			<g>
				<path fill="#F0F0F0" d="M13,50h-2c-0.552,0-1-0.448-1-1v-2c0-0.552,0.448-1,1-1h2c0.552,0,1,0.448,1,1v2
					C14,49.552,13.552,50,13,50z"/>
			</g>
			<g>
				<path fill="#F0F0F0" d="M13,58h-2c-0.552,0-1-0.448-1-1v-2c0-0.552,0.448-1,1-1h2c0.552,0,1,0.448,1,1v2
					C14,57.552,13.552,58,13,58z"/>
			</g>
		</g>
		<g>
			<g>
				<path fill="#F0F0F0" d="M47,18h-2c-0.552,0-1-0.448-1-1v-2c0-0.552,0.448-1,1-1h2c0.552,0,1,0.448,1,1v2
					C48,17.552,47.552,18,47,18z"/>
			</g>
			<g>
				<path fill="#F0F0F0" d="M47,26h-2c-0.552,0-1-0.448-1-1v-2c0-0.552,0.448-1,1-1h2c0.552,0,1,0.448,1,1v2
					C48,25.552,47.552,26,47,26z"/>
			</g>
			<g>
				<path fill="#F0F0F0" d="M47,34h-2c-0.552,0-1-0.448-1-1v-2c0-0.552,0.448-1,1-1h2c0.552,0,1,0.448,1,1v2
					C48,33.552,47.552,34,47,34z"/>
			</g>
		</g>
		<g>
			<g>
				<path fill="#F0F0F0" d="M54,56H24c-1.105,0-2-0.895-2-2V40c0-1.105,0.895-2,2-2h30c1.105,0,2,0.895,2,2v14
					C56,55.105,55.105,56,54,56z"/>
			</g>
		</g>
		<g>
			<g>
				<circle fill="#FAB400" cx="29" cy="23" r="11"/>
			</g>
			<g>
				<g>
					<path fill="#0A5078" d="M35.504,23.864l-9.015,5.259c-0.667,0.389-1.504-0.092-1.504-0.864V17.741
						c0-0.772,0.837-1.253,1.504-0.864l9.015,5.259C36.165,22.522,36.165,23.478,35.504,23.864z"/>
				</g>
			</g>
		</g>
	</g>
	<g>
		<g>
			<g>
				<g>
					<path fill="#0A5078" d="M32,49h-6c-0.552,0-1-0.448-1-1v-3c0-2.206,1.794-4,4-4s4,1.794,4,4v3C33,48.552,32.552,49,32,49z
						 M27,47h4v-2c0-1.103-0.897-2-2-2s-2,0.897-2,2V47z"/>
				</g>
				<g>
					<path fill="#0A5078" d="M26,53c-0.552,0-1-0.448-1-1v-4c0-0.552,0.448-1,1-1s1,0.448,1,1v4C27,52.552,26.552,53,26,53z"/>
				</g>
			</g>
			<g>
				<path fill="#0A5078" d="M32,53c-0.552,0-1-0.448-1-1v-4c0-0.552,0.448-1,1-1s1,0.448,1,1v4C33,52.552,32.552,53,32,53z"/>
			</g>
			<g>
				<path fill="#0A5078" d="M39,53c-0.441,0-0.831-0.29-0.958-0.712l-3-10c-0.158-0.529,0.142-1.087,0.671-1.246
					c0.531-0.158,1.086,0.142,1.245,0.67L39,48.52l2.042-6.807c0.158-0.529,0.713-0.831,1.245-0.67
					c0.529,0.159,0.829,0.716,0.671,1.246l-3,10C39.831,52.71,39.441,53,39,53z"/>
			</g>
		</g>
		<g>
			<g>
				<path fill="#0A5078" d="M49,53c-0.553,0-1-0.448-1-1V42c0-0.552,0.447-1,1-1s1,0.448,1,1v10C50,52.552,49.553,53,49,53z"/>
			</g>
		</g>
		<g>
			<path fill="#0A5078" d="M52,43h-6c-0.553,0-1-0.448-1-1s0.447-1,1-1h6c0.553,0,1,0.448,1,1S52.553,43,52,43z"/>
		</g>
		<g>
			<path fill="#0A5078" d="M52,53h-6c-0.553,0-1-0.448-1-1s0.447-1,1-1h6c0.553,0,1,0.448,1,1S52.553,53,52,53z"/>
		</g>
	</g>
</g>
</svg>
