<?xml version="1.0" encoding="utf-8"?>
<!-- Generator: Adobe Illustrator 24.0.0, SVG Export Plug-In . SVG Version: 6.00 Build 0)  -->
<svg version="1.1" xmlns="http://www.w3.org/2000/svg" xmlns:xlink="http://www.w3.org/1999/xlink" x="0px" y="0px"
	 viewBox="0 0 64 64" enable-background="new 0 0 64 64" xml:space="preserve">
<g id="Captions">
</g>
<g id="Icons">
	<g>
		<g>
			<g>
				<rect x="39" y="14" fill="#FAB400" width="3" height="4"/>
			</g>
			<g>
				<path fill="#0A5078" d="M42,17v38c0,0.55-0.45,1-1,1H12c-2.21,0-4-1.79-4-4V12l4,4h29C41.55,16,42,16.45,42,17z"/>
			</g>
			<g>
				<g>
					<path fill="#00325A" d="M42,33v18H24c-1.1,0-2-0.9-2-2V35c0-1.1,0.9-2,2-2H42z"/>
				</g>
			</g>
			<g>
				<path fill="#00325A" d="M12,56c-2.21,0-4-1.79-4-4V12l4,4V56z"/>
			</g>
			<g>
				<path fill="#FAB400" d="M42,9v7l-29.825,0c-2.093,0-3.963-1.532-4.157-3.616C7.795,9.999,9.674,8,12,8h29C41.55,8,42,8.45,42,9z
					"/>
			</g>
		</g>
		<g>
			<g>
				<path fill="#FAB400" d="M54,50H24c-1.105,0-2-0.895-2-2V34c0-1.105,0.895-2,2-2h30c1.105,0,2,0.895,2,2v14
					C56,49.105,55.105,50,54,50z"/>
			</g>
		</g>
		<g>
			<g>
				<path fill="#0A5078" d="M52,47c-0.345,0-0.674-0.179-0.857-0.485L49,42.944l-2.143,3.571c-0.231,0.386-0.696,0.569-1.124,0.449
					C45.3,46.844,45,46.45,45,46V36c0-0.552,0.447-1,1-1s1,0.448,1,1v6.39l1.143-1.904c0.361-0.603,1.354-0.603,1.715,0L51,42.39V36
					c0-0.552,0.447-1,1-1s1,0.448,1,1v10c0,0.45-0.3,0.844-0.733,0.964C52.179,46.988,52.089,47,52,47z"/>
			</g>
		</g>
		<g>
			<g>
				<g>
					<path fill="#0A5078" d="M32,43h-6c-0.553,0-1-0.448-1-1v-3c0-2.206,1.794-4,4-4s4,1.794,4,4v3C33,42.552,32.553,43,32,43z
						 M27,41h4v-2c0-1.103-0.897-2-2-2s-2,0.897-2,2V41z"/>
				</g>
				<g>
					<path fill="#0A5078" d="M26,47c-0.553,0-1-0.448-1-1v-4c0-0.552,0.447-1,1-1s1,0.448,1,1v4C27,46.552,26.553,47,26,47z"/>
				</g>
			</g>
			<g>
				<path fill="#0A5078" d="M32,47c-0.553,0-1-0.448-1-1v-4c0-0.552,0.447-1,1-1s1,0.448,1,1v4C33,46.552,32.553,47,32,47z"/>
			</g>
		</g>
		<g>
			<g>
				<path fill="#F0F0F0" d="M20,22L20,22c0,0.552,0.448,1,1,1h12c0.552,0,1-0.448,1-1v0c0-0.552-0.448-1-1-1H21
					C20.448,21,20,21.448,20,22z"/>
			</g>
			<g>
				<path fill="#F0F0F0" d="M20,26L20,26c0,0.552,0.448,1,1,1h12c0.552,0,1-0.448,1-1v0c0-0.552-0.448-1-1-1H21
					C20.448,25,20,25.448,20,26z"/>
			</g>
		</g>
		<g>
			<path fill="#0A5078" d="M42,47h-6c-0.36,0-0.692-0.194-0.87-0.507s-0.173-0.698,0.013-1.007L40.233,37H36c-0.553,0-1-0.448-1-1
				s0.447-1,1-1h6c0.36,0,0.692,0.194,0.87,0.507s0.173,0.698-0.013,1.007L37.767,45H42c0.553,0,1,0.448,1,1S42.553,47,42,47z"/>
		</g>
	</g>
</g>
</svg>
