<?xml version="1.0" encoding="utf-8"?>
<!-- Generator: Adobe Illustrator 24.0.0, SVG Export Plug-In . SVG Version: 6.00 Build 0)  -->
<svg version="1.1" xmlns="http://www.w3.org/2000/svg" xmlns:xlink="http://www.w3.org/1999/xlink" x="0px" y="0px"
	 viewBox="0 0 64 64" enable-background="new 0 0 64 64" xml:space="preserve">
<g id="Captions">
</g>
<g id="Icons">
	<g>
		<g>
			<path fill="#00A0C8" d="M50,10v44c0,1.1-0.9,2-2,2H10c-1.1,0-2-0.9-2-2V10c0-1.1,0.9-2,2-2h38C49.1,8,50,8.9,50,10z"/>
		</g>
		<g>
			<path fill="#0082AA" d="M50,30v18H24c-1.1,0-2-0.9-2-2V32c0-1.1,0.9-2,2-2H50z"/>
		</g>
		<g>
			<path fill="#0A5078" d="M48,16.5V50c0,0.55-0.45,1-1,1H11c-0.55,0-1-0.45-1-1V16.5c0-0.55,0.45-1,1-1h36
				C47.55,15.5,48,15.95,48,16.5z"/>
		</g>
		<g>
			<path fill="#00325A" d="M48,30v18H24c-1.1,0-2-0.9-2-2V32c0-1.1,0.9-2,2-2H48z"/>
		</g>
		<g>
			<circle fill="#C80A50" cx="47" cy="12" r="1"/>
		</g>
		<g>
			<circle fill="#FAB400" cx="43" cy="12" r="1"/>
		</g>
		<g>
			<circle fill="#F0F0F0" cx="39" cy="12" r="1"/>
		</g>
		<g>
			<g>
				<path fill="#FAB400" d="M54,47H24c-1.105,0-2-0.895-2-2V31c0-1.105,0.895-2,2-2h30c1.105,0,2,0.895,2,2v14
					C56,46.105,55.105,47,54,47z"/>
			</g>
		</g>
		<g>
			<path fill="#F0F0F0" d="M17,27c-1.654,0-3-1.346-3-3v-2c0-1.654,1.346-3,3-3s3,1.346,3,3v2C20,25.654,18.654,27,17,27z M17,21
				c-0.551,0-1,0.448-1,1v2c0,0.552,0.449,1,1,1s1-0.448,1-1v-2C18,21.448,17.551,21,17,21z"/>
		</g>
		<g>
			<path fill="#F0F0F0" d="M17,47c-1.654,0-3-1.346-3-3v-2c0-1.654,1.346-3,3-3s3,1.346,3,3v2C20,45.654,18.654,47,17,47z M17,41
				c-0.551,0-1,0.448-1,1v2c0,0.552,0.449,1,1,1s1-0.448,1-1v-2C18,41.448,17.551,41,17,41z"/>
		</g>
		<g>
			<g>
				<path fill="#F0F0F0" d="M23,23c-0.256,0-0.512-0.098-0.707-0.293c-0.391-0.391-0.391-1.023,0-1.414l2-2
					c0.391-0.391,1.023-0.391,1.414,0s0.391,1.023,0,1.414l-2,2C23.512,22.902,23.256,23,23,23z"/>
			</g>
			<g>
				<path fill="#F0F0F0" d="M25,27c-0.552,0-1-0.447-1-1v-6c0-0.553,0.448-1,1-1s1,0.447,1,1v6C26,26.553,25.552,27,25,27z"/>
			</g>
			<g>
				<path fill="#F0F0F0" d="M27,27h-4c-0.552,0-1-0.447-1-1s0.448-1,1-1h4c0.552,0,1,0.447,1,1S27.552,27,27,27z"/>
			</g>
		</g>
		<g>
			<g>
				<path fill="#F0F0F0" d="M15,33c-0.256,0-0.512-0.098-0.707-0.293c-0.391-0.391-0.391-1.023,0-1.414l2-2
					c0.391-0.391,1.023-0.391,1.414,0s0.391,1.023,0,1.414l-2,2C15.512,32.902,15.256,33,15,33z"/>
			</g>
			<g>
				<path fill="#F0F0F0" d="M17,37c-0.552,0-1-0.447-1-1v-6c0-0.553,0.448-1,1-1s1,0.447,1,1v6C18,36.553,17.552,37,17,37z"/>
			</g>
			<g>
				<path fill="#F0F0F0" d="M19,37h-4c-0.552,0-1-0.447-1-1s0.448-1,1-1h4c0.552,0,1,0.447,1,1S19.552,37,19,37z"/>
			</g>
		</g>
		<g>
			<path fill="#F0F0F0" d="M33,27c-1.654,0-3-1.346-3-3v-2c0-1.654,1.346-3,3-3s3,1.346,3,3v2C36,25.654,34.654,27,33,27z M33,21
				c-0.551,0-1,0.448-1,1v2c0,0.552,0.449,1,1,1s1-0.448,1-1v-2C34,21.448,33.551,21,33,21z"/>
		</g>
		<g>
			<g>
				<path fill="#F0F0F0" d="M39,23c-0.256,0-0.512-0.098-0.707-0.293c-0.391-0.391-0.391-1.023,0-1.414l2-2
					c0.391-0.391,1.023-0.391,1.414,0s0.391,1.023,0,1.414l-2,2C39.512,22.902,39.256,23,39,23z"/>
			</g>
			<g>
				<path fill="#F0F0F0" d="M41,27c-0.552,0-1-0.447-1-1v-6c0-0.553,0.448-1,1-1s1,0.447,1,1v6C42,26.553,41.552,27,41,27z"/>
			</g>
			<g>
				<path fill="#F0F0F0" d="M43,27h-4c-0.552,0-1-0.447-1-1s0.448-1,1-1h4c0.552,0,1,0.447,1,1S43.552,27,43,27z"/>
			</g>
		</g>
		<g>
			<g>
				<path fill="#F0F0F0" d="M23,23c-0.256,0-0.512-0.098-0.707-0.293c-0.391-0.391-0.391-1.023,0-1.414l2-2
					c0.391-0.391,1.023-0.391,1.414,0s0.391,1.023,0,1.414l-2,2C23.512,22.902,23.256,23,23,23z"/>
			</g>
			<g>
				<path fill="#F0F0F0" d="M25,27c-0.552,0-1-0.447-1-1v-6c0-0.553,0.448-1,1-1s1,0.447,1,1v6C26,26.553,25.552,27,25,27z"/>
			</g>
			<g>
				<path fill="#F0F0F0" d="M27,27h-4c-0.552,0-1-0.447-1-1s0.448-1,1-1h4c0.552,0,1,0.447,1,1S27.552,27,27,27z"/>
			</g>
		</g>
		<g>
			<g>
				<g>
					<g>
						<path fill="#0A5078" d="M29.5,44H26c-0.552,0-1-0.447-1-1V33c0-0.553,0.448-1,1-1h3.5c1.93,0,3.5,1.57,3.5,3.5
							c0,0.979-0.403,1.864-1.053,2.5C32.597,38.636,33,39.521,33,40.5C33,42.43,31.43,44,29.5,44z M27,42h2.5
							c0.827,0,1.5-0.673,1.5-1.5S30.327,39,29.5,39H27V42z M27,37h2.5c0.827,0,1.5-0.673,1.5-1.5S30.327,34,29.5,34H27V37z"/>
					</g>
				</g>
			</g>
			<g>
				<g>
					<path fill="#0A5078" d="M52,34h-6c-0.552,0-1-0.447-1-1s0.448-1,1-1h6c0.552,0,1,0.447,1,1S52.552,34,52,34z"/>
				</g>
				<g>
					<path fill="#0A5078" d="M49,44c-0.552,0-1-0.447-1-1V33c0-0.553,0.448-1,1-1s1,0.447,1,1v10C50,43.553,49.552,44,49,44z"/>
				</g>
			</g>
			<g>
				<g>
					<g>
						<path fill="#0A5078" d="M42,40h-6c-0.552,0-1-0.447-1-1v-3c0-2.206,1.794-4,4-4s4,1.794,4,4v3C43,39.553,42.552,40,42,40z
							 M37,38h4v-2c0-1.103-0.897-2-2-2s-2,0.897-2,2V38z"/>
					</g>
					<g>
						<path fill="#0A5078" d="M36,44c-0.552,0-1-0.447-1-1v-4c0-0.553,0.448-1,1-1s1,0.447,1,1v4C37,43.553,36.552,44,36,44z"/>
					</g>
				</g>
				<g>
					<path fill="#0A5078" d="M42,44c-0.552,0-1-0.447-1-1v-4c0-0.553,0.448-1,1-1s1,0.447,1,1v4C43,43.553,42.552,44,42,44z"/>
				</g>
			</g>
		</g>
	</g>
</g>
</svg>
