<?xml version="1.0" encoding="utf-8"?>
<!-- Generator: Adobe Illustrator 24.0.0, SVG Export Plug-In . SVG Version: 6.00 Build 0)  -->
<svg version="1.1" xmlns="http://www.w3.org/2000/svg" xmlns:xlink="http://www.w3.org/1999/xlink" x="0px" y="0px"
	 viewBox="0 0 64 64" enable-background="new 0 0 64 64" xml:space="preserve">
<g id="Captions">
</g>
<g id="Icons">
	<g>
		<g>
			<path fill="#F0F0F0" d="M48,16v43c0,0.55-0.45,1-1,1H9c-0.55,0-1-0.45-1-1V5c0-0.55,0.45-1,1-1h27L48,16z"/>
			<path fill="#D2D2D2" d="M48,16H37c-0.552,0-1-0.448-1-1V4L48,16z"/>
		</g>
		<g>
			<g>
				<path fill="#D2D2D2" d="M48,37v18H24c-1.1,0-2-0.9-2-2V39c0-1.1,0.9-2,2-2H48z"/>
			</g>
			<g>
				<path fill="#0A5078" d="M54,54H24c-1.105,0-2-0.895-2-2V38c0-1.105,0.895-2,2-2h30c1.105,0,2,0.895,2,2v14
					C56,53.105,55.105,54,54,54z"/>
			</g>
			<g>
				<g>
					<g>
						<path fill="#F0F0F0" d="M49,47h-3c-0.553,0-1-0.448-1-1v-6c0-0.552,0.447-1,1-1h3c2.206,0,4,1.794,4,4S51.206,47,49,47z
							 M47,45h2c1.103,0,2-0.897,2-2s-0.897-2-2-2h-2V45z"/>
					</g>
					<g>
						<path fill="#F0F0F0" d="M46,51c-0.553,0-1-0.448-1-1v-4c0-0.552,0.447-1,1-1s1,0.448,1,1v4C47,50.552,46.553,51,46,51z"/>
					</g>
				</g>
				<g>
					<path fill="#F0F0F0" d="M52.001,51c-0.367,0-0.72-0.202-0.896-0.553l-2-4c-0.247-0.494-0.047-1.095,0.447-1.342
						c0.494-0.247,1.094-0.047,1.342,0.447l2,4c0.247,0.494,0.047,1.095-0.447,1.342C52.304,50.966,52.151,51,52.001,51z"/>
				</g>
			</g>
			<g>
				<g>
					<path fill="#F0F0F0" d="M29,51c-2.206,0-4-1.794-4-4v-4c0-2.206,1.794-4,4-4s4,1.794,4,4c0,0.552-0.448,1-1,1s-1-0.448-1-1
						c0-1.103-0.897-2-2-2s-2,0.897-2,2v4c0,1.103,0.897,2,2,2s2-0.897,2-2c0-0.552,0.448-1,1-1s1,0.448,1,1
						C33,49.206,31.206,51,29,51z"/>
				</g>
			</g>
			<g>
				<g>
					<path fill="#F0F0F0" d="M38,51h-2c-0.553,0-1-0.448-1-1V40c0-0.552,0.447-1,1-1h2c2.757,0,5,2.243,5,5v2
						C43,48.757,40.757,51,38,51z M37,49h1c1.654,0,3-1.346,3-3v-2c0-1.654-1.346-3-3-3h-1V49z"/>
				</g>
			</g>
			<g>
				<g>
					<path fill="#FAB400" d="M23,32c-5.514,0-10-4.486-10-10c0-0.552,0.448-1,1-1s1,0.448,1,1c0,4.411,3.589,8,8,8s8-3.589,8-8
						c0-0.552,0.448-1,1-1s1,0.448,1,1C33,27.514,28.514,32,23,32z"/>
				</g>
				<g>
					<g>
						<path fill="#0A5078" d="M34,32H12c-0.552,0-1-0.448-1-1s0.448-1,1-1h22c0.553,0,1,0.448,1,1S34.553,32,34,32z"/>
					</g>
				</g>
				<g>
					<circle fill="#C80A50" cx="12" cy="31" r="2"/>
				</g>
				<g>
					<circle fill="#C80A50" cx="34" cy="31" r="2"/>
				</g>
			</g>
			<g>
				<path fill="#00A0C8" d="M15,24h-2c-0.552,0-1-0.448-1-1v-2c0-0.552,0.448-1,1-1h2c0.552,0,1,0.448,1,1v2
					C16,23.552,15.552,24,15,24z"/>
			</g>
			<g>
				<path fill="#00A0C8" d="M24,33h-2c-0.552,0-1-0.448-1-1v-2c0-0.552,0.448-1,1-1h2c0.552,0,1,0.448,1,1v2
					C25,32.552,24.552,33,24,33z"/>
			</g>
			<g>
				<path fill="#00A0C8" d="M33,24h-2c-0.552,0-1-0.448-1-1v-2c0-0.552,0.448-1,1-1h2c0.552,0,1,0.448,1,1v2
					C34,23.552,33.552,24,33,24z"/>
			</g>
			<g>
				<g>
					<path fill="#F0C8A0" d="M27,24l-3.106,6.211c-0.369,0.737-1.42,0.737-1.789,0L19,24H27z"/>
				</g>
				<g>
					<path fill="#0A5078" d="M25,28l-1.106,2.211c-0.369,0.737-1.42,0.737-1.789,0L21,28H25z"/>
				</g>
				<g>
					<g>
						<rect x="19" y="15" fill="#00A0C8" width="8" height="9"/>
					</g>
					<g>
						<rect x="22" y="15" fill="#F0F0F0" width="2" height="9"/>
					</g>
				</g>
				<g>
					<path fill="#C80A50" d="M27,15h-8v-5c0-1.105,0.895-2,2-2h4c1.105,0,2,0.895,2,2V15z"/>
				</g>
				<g>
					<rect x="19" y="13" fill="#FAB400" width="8" height="2"/>
				</g>
			</g>
		</g>
	</g>
</g>
</svg>
