<?xml version="1.0" encoding="utf-8"?>
<!-- Generator: Adobe Illustrator 24.0.0, SVG Export Plug-In . SVG Version: 6.00 Build 0)  -->
<svg version="1.1" xmlns="http://www.w3.org/2000/svg" xmlns:xlink="http://www.w3.org/1999/xlink" x="0px" y="0px"
	 viewBox="0 0 64 64" enable-background="new 0 0 64 64" xml:space="preserve">
<g id="Captions">
</g>
<g id="Icons">
	<g>
		<g>
			<path fill="#F0F0F0" d="M48,16v43c0,0.55-0.45,1-1,1H9c-0.55,0-1-0.45-1-1V5c0-0.55,0.45-1,1-1h27L48,16z"/>
		</g>
		<g>
			<path fill="#D2D2D2" d="M48,37v18H24c-1.1,0-2-0.9-2-2V39c0-1.1,0.9-2,2-2H48z"/>
		</g>
		<g>
			<path fill="#0A5078" d="M54,54H24c-1.105,0-2-0.895-2-2V38c0-1.105,0.895-2,2-2h30c1.105,0,2,0.895,2,2v14
				C56,53.105,55.105,54,54,54z"/>
		</g>
		<g>
			<path fill="#D2D2D2" d="M48,16H37c-0.552,0-1-0.448-1-1V4L48,16z"/>
		</g>
		<g>
			<g>
				<path fill="#F0F0F0" d="M29,51c-2.206,0-4-1.794-4-4v-4c0-2.206,1.794-4,4-4s4,1.794,4,4c0,0.552-0.448,1-1,1s-1-0.448-1-1
					c0-1.103-0.897-2-2-2s-2,0.897-2,2v4c0,1.103,0.897,2,2,2s2-0.897,2-2c0-0.552,0.448-1,1-1s1,0.448,1,1
					C33,49.206,31.206,51,29,51z"/>
			</g>
		</g>
		<g>
			<g>
				<path fill="#F0F0F0" d="M49.837,51h-1.674C46.419,51,45,49.581,45,47.837c0-0.552,0.448-1,1-1s1,0.448,1,1
					C47,48.478,47.522,49,48.163,49h1.674C50.478,49,51,48.478,51,47.837c0-0.443-0.246-0.842-0.643-1.04l-3.609-1.805
					C45.67,44.453,45,43.369,45,42.163C45,40.419,46.419,39,48.163,39h1.674C51.581,39,53,40.419,53,42.163c0,0.552-0.448,1-1,1
					s-1-0.448-1-1C51,41.522,50.478,41,49.837,41h-1.674C47.522,41,47,41.522,47,42.163c0,0.443,0.246,0.842,0.643,1.04l3.609,1.805
					C52.33,45.547,53,46.631,53,47.837C53,49.581,51.581,51,49.837,51z"/>
			</g>
		</g>
		<g>
			<g>
				<path fill="#F0F0F0" d="M39.837,51h-1.674C36.419,51,35,49.581,35,47.837c0-0.552,0.448-1,1-1s1,0.448,1,1
					C37,48.478,37.522,49,38.163,49h1.674C40.478,49,41,48.478,41,47.837c0-0.443-0.246-0.842-0.643-1.04l-3.609-1.805
					C35.67,44.453,35,43.369,35,42.163C35,40.419,36.419,39,38.163,39h1.674C41.581,39,43,40.419,43,42.163c0,0.552-0.448,1-1,1
					s-1-0.448-1-1C41,41.522,40.478,41,39.837,41h-1.674C37.522,41,37,41.522,37,42.163c0,0.443,0.246,0.842,0.643,1.04l3.609,1.805
					C42.33,45.547,43,46.631,43,47.837C43,49.581,41.581,51,39.837,51z"/>
			</g>
		</g>
		<g>
			<g>
				<path fill="#C80A50" d="M16,30c-1.654,0-3-1.346-3-3V17c0-1.654,1.346-3,3-3c0.552,0,1,0.448,1,1s-0.448,1-1,1
					c-0.551,0-1,0.449-1,1v10c0,0.551,0.449,1,1,1c0.552,0,1,0.448,1,1S16.552,30,16,30z"/>
			</g>
			<g>
				<path fill="#C80A50" d="M28,30c-0.552,0-1-0.448-1-1s0.448-1,1-1c0.551,0,1-0.449,1-1V17c0-0.551-0.449-1-1-1
					c-0.552,0-1-0.448-1-1s0.448-1,1-1c1.654,0,3,1.346,3,3v10C31,28.654,29.654,30,28,30z"/>
			</g>
			<g>
				<g>
					<g>
						<path fill="#C80A50" d="M14,23h-2c-0.552,0-1-0.448-1-1s0.448-1,1-1h2c0.552,0,1,0.448,1,1S14.552,23,14,23z"/>
					</g>
				</g>
				<g>
					<g>
						<path fill="#C80A50" d="M32,23h-2c-0.552,0-1-0.448-1-1s0.448-1,1-1h2c0.552,0,1,0.448,1,1S32.552,23,32,23z"/>
					</g>
				</g>
			</g>
		</g>
		<g>
			<path fill="#FAB400" d="M25,18h-6v-5c0-0.552,0.448-1,1-1h4c0.552,0,1,0.448,1,1V18z"/>
		</g>
		<g>
			<path fill="#00A0C8" d="M19,18v2.59c0,0.26,0.11,0.52,0.29,0.7l0.42,0.42c0.18,0.18,0.29,0.44,0.29,0.7V30c0,1.1,0.9,2,2,2
				c1.095,0,2-0.893,2-2v-7.59c0-0.26,0.11-0.52,0.29-0.7l0.42-0.42c0.18-0.18,0.29-0.44,0.29-0.7V18H19z M22,31c-0.55,0-1-0.45-1-1
				s0.45-1,1-1s1,0.45,1,1S22.55,31,22,31z"/>
		</g>
		<g>
			<rect x="20" y="12" fill="#DC9600" width="1" height="6"/>
		</g>
		<g>
			<rect x="23" y="12" fill="#DC9600" width="1" height="6"/>
		</g>
		<g>
			<rect x="19" y="17" fill="#0A5078" width="6" height="2"/>
		</g>
	</g>
</g>
</svg>
