<?xml version="1.0" encoding="utf-8"?>
<!-- Generator: Adobe Illustrator 24.0.0, SVG Export Plug-In . SVG Version: 6.00 Build 0)  -->
<svg version="1.1" xmlns="http://www.w3.org/2000/svg" xmlns:xlink="http://www.w3.org/1999/xlink" x="0px" y="0px"
	 viewBox="0 0 64 64" enable-background="new 0 0 64 64" xml:space="preserve">
<g id="Captions">
</g>
<g id="Icons">
	<g>
		<g>
			<path fill="#0A5078" d="M22,22c-0.552,0-1-0.448-1-1v-9c0-1.654-1.346-3-3-3c-0.552,0-1-0.448-1-1s0.448-1,1-1
				c2.757,0,5,2.243,5,5v9C23,21.552,22.552,22,22,22z"/>
		</g>
		<g>
			<path fill="#F0F0F0" d="M44,25v30c0,0.55-0.45,1-1,1H9c-0.55,0-1-0.45-1-1V14c0-0.55,0.45-1,1-1h23L44,25z"/>
		</g>
		<g>
			<path fill="#D2D2D2" d="M44,33v18H14c-1.1,0-2-0.9-2-2V35c0-1.1,0.9-2,2-2H44z"/>
		</g>
		<g>
			<path fill="#00A0C8" d="M54,50H14c-1.105,0-2-0.895-2-2V34c0-1.105,0.895-2,2-2h40c1.105,0,2,0.895,2,2v14
				C56,49.105,55.105,50,54,50z"/>
		</g>
		<g>
			<path fill="#F0F0F0" d="M39,47c-0.441,0-0.831-0.29-0.958-0.713l-3-10c-0.158-0.529,0.142-1.086,0.671-1.245
				c0.531-0.158,1.086,0.142,1.245,0.671L39,42.52l2.042-6.807c0.158-0.529,0.713-0.832,1.245-0.671
				c0.529,0.159,0.829,0.716,0.671,1.245l-3,10C39.831,46.71,39.441,47,39,47z"/>
		</g>
		<g>
			<path fill="#F0F0F0" d="M18,47h-2c-0.552,0-1-0.448-1-1V36c0-0.552,0.448-1,1-1h2c2.757,0,5,2.243,5,5v2
				C23,44.757,20.757,47,18,47z M17,45h1c1.654,0,3-1.346,3-3v-2c0-1.654-1.346-3-3-3h-1V45z"/>
		</g>
		<g>
			<path fill="#F0F0F0" d="M29,47c-2.206,0-4-1.794-4-4c0-0.552,0.448-1,1-1s1,0.448,1,1c0,1.103,0.897,2,2,2s2-0.897,2-2v-6h-5
				c-0.552,0-1-0.448-1-1s0.448-1,1-1h6c0.552,0,1,0.448,1,1v7C33,45.206,31.206,47,29,47z"/>
		</g>
		<g>
			<path fill="#D2D2D2" d="M44,25H33c-0.552,0-1-0.448-1-1V13L44,25z"/>
		</g>
		<g>
			<g>
				<path fill="#F0F0F0" d="M49,48c-2.206,0-4-1.794-4-4v-8c0-0.552,0.447-1,1-1s1,0.448,1,1v8c0,1.103,0.897,2,2,2s2-0.897,2-2v-8
					c0-0.552,0.447-1,1-1s1,0.448,1,1v8C53,46.206,51.206,48,49,48z"/>
			</g>
		</g>
		<g>
			<path fill="#0A5078" d="M16,26c-1.654,0-3-1.346-3-3V12c0-2.757,2.243-5,5-5c0.552,0,1,0.448,1,1s-0.448,1-1,1
				c-1.654,0-3,1.346-3,3v11c0,0.551,0.449,1,1,1s1-0.449,1-1v-6c0-0.552,0.448-1,1-1s1,0.448,1,1v6C19,24.654,17.654,26,16,26z"/>
		</g>
	</g>
</g>
</svg>
