<?xml version="1.0" encoding="utf-8"?>
<!-- Generator: Adobe Illustrator 24.0.0, SVG Export Plug-In . SVG Version: 6.00 Build 0)  -->
<svg version="1.1" xmlns="http://www.w3.org/2000/svg" xmlns:xlink="http://www.w3.org/1999/xlink" x="0px" y="0px"
	 viewBox="0 0 64 64" enable-background="new 0 0 64 64" xml:space="preserve">
<g id="Captions">
</g>
<g id="Icons">
	<g>
		<path fill="#F0F0F0" d="M48,16v43c0,0.55-0.45,1-1,1H9c-0.55,0-1-0.45-1-1V5c0-0.55,0.45-1,1-1h27L48,16z"/>
	</g>
	<g>
		<path fill="#D2D2D2" d="M48,37v18H24c-1.1,0-2-0.9-2-2V39c0-1.1,0.9-2,2-2H48z"/>
	</g>
	<g>
		<path fill="#0A5078" d="M54,54H24c-1.105,0-2-0.895-2-2V38c0-1.105,0.895-2,2-2h30c1.105,0,2,0.895,2,2v14
			C56,53.105,55.105,54,54,54z"/>
	</g>
	<g>
		<path fill="#D2D2D2" d="M48,16H37c-0.552,0-1-0.448-1-1V4L48,16z"/>
	</g>
	<g>
		<g>
			<path fill="#F0F0F0" d="M32,46h-6c-0.552,0-1-0.448-1-1v-5c0-0.552,0.448-1,1-1h6c0.552,0,1,0.448,1,1s-0.448,1-1,1h-5v3h5
				c0.552,0,1,0.448,1,1S32.552,46,32,46z"/>
		</g>
		<g>
			<path fill="#F0F0F0" d="M32,51h-6c-0.552,0-1-0.448-1-1v-5c0-0.552,0.448-1,1-1s1,0.448,1,1v4h5c0.552,0,1,0.448,1,1
				S32.552,51,32,51z"/>
		</g>
	</g>
	<g>
		<g>
			<path fill="#F0F0F0" d="M39,47h-3c-0.552,0-1-0.448-1-1v-6c0-0.552,0.448-1,1-1h3c2.206,0,4,1.794,4,4S41.206,47,39,47z M37,45h2
				c1.103,0,2-0.897,2-2s-0.897-2-2-2h-2V45z"/>
		</g>
		<g>
			<path fill="#F0F0F0" d="M36,51c-0.552,0-1-0.448-1-1v-4c0-0.552,0.448-1,1-1s1,0.448,1,1v4C37,50.552,36.552,51,36,51z"/>
		</g>
	</g>
	<g>
		<g>
			<path fill="#F0F0F0" d="M49.837,51h-1.674C46.419,51,45,49.581,45,47.837c0-0.552,0.448-1,1-1s1,0.448,1,1
				C47,48.478,47.522,49,48.163,49h1.674C50.478,49,51,48.478,51,47.837c0-0.443-0.246-0.842-0.643-1.04l-3.609-1.805
				C45.67,44.453,45,43.369,45,42.163C45,40.419,46.419,39,48.163,39h1.674C51.581,39,53,40.419,53,42.163c0,0.552-0.448,1-1,1
				s-1-0.448-1-1C51,41.522,50.478,41,49.837,41h-1.674C47.522,41,47,41.522,47,42.163c0,0.443,0.246,0.842,0.643,1.04l3.609,1.805
				C52.33,45.547,53,46.631,53,47.837C53,49.581,51.581,51,49.837,51z"/>
		</g>
	</g>
	<g>
		<path fill="#C80A50" d="M34,30c-0.552,0-1-0.448-1-1c0-4.411-3.589-8-8-8s-8,3.589-8,8c0,0.552-0.448,1-1,1s-1-0.448-1-1
			c0-5.514,4.486-10,10-10s10,4.486,10,10C35,29.552,34.552,30,34,30z"/>
	</g>
	<g>
		<g>
			<path fill="#0A5078" d="M36,21H14c-0.552,0-1-0.448-1-1s0.448-1,1-1h22c0.552,0,1,0.448,1,1S36.552,21,36,21z"/>
		</g>
	</g>
	<g>
		<path fill="#00A0C8" d="M26,22h-2c-0.552,0-1-0.448-1-1v-2c0-0.552,0.448-1,1-1h2c0.552,0,1,0.448,1,1v2
			C27,21.552,26.552,22,26,22z"/>
	</g>
	<g>
		<path fill="#00A0C8" d="M17,33h-2c-0.552,0-1-0.448-1-1v-2c0-0.552,0.448-1,1-1h2c0.552,0,1,0.448,1,1v2
			C18,32.552,17.552,33,17,33z"/>
	</g>
	<g>
		<path fill="#00A0C8" d="M35,33h-2c-0.552,0-1-0.448-1-1v-2c0-0.552,0.448-1,1-1h2c0.552,0,1,0.448,1,1v2
			C36,32.552,35.552,33,35,33z"/>
	</g>
	<g>
		<circle fill="#FAB400" cx="36" cy="20" r="2"/>
	</g>
	<g>
		<circle fill="#FAB400" cx="14" cy="20" r="2"/>
	</g>
</g>
</svg>
