<?xml version="1.0" encoding="utf-8"?>
<!-- Generator: Adobe Illustrator 24.0.0, SVG Export Plug-In . SVG Version: 6.00 Build 0)  -->
<svg version="1.1" xmlns="http://www.w3.org/2000/svg" xmlns:xlink="http://www.w3.org/1999/xlink" x="0px" y="0px"
	 viewBox="0 0 64 64" enable-background="new 0 0 64 64" xml:space="preserve">
<g id="Captions">
</g>
<g id="Icons">
	<g>
		<g>
			<g>
				<rect x="39" y="14" fill="#FAB400" width="3" height="4"/>
			</g>
			<g>
				<path fill="#00A0C8" d="M42,17v38c0,0.55-0.45,1-1,1H12c-2.21,0-4-1.79-4-4V12l4,4h29C41.55,16,42,16.45,42,17z"/>
			</g>
			<g>
				<g>
					<path fill="#F0F0F0" d="M20,22L20,22c0,0.552,0.448,1,1,1h12c0.552,0,1-0.448,1-1v0c0-0.552-0.448-1-1-1H21
						C20.448,21,20,21.448,20,22z"/>
				</g>
				<g>
					<path fill="#F0F0F0" d="M20,26L20,26c0,0.552,0.448,1,1,1h12c0.552,0,1-0.448,1-1v0c0-0.552-0.448-1-1-1H21
						C20.448,25,20,25.448,20,26z"/>
				</g>
			</g>
			<g>
				<g>
					<path fill="#0082AA" d="M42,33v18H16c-1.1,0-2-0.9-2-2V35c0-1.1,0.9-2,2-2H42z"/>
				</g>
			</g>
			<g>
				<path fill="#0082AA" d="M12,56c-2.21,0-4-1.79-4-4V12l4,4V56z"/>
			</g>
			<g>
				<path fill="#FAB400" d="M42,9v7l-29.825,0c-2.093,0-3.963-1.532-4.157-3.616C7.795,9.999,9.674,8,12,8h29C41.55,8,42,8.45,42,9z
					"/>
			</g>
		</g>
		<g>
			<g>
				<path fill="#FAB400" d="M54,50H16c-1.105,0-2-0.895-2-2V34c0-1.105,0.895-2,2-2h38c1.105,0,2,0.895,2,2v14
					C56,49.105,55.105,50,54,50z"/>
			</g>
		</g>
		<g>
			<g>
				<g>
					<g>
						<path fill="#0A5078" d="M23,47h-6c-0.552,0-1-0.448-1-1V36c0-0.552,0.448-1,1-1h6c0.552,0,1,0.448,1,1s-0.448,1-1,1h-5v8h5
							c0.552,0,1,0.448,1,1S23.552,47,23,47z"/>
					</g>
				</g>
				<g>
					<path fill="#0A5078" d="M23,42h-6c-0.552,0-1-0.448-1-1s0.448-1,1-1h6c0.552,0,1,0.448,1,1S23.552,42,23,42z"/>
				</g>
				<g>
					<g>
						<path fill="#0A5078" d="M30,43h-3c-0.552,0-1-0.448-1-1v-6c0-0.552,0.448-1,1-1h3c2.206,0,4,1.794,4,4S32.206,43,30,43z
							 M28,41h2c1.103,0,2-0.897,2-2s-0.897-2-2-2h-2V41z"/>
					</g>
					<g>
						<path fill="#0A5078" d="M27,47c-0.552,0-1-0.448-1-1v-4c0-0.552,0.448-1,1-1s1,0.448,1,1v4C28,46.552,27.552,47,27,47z"/>
					</g>
				</g>
			</g>
			<g>
				<g>
					<g>
						<path fill="#0A5078" d="M50.5,47H47c-0.552,0-1-0.448-1-1V36c0-0.552,0.448-1,1-1h3.5c1.93,0,3.5,1.57,3.5,3.5
							c0,0.979-0.403,1.864-1.053,2.5C53.597,41.636,54,42.521,54,43.5C54,45.43,52.43,47,50.5,47z M48,45h2.5
							c0.827,0,1.5-0.673,1.5-1.5S51.327,42,50.5,42H48V45z M48,40h2.5c0.827,0,1.5-0.673,1.5-1.5S51.327,37,50.5,37H48V40z"/>
					</g>
				</g>
			</g>
			<g>
				<path fill="#0A5078" d="M40,47c-2.206,0-4-1.794-4-4v-7c0-0.552,0.448-1,1-1s1,0.448,1,1v7c0,1.103,0.897,2,2,2s2-0.897,2-2v-7
					c0-0.552,0.448-1,1-1s1,0.448,1,1v7C44,45.206,42.206,47,40,47z"/>
			</g>
		</g>
	</g>
</g>
</svg>
