<?xml version="1.0" encoding="utf-8"?>
<!-- Generator: Adobe Illustrator 24.0.0, SVG Export Plug-In . SVG Version: 6.00 Build 0)  -->
<svg version="1.1" xmlns="http://www.w3.org/2000/svg" xmlns:xlink="http://www.w3.org/1999/xlink" x="0px" y="0px"
	 viewBox="0 0 64 64" enable-background="new 0 0 64 64" xml:space="preserve">
<g id="Captions">
</g>
<g id="Icons">
	<g>
		<g>
			<path fill="#F0F0F0" d="M48,16v43c0,0.55-0.45,1-1,1H9c-0.55,0-1-0.45-1-1V5c0-0.55,0.45-1,1-1h27L48,16z"/>
		</g>
		<g>
			<path fill="#D2D2D2" d="M48,36v18H14c-1.1,0-2-0.9-2-2V38c0-1.1,0.9-2,2-2H48z"/>
		</g>
		<g>
			<path fill="#D2D2D2" d="M48,16H37c-0.552,0-1-0.448-1-1V4L48,16z"/>
		</g>
		<g>
			<g>
				<path fill="#0A5078" d="M14,25c-0.552,0-1-0.448-1-1v-4c0-0.552,0.448-1,1-1s1,0.448,1,1v4C15,24.552,14.552,25,14,25z"/>
			</g>
			<g>
				<path fill="#0A5078" d="M18,28c-0.552,0-1-0.448-1-1V17c0-0.552,0.448-1,1-1s1,0.448,1,1v10C19,27.552,18.552,28,18,28z"/>
			</g>
			<g>
				<path fill="#0A5078" d="M30,25c-0.552,0-1-0.448-1-1v-4c0-0.552,0.448-1,1-1s1,0.448,1,1v4C31,24.552,30.552,25,30,25z"/>
			</g>
			<g>
				<path fill="#0A5078" d="M26,28c-0.552,0-1-0.448-1-1V17c0-0.552,0.448-1,1-1s1,0.448,1,1v10C27,27.552,26.552,28,26,28z"/>
			</g>
			<g>
				<path fill="#0A5078" d="M22,30c-0.552,0-1-0.448-1-1V15c0-0.552,0.448-1,1-1s1,0.448,1,1v14C23,29.552,22.552,30,22,30z"/>
			</g>
		</g>
		<g>
			<g>
				<path fill="#C80A50" d="M54,53H14c-1.105,0-2-0.895-2-2V37c0-1.105,0.895-2,2-2h40c1.105,0,2,0.895,2,2v14
					C56,52.105,55.105,53,54,53z"/>
			</g>
			<g>
				<g>
					<path fill="#F0F0F0" d="M49,50c-2.206,0-4-1.794-4-4v-4c0-2.206,1.794-4,4-4s4,1.794,4,4c0,0.552-0.448,1-1,1s-1-0.448-1-1
						c0-1.103-0.897-2-2-2s-2,0.897-2,2v4c0,1.103,0.897,2,2,2s2-0.897,2-2c0-0.552,0.448-1,1-1s1,0.448,1,1
						C53,48.206,51.206,50,49,50z"/>
				</g>
			</g>
			<g>
				<g>
					<g>
						<g>
							<g>
								<path fill="#F0F0F0" d="M42,46h-6c-0.552,0-1-0.448-1-1v-3c0-2.206,1.794-4,4-4s4,1.794,4,4v3C43,45.552,42.552,46,42,46z
									 M37,44h4v-2c0-1.103-0.897-2-2-2s-2,0.897-2,2V44z"/>
							</g>
							<g>
								<path fill="#F0F0F0" d="M36,50c-0.552,0-1-0.448-1-1v-4c0-0.552,0.448-1,1-1s1,0.448,1,1v4C37,49.552,36.552,50,36,50z"/>
							</g>
						</g>
						<g>
							<path fill="#F0F0F0" d="M42,50c-0.552,0-1-0.448-1-1v-4c0-0.552,0.448-1,1-1s1,0.448,1,1v4C43,49.552,42.552,50,42,50z"/>
						</g>
					</g>
					<g>
						<g>
							<path fill="#F0F0F0" d="M32,50h-6c-0.552,0-1-0.448-1-1V39c0-0.552,0.448-1,1-1s1,0.448,1,1v9h5c0.552,0,1,0.448,1,1
								S32.552,50,32,50z"/>
						</g>
					</g>
					<g>
						<g>
							<path fill="#F0F0F0" d="M22,46h-6c-0.552,0-1-0.448-1-1v-6c0-0.552,0.448-1,1-1h6c0.552,0,1,0.448,1,1s-0.448,1-1,1h-5v4h5
								c0.552,0,1,0.448,1,1S22.552,46,22,46z"/>
						</g>
						<g>
							<path fill="#F0F0F0" d="M16,50c-0.552,0-1-0.448-1-1v-4c0-0.552,0.448-1,1-1s1,0.448,1,1v4C17,49.552,16.552,50,16,50z"/>
						</g>
					</g>
				</g>
			</g>
		</g>
	</g>
</g>
</svg>
