<?xml version="1.0" encoding="utf-8"?>
<!-- Generator: Adobe Illustrator 24.0.0, SVG Export Plug-In . SVG Version: 6.00 Build 0)  -->
<svg version="1.1" xmlns="http://www.w3.org/2000/svg" xmlns:xlink="http://www.w3.org/1999/xlink" x="0px" y="0px"
	 viewBox="0 0 64 64" enable-background="new 0 0 64 64" xml:space="preserve">
<g id="Captions">
</g>
<g id="Icons">
	<g>
		<path fill="#F0F0F0" d="M48,16v43c0,0.55-0.45,1-1,1H9c-0.55,0-1-0.45-1-1V5c0-0.55,0.45-1,1-1h27L48,16z"/>
	</g>
	<g>
		<path fill="#D2D2D2" d="M48,37v18H24c-1.1,0-2-0.9-2-2V39c0-1.1,0.9-2,2-2H48z"/>
	</g>
	<g>
		<path fill="#00A0C8" d="M54,54H24c-1.105,0-2-0.895-2-2V38c0-1.105,0.895-2,2-2h30c1.105,0,2,0.895,2,2v14
			C56,53.105,55.105,54,54,54z"/>
	</g>
	<g>
		<path fill="#D2D2D2" d="M48,16H37c-0.552,0-1-0.448-1-1V4L48,16z"/>
	</g>
	<g>
		<g>
			<rect x="16" y="10" fill="#D2D2D2" width="4" height="4"/>
		</g>
		<g>
			<rect x="20" y="14" fill="#D2D2D2" width="4" height="4"/>
		</g>
		<g>
			<rect x="28" y="14" fill="#D2D2D2" width="4" height="4"/>
		</g>
		<g>
			<rect x="20" y="22" fill="#D2D2D2" width="4" height="4"/>
		</g>
		<g>
			<rect x="12" y="14" fill="#D2D2D2" width="4" height="4"/>
		</g>
		<g>
			<rect x="12" y="22" fill="#D2D2D2" width="4" height="4"/>
		</g>
		<g>
			<rect x="28" y="22" fill="#D2D2D2" width="4" height="4"/>
		</g>
		<g>
			<rect x="16" y="18" fill="#D2D2D2" width="4" height="4"/>
		</g>
		<g>
			<rect x="24" y="10" fill="#D2D2D2" width="4" height="4"/>
		</g>
		<g>
			<rect x="24" y="18" fill="#D2D2D2" width="4" height="4"/>
		</g>
		<g>
			<rect x="16" y="26" fill="#D2D2D2" width="4" height="4"/>
		</g>
		<g>
			<rect x="24" y="26" fill="#D2D2D2" width="4" height="4"/>
		</g>
	</g>
	<g>
		<g>
			<g>
				<path fill="#F0F0F0" d="M52,46h-6c-0.552,0-1-0.448-1-1v-5c0-0.552,0.448-1,1-1h6c0.552,0,1,0.448,1,1s-0.448,1-1,1h-5v3h5
					c0.552,0,1,0.448,1,1S52.552,46,52,46z"/>
			</g>
			<g>
				<path fill="#F0F0F0" d="M46,51c-0.552,0-1-0.448-1-1v-5c0-0.552,0.448-1,1-1s1,0.448,1,1v5C47,50.552,46.552,51,46,51z"/>
			</g>
		</g>
		<g>
			<g>
				<path fill="#F0F0F0" d="M30,51h-2c-1.654,0-3-1.346-3-3v-6c0-1.654,1.346-3,3-3h2c1.654,0,3,1.346,3,3c0,0.552-0.448,1-1,1
					s-1-0.448-1-1c0-0.551-0.449-1-1-1h-2c-0.551,0-1,0.449-1,1v6c0,0.551,0.449,1,1,1h2c0.551,0,1-0.449,1-1v-2h-1.5
					c-0.552,0-1-0.448-1-1s0.448-1,1-1H32c0.552,0,1,0.448,1,1v3C33,49.654,31.654,51,30,51z"/>
			</g>
		</g>
		<g>
			<path fill="#F0F0F0" d="M42,41h-6c-0.552,0-1-0.448-1-1s0.448-1,1-1h6c0.552,0,1,0.448,1,1S42.552,41,42,41z"/>
		</g>
		<g>
			<path fill="#F0F0F0" d="M42,51h-6c-0.552,0-1-0.448-1-1s0.448-1,1-1h6c0.552,0,1,0.448,1,1S42.552,51,42,51z"/>
		</g>
		<g>
			<g>
				<path fill="#F0F0F0" d="M39,51c-0.552,0-1-0.448-1-1V40c0-0.552,0.448-1,1-1s1,0.448,1,1v10C40,50.552,39.552,51,39,51z"/>
			</g>
		</g>
	</g>
	<g>
		<g>
			<path fill="#0A5078" d="M19.5,21.741v-3.481c0-0.936,0.985-1.545,1.823-1.126l3.481,1.741c0.928,0.464,0.928,1.789,0,2.253
				l-3.481,1.741C20.485,23.286,19.5,22.677,19.5,21.741z"/>
		</g>
	</g>
	<g>
		<path fill="#C80A50" d="M22,29c-4.962,0-9-4.038-9-9s4.038-9,9-9c0.552,0,1,0.448,1,1s-0.448,1-1,1c-3.86,0-7,3.14-7,7s3.14,7,7,7
			s7-3.14,7-7c0-1.711-0.621-3.354-1.749-4.627c-0.366-0.414-0.328-1.045,0.085-1.412c0.413-0.366,1.044-0.329,1.412,0.085
			C30.2,15.686,31,17.8,31,20C31,24.962,26.962,29,22,29z"/>
	</g>
</g>
</svg>
