<?xml version="1.0" encoding="utf-8"?>
<!-- Generator: Adobe Illustrator 24.0.0, SVG Export Plug-In . SVG Version: 6.00 Build 0)  -->
<svg version="1.1" xmlns="http://www.w3.org/2000/svg" xmlns:xlink="http://www.w3.org/1999/xlink" x="0px" y="0px"
	 viewBox="0 0 64 64" enable-background="new 0 0 64 64" xml:space="preserve">
<g id="Captions">
</g>
<g id="Icons">
	<g>
		<path fill="#F0F0F0" d="M48,12v47c0,0.55-0.45,1-1,1H9c-0.55,0-1-0.45-1-1V5c0-0.55,0.45-1,1-1h31L48,12z"/>
		<path fill="#B4B4B4" d="M48,37v18H24c-1.1,0-2-0.9-2-2V39c0-1.1,0.9-2,2-2H48z"/>
		<path fill="#D2D2D2" d="M48,12h-7c-0.552,0-1-0.448-1-1V4L48,12z"/>
		<path fill="#0A5078" d="M54,54H24c-1.105,0-2-0.895-2-2V38c0-1.105,0.895-2,2-2h30c1.105,0,2,0.895,2,2v14
			C56,53.105,55.105,54,54,54z"/>
		<path fill="#F0F0F0" d="M33,41h-6c-0.553,0-1-0.447-1-1s0.447-1,1-1h6c0.553,0,1,0.447,1,1S33.553,41,33,41z"/>
		<path fill="#F0F0F0" d="M33,51h-6c-0.553,0-1-0.447-1-1s0.447-1,1-1h6c0.553,0,1,0.447,1,1S33.553,51,33,51z"/>
		<path fill="#F0F0F0" d="M30,51c-0.553,0-1-0.447-1-1V40c0-0.553,0.447-1,1-1s1,0.447,1,1v10C31,50.553,30.553,51,30,51z"/>
		<path fill="#F0F0F0" d="M50,51c-2.206,0-4-1.794-4-4v-4c0-2.206,1.794-4,4-4s4,1.794,4,4v4C54,49.206,52.206,51,50,51z M50,41
			c-1.103,0-2,0.897-2,2v4c0,1.103,0.897,2,2,2s2-0.897,2-2v-4C52,41.897,51.103,41,50,41z"/>
		<path fill="#F0F0F0" d="M40,51c-2.206,0-4-1.794-4-4v-4c0-2.206,1.794-4,4-4s4,1.794,4,4c0,0.553-0.447,1-1,1s-1-0.447-1-1
			c0-1.103-0.897-2-2-2s-2,0.897-2,2v4c0,1.103,0.897,2,2,2s2-0.897,2-2c0-0.553,0.447-1,1-1s1,0.447,1,1C44,49.206,42.206,51,40,51
			z"/>
		<path fill="#C80A50" d="M23.376,19.194l1.593,2.163c0.055,0.074,0.128,0.131,0.212,0.163l2.506,0.966
			c0.295,0.114,0.406,0.492,0.223,0.761l-1.502,2.203c-0.056,0.082-0.087,0.181-0.089,0.282l-0.048,2.823
			c-0.006,0.336-0.319,0.571-0.623,0.466l-2.501-0.857c-0.096-0.033-0.199-0.033-0.295,0l-2.501,0.857
			c-0.304,0.104-0.617-0.13-0.623-0.466l-0.048-2.823c-0.002-0.101-0.033-0.2-0.089-0.282l-1.502-2.203
			c-0.183-0.269-0.072-0.647,0.223-0.761l2.506-0.966c0.084-0.032,0.158-0.089,0.212-0.163l1.593-2.163
			C22.814,18.935,23.186,18.935,23.376,19.194z"/>
		<path fill="#C80A50" d="M13.226,23.135l0.956,1.298c0.033,0.045,0.077,0.079,0.127,0.098l1.504,0.579
			c0.177,0.068,0.244,0.295,0.134,0.456l-0.901,1.322c-0.034,0.049-0.052,0.109-0.053,0.169l-0.029,1.694
			c-0.003,0.202-0.191,0.342-0.374,0.28l-1.501-0.514c-0.057-0.02-0.119-0.02-0.177,0l-1.501,0.514
			c-0.182,0.063-0.37-0.078-0.374-0.28l-0.029-1.694c-0.001-0.061-0.02-0.12-0.053-0.169l-0.901-1.322
			c-0.11-0.161-0.043-0.388,0.134-0.456l1.504-0.579c0.05-0.019,0.095-0.053,0.127-0.098l0.956-1.298
			C12.889,22.98,13.111,22.98,13.226,23.135z"/>
		<path fill="#C80A50" d="M38.602,14.29l2.549,3.24c0.088,0.111,0.205,0.196,0.34,0.245l4.01,1.446
			c0.472,0.17,0.65,0.737,0.357,1.139l-2.404,3.3c-0.09,0.123-0.14,0.271-0.142,0.423l-0.077,4.228
			c-0.009,0.503-0.51,0.855-0.997,0.699l-4.002-1.284c-0.153-0.049-0.318-0.049-0.472,0l-4.002,1.284
			c-0.486,0.156-0.988-0.195-0.997-0.699l-0.077-4.228c-0.003-0.152-0.052-0.299-0.142-0.423l-2.404-3.3
			c-0.293-0.402-0.116-0.969,0.357-1.139l4.01-1.446c0.134-0.048,0.252-0.133,0.34-0.245l2.549-3.24
			C37.703,13.903,38.297,13.903,38.602,14.29z"/>
	</g>
</g>
</svg>
