<?xml version="1.0" encoding="utf-8"?>
<!-- Generator: Adobe Illustrator 24.0.0, SVG Export Plug-In . SVG Version: 6.00 Build 0)  -->
<svg version="1.1" xmlns="http://www.w3.org/2000/svg" xmlns:xlink="http://www.w3.org/1999/xlink" x="0px" y="0px"
	 viewBox="0 0 64 64" enable-background="new 0 0 64 64" xml:space="preserve">
<g id="Captions">
</g>
<g id="Icons">
	<g>
		<g>
			<path fill="#F0F0F0" d="M48,16v43c0,0.55-0.45,1-1,1H9c-0.55,0-1-0.45-1-1V5c0-0.55,0.45-1,1-1h27L48,16z"/>
		</g>
		<g>
			<path fill="#D2D2D2" d="M48,37v18H24c-1.1,0-2-0.9-2-2V39c0-1.1,0.9-2,2-2H48z"/>
		</g>
		<g>
			<g>
				<path fill="#FAB400" d="M54,54H24c-1.105,0-2-0.895-2-2V38c0-1.105,0.895-2,2-2h30c1.105,0,2,0.895,2,2v14
					C56,53.105,55.105,54,54,54z"/>
			</g>
		</g>
		<g>
			<path fill="#D2D2D2" d="M48,16H37c-0.552,0-1-0.448-1-1V4L48,16z"/>
		</g>
		<g>
			<g>
				<g>
					<path fill="#0A5078" d="M32,41h-6c-0.552,0-1-0.447-1-1s0.448-1,1-1h6c0.552,0,1,0.447,1,1S32.552,41,32,41z"/>
				</g>
				<g>
					<path fill="#0A5078" d="M32,51h-6c-0.552,0-1-0.447-1-1s0.448-1,1-1h6c0.552,0,1,0.447,1,1S32.552,51,32,51z"/>
				</g>
				<g>
					<path fill="#0A5078" d="M29,51c-0.552,0-1-0.447-1-1V40c0-0.553,0.448-1,1-1s1,0.447,1,1v10C30,50.553,29.552,51,29,51z"/>
				</g>
			</g>
			<g>
				<g>
					<path fill="#0A5078" d="M52,41h-6c-0.552,0-1-0.447-1-1s0.448-1,1-1h6c0.552,0,1,0.447,1,1S52.552,41,52,41z"/>
				</g>
				<g>
					<path fill="#0A5078" d="M52,51h-6c-0.552,0-1-0.447-1-1s0.448-1,1-1h6c0.552,0,1,0.447,1,1S52.552,51,52,51z"/>
				</g>
				<g>
					<path fill="#0A5078" d="M49,51c-0.552,0-1-0.447-1-1V40c0-0.553,0.448-1,1-1s1,0.447,1,1v10C50,50.553,49.552,51,49,51z"/>
				</g>
			</g>
			<g>
				<g>
					<path fill="#0A5078" d="M42,51c-0.345,0-0.673-0.179-0.857-0.485L37,43.61V50c0,0.553-0.448,1-1,1s-1-0.447-1-1V40
						c0-0.449,0.3-0.844,0.733-0.964c0.437-0.118,0.894,0.064,1.125,0.449L41,46.39V40c0-0.553,0.448-1,1-1s1,0.447,1,1v10
						c0,0.449-0.3,0.844-0.733,0.964C42.178,50.988,42.088,51,42,51z"/>
				</g>
			</g>
		</g>
		<g>
			<path fill="#0A5078" d="M31.29,22.9l-1.38-0.79c0.117-0.723,0.123-1.459,0-2.22l1.38-0.79c0.48-0.28,0.65-0.89,0.37-1.37l-2-3.46
				c-0.28-0.48-0.89-0.64-1.37-0.37l-1.37,0.8c-0.58-0.46-1.23-0.83-1.92-1.11V12c0-0.55-0.45-1-1-1h-4c-0.55,0-1,0.45-1,1v1.59
				c-0.69,0.28-1.34,0.65-1.92,1.11l-1.37-0.8c-0.48-0.27-1.09-0.11-1.37,0.37l-2,3.46c-0.28,0.48-0.11,1.09,0.37,1.37l1.38,0.79
				c-0.117,0.723-0.123,1.459,0,2.22l-1.38,0.79c-0.48,0.28-0.65,0.89-0.37,1.37l2,3.46c0.28,0.48,0.89,0.64,1.37,0.37l1.37-0.8
				c0.58,0.46,1.23,0.83,1.92,1.11V30c0,0.55,0.45,1,1,1h4c0.55,0,1-0.45,1-1v-1.59c0.69-0.28,1.34-0.65,1.92-1.11l1.37,0.8
				c0.48,0.27,1.09,0.11,1.37-0.37l2-3.46C31.94,23.79,31.77,23.18,31.29,22.9z M22,25c-2.21,0-4-1.79-4-4c0-2.21,1.79-4,4-4
				s4,1.79,4,4C26,23.21,24.21,25,22,25z"/>
		</g>
	</g>
</g>
</svg>
