<?xml version="1.0" encoding="utf-8"?>
<!-- Generator: Adobe Illustrator 24.0.0, SVG Export Plug-In . SVG Version: 6.00 Build 0)  -->
<svg version="1.1" xmlns="http://www.w3.org/2000/svg" xmlns:xlink="http://www.w3.org/1999/xlink" x="0px" y="0px"
	 viewBox="0 0 64 64" enable-background="new 0 0 64 64" xml:space="preserve">
<g id="Captions">
</g>
<g id="Icons">
	<g>
		<g>
			<path fill="#F0F0F0" d="M48,16v43c0,0.55-0.45,1-1,1H9c-0.55,0-1-0.45-1-1V5c0-0.55,0.45-1,1-1h27L48,16z"/>
		</g>
		<g>
			<path fill="#D2D2D2" d="M48,37v18H30c-1.1,0-2-0.9-2-2V39c0-1.1,0.9-2,2-2H48z"/>
		</g>
		<g>
			<path fill="#C80A50" d="M54,54H30c-1.105,0-2-0.895-2-2V38c0-1.105,0.895-2,2-2h24c1.105,0,2,0.895,2,2v14
				C56,53.105,55.105,54,54,54z"/>
		</g>
		<g>
			<path fill="#D2D2D2" d="M48,16H37c-0.552,0-1-0.448-1-1V4L48,16z"/>
		</g>
		<g>
			<g>
				<path fill="#F0F0F0" d="M37,51c-2.206,0-4-1.794-4-4v-1c0-0.552,0.448-1,1-1s1,0.448,1,1v1c0,1.103,0.897,2,2,2s2-0.897,2-2v-6
					h-5c-0.552,0-1-0.448-1-1s0.448-1,1-1h6c0.552,0,1,0.448,1,1v7C41,49.206,39.206,51,37,51z"/>
			</g>
			<g>
				<g>
					<path fill="#F0F0F0" d="M47.837,51h-1.674C44.419,51,43,49.581,43,47.837c0-0.552,0.448-1,1-1s1,0.448,1,1
						C45,48.478,45.522,49,46.163,49h1.674C48.478,49,49,48.478,49,47.837c0-0.443-0.246-0.842-0.643-1.04l-3.609-1.805
						C43.67,44.453,43,43.369,43,42.163C43,40.419,44.419,39,46.163,39h1.674C49.581,39,51,40.419,51,42.163c0,0.552-0.448,1-1,1
						s-1-0.448-1-1C49,41.522,48.478,41,47.837,41h-1.674C45.522,41,45,41.522,45,42.163c0,0.443,0.246,0.842,0.643,1.04
						l3.609,1.805C50.33,45.547,51,46.631,51,47.837C51,49.581,49.581,51,47.837,51z"/>
				</g>
			</g>
		</g>
		<g>
			<g>
				<g>
					<circle fill="#0A5078" cx="22" cy="21" r="2"/>
				</g>
				<g>
					<path fill="#0A5078" d="M20,27v1c0,0.552,0.448,1,1,1h1v2h0c1.105,0,2-0.895,2-2v-2c0-1.105-0.895-2-2-2h0
						C20.895,25,20,25.895,20,27z"/>
				</g>
			</g>
			<g>
				<path fill="#0A5078" d="M15.999,32c-0.15,0-0.303-0.034-0.446-0.105C12.745,30.491,11,27.668,11,24.528v-1.056
					c0-3.14,1.745-5.963,4.553-7.367c0.495-0.248,1.095-0.046,1.342,0.447c0.247,0.494,0.046,1.095-0.447,1.342
					C14.321,18.958,13,21.095,13,23.472v1.056c0,2.377,1.321,4.515,3.447,5.578c0.494,0.247,0.694,0.848,0.447,1.342
					C16.719,31.797,16.366,32,15.999,32z"/>
			</g>
			<g>
				<path fill="#0A5078" d="M28.001,32c-0.367,0-0.72-0.202-0.896-0.553c-0.247-0.494-0.046-1.095,0.447-1.342
					c2.126-1.063,3.447-3.2,3.447-5.578v-1.056c0-2.377-1.321-4.515-3.447-5.578c-0.494-0.247-0.694-0.848-0.447-1.342
					c0.247-0.493,0.847-0.695,1.342-0.447C31.255,17.509,33,20.332,33,23.472v1.056c0,3.14-1.745,5.963-4.553,7.367
					C28.304,31.966,28.151,32,28.001,32z"/>
			</g>
		</g>
	</g>
</g>
</svg>
