<?xml version="1.0" encoding="utf-8"?>
<!-- Generator: Adobe Illustrator 24.0.0, SVG Export Plug-In . SVG Version: 6.00 Build 0)  -->
<svg version="1.1" xmlns="http://www.w3.org/2000/svg" xmlns:xlink="http://www.w3.org/1999/xlink" x="0px" y="0px"
	 viewBox="0 0 64 64" enable-background="new 0 0 64 64" xml:space="preserve">
<g id="Captions">
</g>
<g id="Icons">
	<g>
		<g>
			<path fill="#F0F0F0" d="M48,16v43c0,0.55-0.45,1-1,1H9c-0.55,0-1-0.45-1-1V5c0-0.55,0.45-1,1-1h27L48,16z"/>
		</g>
		<g>
			<path fill="#D2D2D2" d="M48,16H37c-0.55,0-1-0.45-1-1V4L48,16z"/>
		</g>
		<g>
			<path fill="#D2D2D2" d="M48,37v18H14c-1.1,0-2-0.9-2-2V39c0-1.1,0.9-2,2-2H48z"/>
		</g>
		<g>
			<path fill="#FAB400" d="M54,54H14c-1.105,0-2-0.895-2-2V38c0-1.105,0.895-2,2-2h40c1.105,0,2,0.895,2,2v14
				C56,53.105,55.105,54,54,54z"/>
		</g>
		<g>
			<g>
				<path fill="#0A5078" d="M22,51c-0.552,0-1-0.447-1-1v-6.39l-1.143,1.904c-0.361,0.602-1.354,0.602-1.715,0L17,43.61V50
					c0,0.553-0.448,1-1,1s-1-0.447-1-1V40c0-0.449,0.3-0.844,0.733-0.964c0.435-0.12,0.894,0.064,1.125,0.449L19,43.057l2.143-3.571
					c0.231-0.386,0.689-0.569,1.125-0.449C22.7,39.156,23,39.551,23,40v10C23,50.553,22.552,51,22,51z"/>
			</g>
		</g>
		<g>
			<g>
				<path fill="#0A5078" d="M52,41h-6c-0.552,0-1-0.447-1-1s0.448-1,1-1h6c0.552,0,1,0.447,1,1S52.552,41,52,41z"/>
			</g>
			<g>
				<path fill="#0A5078" d="M52,51h-6c-0.552,0-1-0.447-1-1s0.448-1,1-1h6c0.552,0,1,0.447,1,1S52.552,51,52,51z"/>
			</g>
			<g>
				<path fill="#0A5078" d="M49,51c-0.552,0-1-0.447-1-1V40c0-0.553,0.448-1,1-1s1,0.447,1,1v10C50,50.553,49.552,51,49,51z"/>
			</g>
		</g>
		<g>
			<path fill="#0A5078" d="M38,51h-2c-0.552,0-1-0.447-1-1V40c0-0.553,0.448-1,1-1h2c2.757,0,5,2.243,5,5v2
				C43,48.757,40.757,51,38,51z M37,49h1c1.654,0,3-1.346,3-3v-2c0-1.654-1.346-3-3-3h-1V49z"/>
		</g>
		<g>
			<g>
				<path fill="#0A5078" d="M32,41h-6c-0.552,0-1-0.447-1-1s0.448-1,1-1h6c0.552,0,1,0.447,1,1S32.552,41,32,41z"/>
			</g>
			<g>
				<path fill="#0A5078" d="M32,51h-6c-0.552,0-1-0.447-1-1s0.448-1,1-1h6c0.552,0,1,0.447,1,1S32.552,51,32,51z"/>
			</g>
			<g>
				<path fill="#0A5078" d="M29,51c-0.552,0-1-0.447-1-1V40c0-0.553,0.448-1,1-1s1,0.447,1,1v10C30,50.553,29.552,51,29,51z"/>
			</g>
		</g>
		<g>
			<g>
				<g>
					<g>
						<path fill="#D2D2D2" d="M18,31h-4c-0.552,0-1-0.448-1-1V20h5V31z"/>
					</g>
					<g>
						<rect x="18" y="20" fill="#B4B4B4" width="5" height="11"/>
					</g>
				</g>
				<g>
					<rect x="17" y="20" fill="#0A5078" width="2" height="6"/>
				</g>
			</g>
			<g>
				<g>
					<g>
						<rect x="23" y="20" fill="#D2D2D2" width="5" height="11"/>
					</g>
					<g>
						<path fill="#B4B4B4" d="M32,31h-4V20h5v10C33,30.552,32.552,31,32,31z"/>
					</g>
				</g>
				<g>
					<rect x="27" y="20" fill="#0A5078" width="2" height="6"/>
				</g>
				<g>
					<rect x="22" y="20" fill="#0A5078" width="2" height="6"/>
				</g>
			</g>
			<g>
				<path fill="#00A0C8" d="M32,13H14c-0.552,0-1,0.448-1,1v6h20v-6C33,13.448,32.552,13,32,13z"/>
			</g>
			<g>
				<rect x="13" y="20" fill="#C80A50" width="20" height="1"/>
			</g>
			<g>
				<circle fill="#0A5078" cx="18" cy="16.5" r="1.5"/>
			</g>
			<g>
				<circle fill="#FAB400" cx="18" cy="16.5" r="0.5"/>
			</g>
			<g>
				<path fill="#0A5078" d="M28.5,17h-6c-0.276,0-0.5-0.224-0.5-0.5l0,0c0-0.276,0.224-0.5,0.5-0.5h6c0.276,0,0.5,0.224,0.5,0.5l0,0
					C29,16.776,28.776,17,28.5,17z"/>
			</g>
			<g>
				<path fill="#FAB400" d="M25.5,18L25.5,18c-0.552,0-1-0.448-1-1v-1c0-0.552,0.448-1,1-1h0c0.552,0,1,0.448,1,1v1
					C26.5,17.552,26.052,18,25.5,18z"/>
			</g>
		</g>
	</g>
</g>
</svg>
