<?xml version="1.0" encoding="utf-8"?>
<!-- Generator: Adobe Illustrator 24.0.0, SVG Export Plug-In . SVG Version: 6.00 Build 0)  -->
<svg version="1.1" xmlns="http://www.w3.org/2000/svg" xmlns:xlink="http://www.w3.org/1999/xlink" x="0px" y="0px"
	 viewBox="0 0 64 64" enable-background="new 0 0 64 64" xml:space="preserve">
<g id="Captions">
</g>
<g id="Icons">
	<g>
		<path fill="#FAB400" d="M50,12v47c0,0.55-0.45,1-1,1H9c-0.55,0-1-0.45-1-1V5c0-0.55,0.45-1,1-1h33L50,12z"/>
	</g>
	<g>
		<path fill="#0A5078" d="M50,12h-7c-0.552,0-1-0.448-1-1V4L50,12z"/>
	</g>
	<g>
		<path fill="#DC9600" d="M50,39v18H24c-1.1,0-2-0.9-2-2V41c0-1.1,0.9-2,2-2H50z"/>
	</g>
	<g>
		<g>
			<path fill="#F0F0F0" d="M13,10h-2c-0.552,0-1-0.448-1-1V7c0-0.552,0.448-1,1-1h2c0.552,0,1,0.448,1,1v2C14,9.552,13.552,10,13,10
				z"/>
		</g>
		<g>
			<path fill="#F0F0F0" d="M13,18h-2c-0.552,0-1-0.448-1-1v-2c0-0.552,0.448-1,1-1h2c0.552,0,1,0.448,1,1v2
				C14,17.552,13.552,18,13,18z"/>
		</g>
		<g>
			<path fill="#F0F0F0" d="M13,26h-2c-0.552,0-1-0.448-1-1v-2c0-0.552,0.448-1,1-1h2c0.552,0,1,0.448,1,1v2
				C14,25.552,13.552,26,13,26z"/>
		</g>
		<g>
			<path fill="#F0F0F0" d="M13,34h-2c-0.552,0-1-0.448-1-1v-2c0-0.552,0.448-1,1-1h2c0.552,0,1,0.448,1,1v2
				C14,33.552,13.552,34,13,34z"/>
		</g>
		<g>
			<path fill="#F0F0F0" d="M13,42h-2c-0.552,0-1-0.448-1-1v-2c0-0.552,0.448-1,1-1h2c0.552,0,1,0.448,1,1v2
				C14,41.552,13.552,42,13,42z"/>
		</g>
		<g>
			<path fill="#F0F0F0" d="M13,50h-2c-0.552,0-1-0.448-1-1v-2c0-0.552,0.448-1,1-1h2c0.552,0,1,0.448,1,1v2
				C14,49.552,13.552,50,13,50z"/>
		</g>
		<g>
			<path fill="#F0F0F0" d="M13,58h-2c-0.552,0-1-0.448-1-1v-2c0-0.552,0.448-1,1-1h2c0.552,0,1,0.448,1,1v2
				C14,57.552,13.552,58,13,58z"/>
		</g>
	</g>
	<g>
		<g>
			<path fill="#F0F0F0" d="M47,18h-2c-0.552,0-1-0.448-1-1v-2c0-0.552,0.448-1,1-1h2c0.552,0,1,0.448,1,1v2
				C48,17.552,47.552,18,47,18z"/>
		</g>
		<g>
			<path fill="#F0F0F0" d="M47,26h-2c-0.552,0-1-0.448-1-1v-2c0-0.552,0.448-1,1-1h2c0.552,0,1,0.448,1,1v2
				C48,25.552,47.552,26,47,26z"/>
		</g>
		<g>
			<path fill="#F0F0F0" d="M47,34h-2c-0.552,0-1-0.448-1-1v-2c0-0.552,0.448-1,1-1h2c0.552,0,1,0.448,1,1v2
				C48,33.552,47.552,34,47,34z"/>
		</g>
	</g>
	<g>
		<path fill="#0A5078" d="M54,56H24c-1.105,0-2-0.895-2-2V40c0-1.105,0.895-2,2-2h30c1.105,0,2,0.895,2,2v14
			C56,55.105,55.105,56,54,56z"/>
	</g>
	<g>
		<g>
			<path fill="#F0F0F0" d="M49,53c-0.441,0-0.831-0.29-0.958-0.712l-3-10l1.916-0.575L49,48.52l2.042-6.807
				c0.16-0.529,0.716-0.83,1.246-0.67c0.529,0.159,0.829,0.716,0.67,1.245l-3,10C49.832,52.71,49.442,53,49,53z"/>
		</g>
	</g>
	<g>
		<g>
			<path fill="#F0F0F0" d="M32,53c-0.552,0-1-0.448-1-1v-6.39l-1.143,1.904c-0.361,0.603-1.354,0.603-1.715,0L27,45.61V52
				c0,0.552-0.448,1-1,1s-1-0.448-1-1V42c0-0.45,0.3-0.844,0.733-0.964c0.435-0.119,0.894,0.064,1.125,0.449L29,45.056l2.143-3.571
				c0.231-0.386,0.691-0.57,1.125-0.449C32.7,41.156,33,41.55,33,42v10C33,52.552,32.552,53,32,53z"/>
		</g>
	</g>
	<g>
		<g>
			<circle fill="#F0F0F0" cx="29" cy="23" r="11"/>
		</g>
		<g>
			<g>
				<path fill="#C80A50" d="M35.504,23.864l-9.015,5.259c-0.667,0.389-1.504-0.092-1.504-0.864V17.741
					c0-0.772,0.837-1.253,1.504-0.864l9.015,5.259C36.165,22.522,36.165,23.478,35.504,23.864z"/>
			</g>
		</g>
	</g>
	<g>
		<g>
			<path fill="#F0F0F0" d="M36,53c-0.552,0-1-0.448-1-1V42c0-0.552,0.448-1,1-1s1,0.448,1,1v10C37,52.552,36.552,53,36,53z"/>
		</g>
		<g>
			<path fill="#F0F0F0" d="M36,49c-0.256,0-0.512-0.098-0.707-0.293c-0.391-0.391-0.391-1.023,0-1.414l6-6
				c0.391-0.391,1.023-0.391,1.414,0s0.391,1.023,0,1.414l-6,6C36.512,48.902,36.256,49,36,49z"/>
		</g>
		<g>
			<path fill="#F0F0F0" d="M42.001,53c-0.367,0-0.721-0.203-0.896-0.553l-3.33-6.67c-0.247-0.494-0.046-1.095,0.448-1.341
				c0.496-0.248,1.095-0.046,1.341,0.448l3.33,6.67c0.247,0.494,0.046,1.095-0.448,1.341C42.303,52.966,42.151,53,42.001,53z"/>
		</g>
	</g>
</g>
</svg>
