<?xml version="1.0" encoding="utf-8"?>
<!-- Generator: Adobe Illustrator 24.0.0, SVG Export Plug-In . SVG Version: 6.00 Build 0)  -->
<svg version="1.1" xmlns="http://www.w3.org/2000/svg" xmlns:xlink="http://www.w3.org/1999/xlink" x="0px" y="0px"
	 viewBox="0 0 64 64" enable-background="new 0 0 64 64" xml:space="preserve">
<g id="Captions">
</g>
<g id="Icons">
	<g>
		<g>
			<g>
				<rect x="39" y="14" fill="#FAB400" width="3" height="4"/>
			</g>
			<g>
				<path fill="#C80A50" d="M42,17v38c0,0.55-0.45,1-1,1H12c-2.21,0-4-1.79-4-4V12l4,4h29C41.55,16,42,16.45,42,17z"/>
			</g>
			<g>
				<g>
					<path fill="#A00028" d="M42,33v18H16c-1.1,0-2-0.9-2-2V35c0-1.1,0.9-2,2-2H42z"/>
				</g>
			</g>
			<g>
				<path fill="#A00028" d="M12,56c-2.21,0-4-1.79-4-4V12l4,4V56z"/>
			</g>
			<g>
				<path fill="#FAB400" d="M42,9v7l-29.825,0c-2.093,0-3.963-1.532-4.157-3.616C7.795,9.999,9.674,8,12,8h29C41.55,8,42,8.45,42,9z
					"/>
			</g>
		</g>
		<g>
			<g>
				<path fill="#0A5078" d="M54,50H16c-1.105,0-2-0.895-2-2V34c0-1.105,0.895-2,2-2h38c1.105,0,2,0.895,2,2v14
					C56,49.105,55.105,50,54,50z"/>
			</g>
		</g>
		<g>
			<g>
				<path fill="#F0F0F0" d="M24,47c-0.553,0-1-0.448-1-1v-6.39l-1.143,1.904c-0.361,0.603-1.354,0.603-1.715,0L19,39.61V46
					c0,0.552-0.447,1-1,1s-1-0.448-1-1V36c0-0.45,0.3-0.844,0.733-0.964c0.431-0.118,0.894,0.064,1.124,0.449L21,39.056l2.143-3.571
					c0.23-0.386,0.694-0.569,1.124-0.449C24.7,35.156,25,35.55,25,36v10C25,46.552,24.553,47,24,47z"/>
			</g>
		</g>
		<g>
			<g>
				<path fill="#F0F0F0" d="M41.5,47H38c-0.553,0-1-0.448-1-1V36c0-0.552,0.447-1,1-1h3.5c1.93,0,3.5,1.57,3.5,3.5
					c0,0.979-0.403,1.864-1.053,2.5C44.597,41.636,45,42.521,45,43.5C45,45.43,43.43,47,41.5,47z M39,45h2.5
					c0.827,0,1.5-0.673,1.5-1.5S42.327,42,41.5,42H39V45z M39,40h2.5c0.827,0,1.5-0.673,1.5-1.5S42.327,37,41.5,37H39V40z"/>
			</g>
		</g>
		<g>
			<g>
				<path fill="#F0F0F0" d="M20,22L20,22c0,0.552,0.448,1,1,1h12c0.552,0,1-0.448,1-1v0c0-0.552-0.448-1-1-1H21
					C20.448,21,20,21.448,20,22z"/>
			</g>
			<g>
				<path fill="#F0F0F0" d="M20,26L20,26c0,0.552,0.448,1,1,1h12c0.552,0,1-0.448,1-1v0c0-0.552-0.448-1-1-1H21
					C20.448,25,20,25.448,20,26z"/>
			</g>
		</g>
		<g>
			<path fill="#F0F0F0" d="M31,47c-2.206,0-4-1.794-4-4v-4c0-2.206,1.794-4,4-4s4,1.794,4,4v4C35,45.206,33.206,47,31,47z M31,37
				c-1.103,0-2,0.897-2,2v4c0,1.103,0.897,2,2,2s2-0.897,2-2v-4C33,37.897,32.103,37,31,37z"/>
		</g>
		<g>
			<path fill="#F0F0F0" d="M53,37h-6c-0.553,0-1-0.448-1-1s0.447-1,1-1h6c0.553,0,1,0.448,1,1S53.553,37,53,37z"/>
		</g>
		<g>
			<path fill="#F0F0F0" d="M53,47h-6c-0.553,0-1-0.448-1-1s0.447-1,1-1h6c0.553,0,1,0.448,1,1S53.553,47,53,47z"/>
		</g>
		<g>
			<path fill="#F0F0F0" d="M50,47c-0.553,0-1-0.448-1-1V36c0-0.552,0.447-1,1-1s1,0.448,1,1v10C51,46.552,50.553,47,50,47z"/>
		</g>
	</g>
</g>
</svg>
