<?xml version="1.0" encoding="utf-8"?>
<!-- Generator: Adobe Illustrator 24.0.0, SVG Export Plug-In . SVG Version: 6.00 Build 0)  -->
<svg version="1.1" xmlns="http://www.w3.org/2000/svg" xmlns:xlink="http://www.w3.org/1999/xlink" x="0px" y="0px"
	 viewBox="0 0 64 64" enable-background="new 0 0 64 64" xml:space="preserve">
<g id="Captions">
</g>
<g id="Icons">
	<g>
		<g>
			<circle fill="#00A0C8" cx="26" cy="26" r="18"/>
		</g>
		<g>
			<path fill="#0082AA" d="M40.24,37c-3.29,4.26-8.44,7-14.24,7c-1.37,0-2.71-0.15-4-0.46V39c0-1.1,0.9-2,2-2H40.24z"/>
		</g>
		<g>
			<g>
				<path fill="#FAB400" d="M54,56H24c-1.105,0-2-0.895-2-2V40c0-1.105,0.895-2,2-2h30c1.105,0,2,0.895,2,2v14
					C56,55.105,55.105,56,54,56z"/>
			</g>
			<g>
				<g>
					<g>
						<path fill="#0A5078" d="M39,49h-3c-0.552,0-1-0.448-1-1v-6c0-0.552,0.448-1,1-1h3c2.206,0,4,1.794,4,4S41.206,49,39,49z
							 M37,47h2c1.103,0,2-0.897,2-2s-0.897-2-2-2h-2V47z"/>
					</g>
					<g>
						<path fill="#0A5078" d="M36,53c-0.552,0-1-0.448-1-1v-4c0-0.552,0.448-1,1-1s1,0.448,1,1v4C37,52.552,36.552,53,36,53z"/>
					</g>
				</g>
				<g>
					<path fill="#0A5078" d="M32,53c-0.552,0-1-0.448-1-1v-6.39l-1.143,1.904c-0.361,0.603-1.354,0.603-1.715,0L27,45.61V52
						c0,0.552-0.448,1-1,1s-1-0.448-1-1V42c0-0.45,0.3-0.844,0.733-0.964c0.435-0.118,0.894,0.064,1.125,0.449L29,45.056
						l2.143-3.571c0.231-0.386,0.691-0.568,1.125-0.449C32.7,41.156,33,41.55,33,42v10C33,52.552,32.552,53,32,53z"/>
				</g>
				<g>
					<g>
						<path fill="#0A5078" d="M49.5,48H46c-0.552,0-1-0.448-1-1s0.448-1,1-1h3.5c0.827,0,1.5-0.673,1.5-1.5S50.327,43,49.5,43H46
							c-0.552,0-1-0.448-1-1s0.448-1,1-1h3.5c1.93,0,3.5,1.57,3.5,3.5S51.43,48,49.5,48z"/>
					</g>
					<g>
						<path fill="#0A5078" d="M49.5,53H46c-0.552,0-1-0.448-1-1s0.448-1,1-1h3.5c0.827,0,1.5-0.673,1.5-1.5S50.327,48,49.5,48H46
							c-0.552,0-1-0.448-1-1s0.448-1,1-1h3.5c1.93,0,3.5,1.57,3.5,3.5S51.43,53,49.5,53z"/>
					</g>
				</g>
			</g>
		</g>
		<g>
			<g>
				<g>
					<path fill="#F0F0F0" d="M19,35c-2.206,0-4-1.794-4-4s1.794-4,4-4s4,1.794,4,4S21.206,35,19,35z M19,29c-1.103,0-2,0.897-2,2
						s0.897,2,2,2s2-0.897,2-2S20.103,29,19,29z"/>
				</g>
				<g>
					<path fill="#F0F0F0" d="M30,35c-2.757,0-5-2.243-5-5s2.243-5,5-5s5,2.243,5,5S32.757,35,30,35z M30,27c-1.654,0-3,1.346-3,3
						s1.346,3,3,3s3-1.346,3-3S31.654,27,30,27z"/>
				</g>
				<g>
					<path fill="#F0F0F0" d="M34,31c-0.552,0-1-0.448-1-1V17H23v13c0,0.552-0.448,1-1,1s-1-0.448-1-1V16c0-0.552,0.448-1,1-1h12
						c0.552,0,1,0.448,1,1v14C35,30.552,34.552,31,34,31z"/>
				</g>
			</g>
			<g>
				<path fill="#F0F0F0" d="M30,21h-8c-0.552,0-1-0.448-1-1s0.448-1,1-1h8c0.552,0,1,0.448,1,1S30.552,21,30,21z"/>
			</g>
		</g>
	</g>
</g>
</svg>
