<?xml version="1.0" encoding="utf-8"?>
<!-- Generator: Adobe Illustrator 24.0.0, SVG Export Plug-In . SVG Version: 6.00 Build 0)  -->
<svg version="1.1" xmlns="http://www.w3.org/2000/svg" xmlns:xlink="http://www.w3.org/1999/xlink" x="0px" y="0px"
	 viewBox="0 0 64 64" enable-background="new 0 0 64 64" xml:space="preserve">
<g id="Captions">
</g>
<g id="Icons">
	<g>
		<g>
			<path fill="#0A5078" d="M50,12v47c0,0.55-0.45,1-1,1H9c-0.55,0-1-0.45-1-1V5c0-0.55,0.45-1,1-1h33L50,12z"/>
		</g>
		<g>
			<path fill="#00325A" d="M50,39v18H24c-1.1,0-2-0.9-2-2V41c0-1.1,0.9-2,2-2H50z"/>
		</g>
		<g>
			<g>
				<path fill="#F0F0F0" d="M13,10h-2c-0.552,0-1-0.448-1-1V7c0-0.552,0.448-1,1-1h2c0.552,0,1,0.448,1,1v2
					C14,9.552,13.552,10,13,10z"/>
			</g>
			<g>
				<path fill="#F0F0F0" d="M13,18h-2c-0.552,0-1-0.448-1-1v-2c0-0.552,0.448-1,1-1h2c0.552,0,1,0.448,1,1v2
					C14,17.552,13.552,18,13,18z"/>
			</g>
			<g>
				<path fill="#F0F0F0" d="M13,26h-2c-0.552,0-1-0.448-1-1v-2c0-0.552,0.448-1,1-1h2c0.552,0,1,0.448,1,1v2
					C14,25.552,13.552,26,13,26z"/>
			</g>
			<g>
				<path fill="#F0F0F0" d="M13,34h-2c-0.552,0-1-0.448-1-1v-2c0-0.552,0.448-1,1-1h2c0.552,0,1,0.448,1,1v2
					C14,33.552,13.552,34,13,34z"/>
			</g>
			<g>
				<path fill="#F0F0F0" d="M13,42h-2c-0.552,0-1-0.448-1-1v-2c0-0.552,0.448-1,1-1h2c0.552,0,1,0.448,1,1v2
					C14,41.552,13.552,42,13,42z"/>
			</g>
			<g>
				<path fill="#F0F0F0" d="M13,50h-2c-0.552,0-1-0.448-1-1v-2c0-0.552,0.448-1,1-1h2c0.552,0,1,0.448,1,1v2
					C14,49.552,13.552,50,13,50z"/>
			</g>
			<g>
				<path fill="#F0F0F0" d="M13,58h-2c-0.552,0-1-0.448-1-1v-2c0-0.552,0.448-1,1-1h2c0.552,0,1,0.448,1,1v2
					C14,57.552,13.552,58,13,58z"/>
			</g>
		</g>
		<g>
			<g>
				<path fill="#F0F0F0" d="M47,18h-2c-0.552,0-1-0.448-1-1v-2c0-0.552,0.448-1,1-1h2c0.552,0,1,0.448,1,1v2
					C48,17.552,47.552,18,47,18z"/>
			</g>
			<g>
				<path fill="#F0F0F0" d="M47,26h-2c-0.552,0-1-0.448-1-1v-2c0-0.552,0.448-1,1-1h2c0.552,0,1,0.448,1,1v2
					C48,25.552,47.552,26,47,26z"/>
			</g>
			<g>
				<path fill="#F0F0F0" d="M47,34h-2c-0.552,0-1-0.448-1-1v-2c0-0.552,0.448-1,1-1h2c0.552,0,1,0.448,1,1v2
					C48,33.552,47.552,34,47,34z"/>
			</g>
		</g>
		<g>
			<g>
				<path fill="#FAB400" d="M54,56H24c-1.105,0-2-0.895-2-2V40c0-1.105,0.895-2,2-2h30c1.105,0,2,0.895,2,2v14
					C56,55.105,55.105,56,54,56z"/>
			</g>
			<g>
				<g>
					<g>
						<path fill="#0A5078" d="M39,49h-3c-0.553,0-1-0.448-1-1v-6c0-0.552,0.447-1,1-1h3c2.206,0,4,1.794,4,4S41.206,49,39,49z
							 M37,47h2c1.103,0,2-0.897,2-2s-0.897-2-2-2h-2V47z"/>
					</g>
					<g>
						<path fill="#0A5078" d="M36,53c-0.553,0-1-0.448-1-1v-4c0-0.552,0.447-1,1-1s1,0.448,1,1v4C37,52.552,36.553,53,36,53z"/>
					</g>
				</g>
				<g>
					<path fill="#0A5078" d="M32,53c-0.553,0-1-0.448-1-1v-6.39l-1.143,1.904c-0.361,0.603-1.354,0.603-1.715,0L27,45.61V52
						c0,0.552-0.447,1-1,1s-1-0.448-1-1V42c0-0.45,0.3-0.844,0.733-0.964c0.431-0.117,0.894,0.064,1.124,0.449L29,45.056
						l2.143-3.571c0.23-0.386,0.694-0.568,1.124-0.449C32.7,41.156,33,41.55,33,42v10C33,52.552,32.553,53,32,53z"/>
				</g>
			</g>
			<g>
				<path fill="#0A5078" d="M52,49h-6c-0.321,0-0.623-0.154-0.812-0.416c-0.188-0.261-0.239-0.596-0.137-0.901l2-6
					c0.174-0.523,0.735-0.808,1.265-0.632c0.523,0.175,0.807,0.741,0.632,1.265L47.388,47H51v-5c0-0.552,0.447-1,1-1s1,0.448,1,1v6
					C53,48.552,52.553,49,52,49z"/>
			</g>
			<g>
				<path fill="#0A5078" d="M52,53c-0.553,0-1-0.448-1-1V42c0-0.552,0.447-1,1-1s1,0.448,1,1v10C53,52.552,52.553,53,52,53z"/>
			</g>
		</g>
		<g>
			<g>
				<circle fill="#F0F0F0" cx="29" cy="23" r="11"/>
			</g>
			<g>
				<g>
					<path fill="#0A5078" d="M35.504,23.864l-9.015,5.259c-0.667,0.389-1.504-0.092-1.504-0.864V17.741
						c0-0.772,0.837-1.253,1.504-0.864l9.015,5.259C36.165,22.522,36.165,23.478,35.504,23.864z"/>
				</g>
			</g>
		</g>
	</g>
	<g>
		<path fill="#FAB400" d="M50,12h-7c-0.552,0-1-0.448-1-1V4L50,12z"/>
	</g>
</g>
</svg>
