<?xml version="1.0" encoding="utf-8"?>
<!-- Generator: Adobe Illustrator 24.0.0, SVG Export Plug-In . SVG Version: 6.00 Build 0)  -->
<svg version="1.1" xmlns="http://www.w3.org/2000/svg" xmlns:xlink="http://www.w3.org/1999/xlink" x="0px" y="0px"
	 viewBox="0 0 64 64" enable-background="new 0 0 64 64" xml:space="preserve">
<g id="Captions">
</g>
<g id="Icons">
	<g>
		<g>
			<path fill="#F0F0F0" d="M48,16v43c0,0.55-0.45,1-1,1H9c-0.55,0-1-0.45-1-1V5c0-0.55,0.45-1,1-1h27L48,16z"/>
		</g>
		<g>
			<path fill="#D2D2D2" d="M48,16H37c-0.552,0-1-0.448-1-1V4L48,16z"/>
		</g>
		<g>
			<path fill="#D2D2D2" d="M48,39v13H11c-0.55,0-1-0.45-1-1V40c0-0.55,0.45-1,1-1H48z"/>
		</g>
		<g>
			<path fill="#0A5078" d="M55,51H11c-0.552,0-1-0.448-1-1V39c0-0.552,0.448-1,1-1h44c0.552,0,1,0.448,1,1v11
				C56,50.552,55.552,51,55,51z"/>
		</g>
		<g>
			<g>
				<path fill="#F0F0F0" d="M51.315,48.5h-0.631c-1.204,0-2.185-0.98-2.185-2.185V46c0-0.276,0.224-0.5,0.5-0.5s0.5,0.224,0.5,0.5
					v0.315c0,0.653,0.531,1.185,1.185,1.185h0.631c0.653,0,1.185-0.531,1.185-1.185c0-0.545-0.369-1.018-0.897-1.149l-1.447-0.361
					c-0.975-0.244-1.655-1.115-1.655-2.12c0-1.204,0.98-2.185,2.185-2.185h0.631c1.204,0,2.185,0.98,2.185,2.185V43
					c0,0.276-0.224,0.5-0.5,0.5s-0.5-0.224-0.5-0.5v-0.315c0-0.653-0.531-1.185-1.185-1.185h-0.631
					c-0.653,0-1.185,0.531-1.185,1.185c0,0.545,0.369,1.018,0.897,1.149l1.447,0.361c0.975,0.244,1.655,1.115,1.655,2.12
					C53.5,47.52,52.52,48.5,51.315,48.5z"/>
			</g>
		</g>
		<g>
			<g>
				<path fill="#F0F0F0" d="M41,48.5h-4c-0.276,0-0.5-0.224-0.5-0.5v-7c0-0.276,0.224-0.5,0.5-0.5h4c0.276,0,0.5,0.224,0.5,0.5
					s-0.224,0.5-0.5,0.5h-3.5v6H41c0.276,0,0.5,0.224,0.5,0.5S41.276,48.5,41,48.5z"/>
			</g>
			<g>
				<path fill="#F0F0F0" d="M41,45h-4c-0.276,0-0.5-0.224-0.5-0.5S36.724,44,37,44h4c0.276,0,0.5,0.224,0.5,0.5S41.276,45,41,45z"/>
			</g>
		</g>
		<g>
			<g>
				<path fill="#F0F0F0" d="M33.25,45H31c-0.276,0-0.5-0.224-0.5-0.5V41c0-0.276,0.224-0.5,0.5-0.5h2.25c1.24,0,2.25,1.01,2.25,2.25
					S34.49,45,33.25,45z M31.5,44h1.75c0.689,0,1.25-0.561,1.25-1.25s-0.561-1.25-1.25-1.25H31.5V44z"/>
			</g>
			<g>
				<path fill="#F0F0F0" d="M33.25,48.5H31c-0.276,0-0.5-0.224-0.5-0.5v-3.5c0-0.276,0.224-0.5,0.5-0.5h2.25
					c1.24,0,2.25,1.01,2.25,2.25S34.49,48.5,33.25,48.5z M31.5,47.5h1.75c0.689,0,1.25-0.561,1.25-1.25S33.939,45,33.25,45H31.5
					V47.5z"/>
			</g>
		</g>
		<g>
			<g>
				<path fill="#F0F0F0" d="M45.25,45H43c-0.276,0-0.5-0.224-0.5-0.5V41c0-0.276,0.224-0.5,0.5-0.5h2.25c1.24,0,2.25,1.01,2.25,2.25
					S46.49,45,45.25,45z M43.5,44h1.75c0.689,0,1.25-0.561,1.25-1.25s-0.561-1.25-1.25-1.25H43.5V44z"/>
			</g>
		</g>
		<g>
			<path fill="#F0F0F0" d="M47,48.5c-0.173,0-0.342-0.091-0.435-0.252l-2-3.5c-0.137-0.239-0.054-0.545,0.187-0.683
				c0.235-0.135,0.544-0.055,0.683,0.187l2,3.5c0.137,0.239,0.054,0.545-0.187,0.683C47.17,48.479,47.085,48.5,47,48.5z"/>
		</g>
		<g>
			<path fill="#F0F0F0" d="M43,48.5c-0.276,0-0.5-0.224-0.5-0.5v-4c0-0.276,0.224-0.5,0.5-0.5s0.5,0.224,0.5,0.5v4
				C43.5,48.276,43.276,48.5,43,48.5z"/>
		</g>
		<g>
			<g>
				<g>
					<path fill="#F0F0F0" d="M21,48.5c-1.379,0-2.5-1.121-2.5-2.5v-5c0-0.276,0.224-0.5,0.5-0.5s0.5,0.224,0.5,0.5v5
						c0,0.827,0.673,1.5,1.5,1.5s1.5-0.673,1.5-1.5v-5c0-0.276,0.224-0.5,0.5-0.5s0.5,0.224,0.5,0.5v5
						C23.5,47.379,22.379,48.5,21,48.5z"/>
				</g>
			</g>
			<g>
				<path fill="#F0F0F0" d="M17,48.5c-0.176,0-0.344-0.094-0.435-0.252L13.5,42.883V48c0,0.276-0.224,0.5-0.5,0.5
					s-0.5-0.224-0.5-0.5v-7c0-0.227,0.152-0.425,0.372-0.483c0.215-0.054,0.449,0.039,0.563,0.235l3.065,5.365V41
					c0-0.276,0.224-0.5,0.5-0.5s0.5,0.224,0.5,0.5v7c0,0.227-0.152,0.425-0.372,0.483C17.086,48.494,17.043,48.5,17,48.5z"/>
			</g>
			<g>
				<g>
					<path fill="#F0F0F0" d="M29,48.5c-0.276,0-0.5-0.224-0.5-0.5v-4.882l-1.053,2.105c-0.17,0.338-0.725,0.338-0.895,0L25.5,43.118
						V48c0,0.276-0.224,0.5-0.5,0.5s-0.5-0.224-0.5-0.5v-7c0-0.231,0.159-0.434,0.385-0.486c0.23-0.06,0.459,0.056,0.563,0.263
						L27,43.882l1.553-3.105c0.104-0.207,0.332-0.322,0.563-0.263C29.341,40.566,29.5,40.769,29.5,41v7
						C29.5,48.276,29.276,48.5,29,48.5z"/>
				</g>
			</g>
		</g>
		<g>
			<g>
				<path fill="#0A5078" d="M35,34H11c-0.552,0-1-0.448-1-1l0,0c0-0.552,0.448-1,1-1h24c0.552,0,1,0.448,1,1l0,0
					C36,33.552,35.552,34,35,34z"/>
			</g>
			<g>
				<path fill="#C80A50" d="M18,32h-6v-6c0-0.552,0.448-1,1-1h4c0.552,0,1,0.448,1,1V32z"/>
			</g>
			<g>
				<path fill="#FAB400" d="M26,32h-6v-9c0-0.552,0.448-1,1-1h4c0.552,0,1,0.448,1,1V32z"/>
			</g>
			<g>
				<path fill="#00A0C8" d="M34,32h-6V18c0-0.552,0.448-1,1-1h4c0.552,0,1,0.448,1,1V32z"/>
			</g>
		</g>
	</g>
</g>
</svg>
