<?xml version="1.0" encoding="utf-8"?>
<!-- Generator: Adobe Illustrator 24.0.0, SVG Export Plug-In . SVG Version: 6.00 Build 0)  -->
<svg version="1.1" xmlns="http://www.w3.org/2000/svg" xmlns:xlink="http://www.w3.org/1999/xlink" x="0px" y="0px"
	 viewBox="0 0 64 64" enable-background="new 0 0 64 64" xml:space="preserve">
<g id="Captions">
</g>
<g id="Icons">
	<g>
		<path fill="#F0F0F0" d="M48,16v43c0,0.55-0.45,1-1,1H9c-0.55,0-1-0.45-1-1V5c0-0.55,0.45-1,1-1h27L48,16z"/>
	</g>
	<g>
		<path fill="#D2D2D2" d="M48,37v18H24c-1.1,0-2-0.9-2-2V39c0-1.1,0.9-2,2-2H48z"/>
	</g>
	<g>
		<path fill="#C80A50" d="M54,54H24c-1.105,0-2-0.895-2-2V38c0-1.105,0.895-2,2-2h30c1.105,0,2,0.895,2,2v14
			C56,53.105,55.105,54,54,54z"/>
	</g>
	<g>
		<path fill="#D2D2D2" d="M48,16H37c-0.552,0-1-0.448-1-1V4L48,16z"/>
	</g>
	<g>
		<g>
			<path fill="#F0F0F0" d="M29,47h-3c-0.552,0-1-0.448-1-1v-6c0-0.552,0.448-1,1-1h3c2.206,0,4,1.794,4,4S31.206,47,29,47z M27,45h2
				c1.103,0,2-0.897,2-2s-0.897-2-2-2h-2V45z"/>
		</g>
		<g>
			<path fill="#F0F0F0" d="M26,51c-0.552,0-1-0.448-1-1v-4c0-0.552,0.448-1,1-1s1,0.448,1,1v4C27,50.552,26.552,51,26,51z"/>
		</g>
	</g>
	<g>
		<g>
			<path fill="#F0F0F0" d="M52,46h-6c-0.552,0-1-0.448-1-1v-5c0-0.552,0.448-1,1-1h6c0.552,0,1,0.448,1,1s-0.448,1-1,1h-5v3h5
				c0.552,0,1,0.448,1,1S52.552,46,52,46z"/>
		</g>
		<g>
			<path fill="#F0F0F0" d="M46,51c-0.552,0-1-0.448-1-1v-5c0-0.552,0.448-1,1-1s1,0.448,1,1v5C47,50.552,46.552,51,46,51z"/>
		</g>
	</g>
	<g>
		<path fill="#F0F0F0" d="M38,51h-2c-0.552,0-1-0.448-1-1V40c0-0.552,0.448-1,1-1h2c2.757,0,5,2.243,5,5v2
			C43,48.757,40.757,51,38,51z M37,49h1c1.654,0,3-1.346,3-3v-2c0-1.654-1.346-3-3-3h-1V49z"/>
	</g>
	<g>
		<path fill="#C80A50" d="M13.83,30.939c-2.172-0.383-3.627-2.462-3.245-4.634c0.186-1.052,0.77-1.97,1.645-2.583
			s1.934-0.85,2.989-0.663l2.955,0.521l-0.348,1.97l-2.955-0.521c-0.525-0.09-1.056,0.025-1.494,0.331
			c-0.438,0.307-0.729,0.765-0.822,1.291c-0.191,1.086,0.537,2.126,1.623,2.317L13.83,30.939z"/>
	</g>
	<g>
		<path fill="#C80A50" d="M32.17,30.938l-0.348-1.97c1.086-0.191,1.814-1.231,1.623-2.317c-0.093-0.526-0.385-0.984-0.822-1.291
			c-0.438-0.306-0.968-0.423-1.494-0.331l-2.955,0.522l-0.348-1.97l2.955-0.522c1.051-0.183,2.114,0.05,2.989,0.663
			c0.875,0.613,1.459,1.53,1.645,2.583C35.797,28.476,34.342,30.555,32.17,30.938z"/>
	</g>
	<g>
		<path fill="#C80A50" d="M28,25.566H18c-0.552,0-1-0.448-1-1s0.448-1,1-1h10c0.552,0,1,0.448,1,1S28.552,25.566,28,25.566z"/>
	</g>
	<g>
		<g>
			<path fill="#C80A50" d="M31.476,30.997c-1.903,0-3.596-1.365-3.94-3.301l-0.329-1.867c-0.609-3.456-2.347-6.689-4.895-9.102
				C21.759,16.203,19,13.49,19,11.5c0-2.206,1.794-4,4-4s4,1.794,4,4h-2c0-1.103-0.897-2-2-2s-2,0.897-2,2
				c0,0.802,1.561,2.707,2.687,3.774c2.857,2.707,4.806,6.332,5.489,10.208l0.329,1.865c0.193,1.084,1.234,1.812,2.321,1.619
				l0.349,1.97C31.939,30.977,31.706,30.997,31.476,30.997z"/>
		</g>
	</g>
	<g>
		<path fill="#C80A50" d="M14.524,30.997c-0.23,0-0.464-0.02-0.699-0.062l0.349-1.97c1.087,0.192,2.128-0.535,2.321-1.621
			l0.328-1.863c0.683-3.876,2.632-7.501,5.488-10.208C23.61,14.043,25,12.233,25,11.5h2c0,1.99-2.759,4.703-3.313,5.226
			c-2.547,2.413-4.285,5.646-4.894,9.102l-0.329,1.865C18.12,29.631,16.427,30.997,14.524,30.997z"/>
	</g>
</g>
</svg>
