<?xml version="1.0" encoding="utf-8"?>
<!-- Generator: Adobe Illustrator 24.0.0, SVG Export Plug-In . SVG Version: 6.00 Build 0)  -->
<svg version="1.1" xmlns="http://www.w3.org/2000/svg" xmlns:xlink="http://www.w3.org/1999/xlink" x="0px" y="0px"
	 viewBox="0 0 64 64" enable-background="new 0 0 64 64" xml:space="preserve">
<g id="Captions">
</g>
<g id="Icons">
	<g>
		<path fill="#F0F0F0" d="M48,16v43c0,0.55-0.45,1-1,1H9c-0.55,0-1-0.45-1-1V5c0-0.55,0.45-1,1-1h27L48,16z"/>
	</g>
	<g>
		<path fill="#D2D2D2" d="M48,37v18H24c-1.1,0-2-0.9-2-2V39c0-1.1,0.9-2,2-2H48z"/>
	</g>
	<g>
		<path fill="#FAB400" d="M54,54H24c-1.105,0-2-0.895-2-2V38c0-1.105,0.895-2,2-2h30c1.105,0,2,0.895,2,2v14
			C56,53.105,55.105,54,54,54z"/>
	</g>
	<g>
		<path fill="#D2D2D2" d="M48,16H37c-0.552,0-1-0.448-1-1V4L48,16z"/>
	</g>
	<g>
		<g>
			<path fill="#0A5078" d="M29,47h-3c-0.552,0-1-0.448-1-1v-6c0-0.552,0.448-1,1-1h3c2.206,0,4,1.794,4,4S31.206,47,29,47z M27,45h2
				c1.103,0,2-0.897,2-2s-0.897-2-2-2h-2V45z"/>
		</g>
		<g>
			<path fill="#0A5078" d="M26,51c-0.552,0-1-0.448-1-1v-4c0-0.552,0.448-1,1-1s1,0.448,1,1v4C27,50.552,26.552,51,26,51z"/>
		</g>
	</g>
	<g>
		<g>
			<path fill="#0A5078" d="M50,51h-2c-1.654,0-3-1.346-3-3v-6c0-1.654,1.346-3,3-3h2c1.654,0,3,1.346,3,3c0,0.552-0.447,1-1,1
				s-1-0.448-1-1c0-0.551-0.448-1-1-1h-2c-0.552,0-1,0.449-1,1v6c0,0.551,0.448,1,1,1h2c0.552,0,1-0.449,1-1v-2h-1.5
				c-0.553,0-1-0.448-1-1s0.447-1,1-1H52c0.553,0,1,0.448,1,1v3C53,49.654,51.654,51,50,51z"/>
		</g>
	</g>
	<g>
		<g>
			<path fill="#0A5078" d="M42,51c-0.345,0-0.674-0.179-0.857-0.485L37,43.61V50c0,0.552-0.447,1-1,1s-1-0.448-1-1V40
				c0-0.45,0.3-0.844,0.733-0.964c0.43-0.119,0.894,0.064,1.124,0.449L41,46.39V40c0-0.552,0.447-1,1-1s1,0.448,1,1v10
				c0,0.45-0.3,0.844-0.733,0.964C42.179,50.988,42.089,51,42,51z"/>
		</g>
	</g>
	<g>
		<g>
			<rect x="14" y="10" fill="#D2D2D2" width="4" height="4"/>
		</g>
		<g>
			<rect x="18" y="14" fill="#D2D2D2" width="4" height="4"/>
		</g>
		<g>
			<rect x="26" y="14" fill="#D2D2D2" width="4" height="4"/>
		</g>
		<g>
			<rect x="18" y="22" fill="#D2D2D2" width="4" height="4"/>
		</g>
		<g>
			<rect x="26" y="22" fill="#D2D2D2" width="4" height="4"/>
		</g>
		<g>
			<rect x="14" y="18" fill="#D2D2D2" width="4" height="4"/>
		</g>
		<g>
			<rect x="22" y="10" fill="#D2D2D2" width="4" height="4"/>
		</g>
		<g>
			<rect x="22" y="18" fill="#D2D2D2" width="4" height="4"/>
		</g>
	</g>
	<g>
		<g>
			<circle fill="#C80A50" cx="23" cy="15" r="3"/>
		</g>
	</g>
	<g>
		<g>
			<g>
				<path fill="#00A0C8" d="M17.219,18.976L11.3,26.375C10.776,27.03,11.242,28,12.081,28h11.839c0.839,0,1.305-0.97,0.781-1.625
					l-5.919-7.399C18.381,18.476,17.619,18.476,17.219,18.976z"/>
			</g>
			<g>
				<path fill="#00A0C8" d="M27.219,18.976L21.3,26.375C20.776,27.03,21.242,28,22.081,28h11.839c0.839,0,1.305-0.97,0.781-1.625
					l-5.919-7.399C28.381,18.476,27.619,18.476,27.219,18.976z"/>
			</g>
		</g>
		<g>
			<g>
				<path fill="#0082AA" d="M23.92,28h-1.84c-0.84,0-1.3-0.97-0.78-1.62l1.7-2.12l1.7,2.12C25.22,27.03,24.76,28,23.92,28z"/>
			</g>
		</g>
	</g>
</g>
</svg>
