<?xml version="1.0" encoding="utf-8"?>
<!-- Generator: Adobe Illustrator 24.0.0, SVG Export Plug-In . SVG Version: 6.00 Build 0)  -->
<svg version="1.1" xmlns="http://www.w3.org/2000/svg" xmlns:xlink="http://www.w3.org/1999/xlink" x="0px" y="0px"
	 viewBox="0 0 64 64" enable-background="new 0 0 64 64" xml:space="preserve">
<g id="Captions">
</g>
<g id="Icons">
	<g>
		<path fill="#F0F0F0" d="M48,16v43c0,0.55-0.45,1-1,1H9c-0.55,0-1-0.45-1-1V5c0-0.55,0.45-1,1-1h27L48,16z"/>
	</g>
	<g>
		<path fill="#D2D2D2" d="M48,37v18H24c-1.1,0-2-0.9-2-2V39c0-1.1,0.9-2,2-2H48z"/>
	</g>
	<g>
		<path fill="#C80A50" d="M54,54H24c-1.105,0-2-0.895-2-2V38c0-1.105,0.895-2,2-2h30c1.105,0,2,0.895,2,2v14
			C56,53.105,55.105,54,54,54z"/>
	</g>
	<g>
		<g>
			<path fill="#F0F0F0" d="M52,41h-6c-0.553,0-1-0.448-1-1s0.447-1,1-1h6c0.553,0,1,0.448,1,1S52.553,41,52,41z"/>
		</g>
		<g>
			<g>
				<path fill="#F0F0F0" d="M49,51c-0.553,0-1-0.448-1-1V40c0-0.552,0.447-1,1-1s1,0.448,1,1v10C50,50.552,49.553,51,49,51z"/>
			</g>
		</g>
	</g>
	<g>
		<path fill="#D2D2D2" d="M48,16H37c-0.552,0-1-0.448-1-1V4L48,16z"/>
	</g>
	<g>
		<g>
			<path fill="#F0F0F0" d="M29,47h-3c-0.553,0-1-0.448-1-1v-6c0-0.552,0.447-1,1-1h3c2.206,0,4,1.794,4,4S31.206,47,29,47z M27,45h2
				c1.103,0,2-0.897,2-2s-0.897-2-2-2h-2V45z"/>
		</g>
		<g>
			<path fill="#F0F0F0" d="M26,51c-0.553,0-1-0.448-1-1v-4c0-0.552,0.447-1,1-1s1,0.448,1,1v4C27,50.552,26.553,51,26,51z"/>
		</g>
	</g>
	<g>
		<g>
			<path fill="#F0F0F0" d="M39,47h-3c-0.553,0-1-0.448-1-1v-6c0-0.552,0.447-1,1-1h3c2.206,0,4,1.794,4,4S41.206,47,39,47z M37,45h2
				c1.103,0,2-0.897,2-2s-0.897-2-2-2h-2V45z"/>
		</g>
		<g>
			<path fill="#F0F0F0" d="M36,51c-0.553,0-1-0.448-1-1v-4c0-0.552,0.447-1,1-1s1,0.448,1,1v4C37,50.552,36.553,51,36,51z"/>
		</g>
	</g>
	<g>
		<path fill="#C80A50" d="M32,20c0,5.541-4.501,10-10,10c-5.52,0-10-4.48-10-10c0-5.52,4.48-10,10-10L32,20z"/>
	</g>
	<g>
		<path fill="#A00028" d="M32,20c0,0.34-0.02,0.67-0.05,1H23c-0.55,0-1-0.45-1-1V10L32,20z"/>
	</g>
	<g>
		<path fill="#FAB400" d="M32.949,20H23c-0.552,0-1-0.448-1-1V9.051c0-0.592,0.513-1.055,1.103-1.001
			c5.745,0.524,10.323,5.103,10.847,10.847C34.004,19.487,33.541,20,32.949,20z"/>
	</g>
</g>
</svg>
