<?xml version="1.0" encoding="utf-8"?>
<!-- Generator: Adobe Illustrator 24.0.0, SVG Export Plug-In . SVG Version: 6.00 Build 0)  -->
<svg version="1.1" xmlns="http://www.w3.org/2000/svg" xmlns:xlink="http://www.w3.org/1999/xlink" x="0px" y="0px"
	 viewBox="0 0 64 64" enable-background="new 0 0 64 64" xml:space="preserve">
<g id="Captions">
</g>
<g id="Icons">
	<g>
		<path fill="#00A0C8" d="M48,12v47c0,0.55-0.45,1-1,1H9c-0.55,0-1-0.45-1-1V5c0-0.55,0.45-1,1-1h31L48,12z"/>
	</g>
	<g>
		<path fill="#0082AA" d="M48,12h-7c-0.552,0-1-0.448-1-1V4L48,12z"/>
	</g>
	<g>
		<path fill="#0082AA" d="M48,37v18H24c-1.1,0-2-0.9-2-2V39c0-1.1,0.9-2,2-2H48z"/>
	</g>
	<g>
		<path fill="#F0F0F0" d="M54,54H24c-1.105,0-2-0.895-2-2V38c0-1.105,0.895-2,2-2h30c1.105,0,2,0.895,2,2v14
			C56,53.105,55.105,54,54,54z"/>
	</g>
	<g>
		<g>
			<path fill="#0A5078" d="M29,47h-3c-0.552,0-1-0.448-1-1v-6c0-0.552,0.448-1,1-1h3c2.206,0,4,1.794,4,4S31.206,47,29,47z M27,45h2
				c1.103,0,2-0.897,2-2s-0.897-2-2-2h-2V45z"/>
		</g>
		<g>
			<path fill="#0A5078" d="M26,51c-0.552,0-1-0.448-1-1v-4c0-0.552,0.448-1,1-1s1,0.448,1,1v4C27,50.552,26.552,51,26,51z"/>
		</g>
	</g>
	<g>
		<g>
			<path fill="#0A5078" d="M39.837,51h-1.674C36.419,51,35,49.581,35,47.837c0-0.552,0.447-1,1-1s1,0.448,1,1
				C37,48.478,37.521,49,38.163,49h1.674C40.479,49,41,48.478,41,47.837c0-0.443-0.246-0.842-0.643-1.04l-3.609-1.805
				C35.67,44.453,35,43.369,35,42.163C35,40.419,36.419,39,38.163,39h1.674C41.581,39,43,40.419,43,42.163c0,0.552-0.447,1-1,1
				s-1-0.448-1-1C41,41.522,40.479,41,39.837,41h-1.674C37.521,41,37,41.522,37,42.163c0,0.443,0.246,0.842,0.643,1.04l3.609,1.805
				C42.33,45.547,43,46.631,43,47.837C43,49.581,41.581,51,39.837,51z"/>
		</g>
	</g>
	<g>
		<path fill="#0A5078" d="M48,51h-2c-0.553,0-1-0.448-1-1V40c0-0.552,0.447-1,1-1h2c2.757,0,5,2.243,5,5v2
			C53,48.757,50.757,51,48,51z M47,49h1c1.654,0,3-1.346,3-3v-2c0-1.654-1.346-3-3-3h-1V49z"/>
	</g>
	<g>
		<g>
			<path fill="#0A5078" d="M12.586,33.971L12.586,33.971c-0.781-0.781-0.781-2.047,0-2.828l9.192-9.192l2.828,2.828l-9.192,9.192
				C14.633,34.752,13.367,34.752,12.586,33.971z"/>
		</g>
		<g>
			<path fill="#FAB400" d="M24.607,24.778l-2.828-2.828l2.121-2.121c0.781-0.781,2.047-0.781,2.828,0l0,0
				c0.781,0.781,0.781,2.047,0,2.828L24.607,24.778z"/>
		</g>
		<g>
			<g>
				<g>
					<path fill="#F0F0F0" d="M28.849,18.707c-0.256,0-0.512-0.098-0.707-0.293c-0.391-0.391-0.391-1.024,0-1.414l2.122-2.121
						c0.391-0.391,1.023-0.391,1.414,0s0.391,1.024,0,1.414l-2.122,2.121C29.361,18.609,29.105,18.707,28.849,18.707z"/>
				</g>
			</g>
			<g>
				<g>
					<path fill="#F0F0F0" d="M33.557,22.243h-2.586c-0.552,0-1-0.448-1-1s0.448-1,1-1h2.586c0.553,0,1,0.448,1,1
						S34.109,22.243,33.557,22.243z"/>
				</g>
			</g>
			<g>
				<g>
					<path fill="#F0F0F0" d="M25.313,16.586c-0.552,0-1-0.448-1-1V13c0-0.552,0.448-1,1-1s1,0.448,1,1v2.586
						C26.313,16.138,25.866,16.586,25.313,16.586z"/>
				</g>
			</g>
		</g>
	</g>
</g>
</svg>
