<?xml version="1.0" encoding="utf-8"?>
<!-- Generator: Adobe Illustrator 24.0.0, SVG Export Plug-In . SVG Version: 6.00 Build 0)  -->
<svg version="1.1" xmlns="http://www.w3.org/2000/svg" xmlns:xlink="http://www.w3.org/1999/xlink" x="0px" y="0px"
	 viewBox="0 0 64 64" enable-background="new 0 0 64 64" xml:space="preserve">
<g id="Captions">
</g>
<g id="Icons">
	<g>
		<g>
			<path fill="#F0F0F0" d="M48,18v41c0,0.55-0.45,1-1,1H9c-0.55,0-1-0.45-1-1V7c0-0.55,0.45-1,1-1h27L48,18z"/>
		</g>
		<g>
			<path fill="#D2D2D2" d="M48,37v18H24c-1.1,0-2-0.9-2-2V39c0-1.1,0.9-2,2-2H48z"/>
		</g>
		<g>
			<g>
				<path fill="#C80A50" d="M54,54H24c-1.105,0-2-0.895-2-2V38c0-1.105,0.895-2,2-2h30c1.105,0,2,0.895,2,2v14
					C56,53.105,55.105,54,54,54z"/>
			</g>
			<g>
				<path fill="#F0F0F0" d="M52,51c-0.345,0-0.674-0.179-0.857-0.485L49,46.944l-2.143,3.571c-0.231,0.385-0.696,0.568-1.124,0.449
					C45.3,50.844,45,50.45,45,50V40c0-0.552,0.447-1,1-1s1,0.448,1,1v6.39l1.143-1.904c0.361-0.603,1.354-0.603,1.715,0L51,46.39V40
					c0-0.552,0.447-1,1-1s1,0.448,1,1v10c0,0.45-0.3,0.844-0.733,0.964C52.179,50.988,52.089,51,52,51z"/>
			</g>
			<g>
				<g>
					<g>
						<path fill="#F0F0F0" d="M42,47h-6c-0.553,0-1-0.448-1-1v-3c0-2.206,1.794-4,4-4s4,1.794,4,4v3C43,46.552,42.553,47,42,47z
							 M37,45h4v-2c0-1.103-0.897-2-2-2s-2,0.897-2,2V45z"/>
					</g>
					<g>
						<path fill="#F0F0F0" d="M36,51c-0.553,0-1-0.448-1-1v-4c0-0.552,0.447-1,1-1s1,0.448,1,1v4C37,50.552,36.553,51,36,51z"/>
					</g>
				</g>
				<g>
					<path fill="#F0F0F0" d="M42,51c-0.553,0-1-0.448-1-1v-4c0-0.552,0.447-1,1-1s1,0.448,1,1v4C43,50.552,42.553,51,42,51z"/>
				</g>
			</g>
			<g>
				<g>
					<g>
						<path fill="#F0F0F0" d="M29,47h-3c-0.553,0-1-0.448-1-1v-6c0-0.552,0.447-1,1-1h3c2.206,0,4,1.794,4,4S31.206,47,29,47z
							 M27,45h2c1.103,0,2-0.897,2-2s-0.897-2-2-2h-2V45z"/>
					</g>
					<g>
						<path fill="#F0F0F0" d="M26,51c-0.553,0-1-0.448-1-1v-4c0-0.552,0.447-1,1-1s1,0.448,1,1v4C27,50.552,26.553,51,26,51z"/>
					</g>
				</g>
				<g>
					<path fill="#F0F0F0" d="M32.001,51c-0.367,0-0.72-0.202-0.896-0.553l-2-4c-0.247-0.494-0.047-1.095,0.447-1.342
						c0.495-0.247,1.094-0.047,1.342,0.447l2,4c0.247,0.494,0.047,1.095-0.447,1.342C32.304,50.966,32.151,51,32.001,51z"/>
				</g>
			</g>
		</g>
		<g>
			<path fill="#D2D2D2" d="M48,18H37c-0.552,0-1-0.448-1-1V6L48,18z"/>
		</g>
		<g>
			<g>
				<path fill="#0A5078" d="M31,17h-3.558c-0.43,0-0.813-0.275-0.949-0.684l-0.544-1.632C25.813,14.275,25.43,14,25,14h-6
					c-0.43,0-0.813,0.275-0.949,0.684l-0.544,1.632C17.371,16.725,16.989,17,16.558,17H13c-0.552,0-1,0.448-1,1v11
					c0,0.552,0.448,1,1,1h18c0.552,0,1-0.448,1-1V18C32,17.448,31.552,17,31,17z"/>
			</g>
			<g>
				<circle fill="#F0F0F0" cx="22" cy="23.5" r="4.5"/>
			</g>
			<g>
				<circle fill="#00A0C8" cx="22" cy="23.5" r="2.5"/>
			</g>
			<g>
				<g>
					<path fill="#F0F0F0" d="M23.5,16.5h-3c-0.276,0-0.5-0.224-0.5-0.5v0c0-0.276,0.224-0.5,0.5-0.5h3c0.276,0,0.5,0.224,0.5,0.5v0
						C24,16.276,23.776,16.5,23.5,16.5z"/>
				</g>
			</g>
		</g>
	</g>
</g>
</svg>
