<?xml version="1.0" encoding="utf-8"?>
<!-- Generator: Adobe Illustrator 24.0.0, SVG Export Plug-In . SVG Version: 6.00 Build 0)  -->
<svg version="1.1" xmlns="http://www.w3.org/2000/svg" xmlns:xlink="http://www.w3.org/1999/xlink" x="0px" y="0px"
	 viewBox="0 0 64 64" enable-background="new 0 0 64 64" xml:space="preserve">
<g id="Captions">
</g>
<g id="Icons">
	<g>
		<g>
			<g>
				<g>
					<path fill="#F0F0F0" d="M48,16v43c0,0.55-0.45,1-1,1H9c-0.55,0-1-0.45-1-1V5c0-0.55,0.45-1,1-1h27L48,16z"/>
				</g>
				<g>
					<path fill="#00A0C8" d="M30,24v5.5c0,1.38-3.81,2.5-8.5,2.5S13,30.88,13,29.5V24H30z"/>
				</g>
				<g>
					<path fill="#FAB400" d="M30,18v6c0,1.38-3.81,2.5-8.5,2.5S13,25.38,13,24v-6H30z"/>
				</g>
				<g>
					<path fill="#00A0C8" d="M30,13v5.5c0,1.38-3.81,2.5-8.5,2.5S13,19.88,13,18.5V13H30z"/>
				</g>
				<g>
					<path fill="#D2D2D2" d="M48,37v18H24c-1.1,0-2-0.9-2-2V39c0-1.1,0.9-2,2-2H48z"/>
				</g>
				<g>
					<path fill="#0A5078" d="M54,54H24c-1.105,0-2-0.895-2-2V38c0-1.105,0.895-2,2-2h30c1.105,0,2,0.895,2,2v14
						C56,53.105,55.105,54,54,54z"/>
				</g>
				<g>
					<g>
						<path fill="#F0F0F0" d="M39,51c-2.206,0-4-1.794-4-4v-4c0-2.206,1.794-4,4-4s4,1.794,4,4v4C43,49.206,41.206,51,39,51z M39,41
							c-1.103,0-2,0.897-2,2v4c0,1.103,0.897,2,2,2s2-0.897,2-2v-4C41,41.897,40.103,41,39,41z"/>
					</g>
				</g>
				<g>
					<path fill="#D2D2D2" d="M48,16H37c-0.552,0-1-0.448-1-1V4L48,16z"/>
				</g>
				<g>
					<path fill="#F0F0F0" d="M52,51h-6c-0.552,0-1-0.447-1-1V40c0-0.553,0.448-1,1-1s1,0.447,1,1v9h5c0.552,0,1,0.447,1,1
						S52.552,51,52,51z"/>
				</g>
			</g>
		</g>
		<g>
			<g>
				<path fill="#F0F0F0" d="M29.837,51h-1.674C26.419,51,25,49.581,25,47.837c0-0.553,0.448-1,1-1s1,0.447,1,1
					C27,48.479,27.522,49,28.163,49h1.674C30.478,49,31,48.479,31,47.837c0-0.443-0.246-0.842-0.643-1.04l-3.609-1.805
					C25.67,44.453,25,43.369,25,42.163C25,40.419,26.419,39,28.163,39h1.674C31.581,39,33,40.419,33,42.163c0,0.553-0.448,1-1,1
					s-1-0.447-1-1C31,41.521,30.478,41,29.837,41h-1.674C27.522,41,27,41.521,27,42.163c0,0.443,0.246,0.842,0.643,1.04l3.609,1.805
					C32.33,45.547,33,46.631,33,47.837C33,49.581,31.581,51,29.837,51z"/>
			</g>
		</g>
		<g>
			<path fill="#F0F0F0" d="M42,51c-0.256,0-0.512-0.098-0.707-0.293l-3-3c-0.391-0.391-0.391-1.023,0-1.414s1.023-0.391,1.414,0l3,3
				c0.391,0.391,0.391,1.023,0,1.414C42.512,50.902,42.256,51,42,51z"/>
		</g>
		<g>
			<ellipse fill="#FAB400" cx="21.5" cy="13" rx="8.5" ry="2"/>
		</g>
	</g>
</g>
</svg>
