<?xml version="1.0" encoding="utf-8"?>
<!-- Generator: Adobe Illustrator 24.0.0, SVG Export Plug-In . SVG Version: 6.00 Build 0)  -->
<svg version="1.1" xmlns="http://www.w3.org/2000/svg" xmlns:xlink="http://www.w3.org/1999/xlink" x="0px" y="0px"
	 viewBox="0 0 64 64" enable-background="new 0 0 64 64" xml:space="preserve">
<g id="Captions">
</g>
<g id="Icons">
	<g>
		<g>
			<path fill="#F0F0F0" d="M48,16v43c0,0.55-0.45,1-1,1H9c-0.55,0-1-0.45-1-1V5c0-0.55,0.45-1,1-1h27L48,16z"/>
		</g>
		<g>
			<path fill="#FAB400" d="M34,30c-0.552,0-1-0.448-1-1c0-4.411-3.589-8-8-8s-8,3.589-8,8c0,0.552-0.448,1-1,1s-1-0.448-1-1
				c0-5.514,4.486-10,10-10s10,4.486,10,10C35,29.552,34.552,30,34,30z"/>
		</g>
		<g>
			<g>
				<path fill="#C80A50" d="M36,21H14c-0.552,0-1-0.448-1-1s0.448-1,1-1h22c0.552,0,1,0.448,1,1S36.552,21,36,21z"/>
			</g>
		</g>
		<g>
			<path fill="#0A5078" d="M26,22h-2c-0.552,0-1-0.448-1-1v-2c0-0.552,0.448-1,1-1h2c0.552,0,1,0.448,1,1v2
				C27,21.552,26.552,22,26,22z"/>
		</g>
		<g>
			<path fill="#0A5078" d="M17,33h-2c-0.552,0-1-0.448-1-1v-2c0-0.552,0.448-1,1-1h2c0.552,0,1,0.448,1,1v2
				C18,32.552,17.552,33,17,33z"/>
		</g>
		<g>
			<path fill="#0A5078" d="M35,33h-2c-0.552,0-1-0.448-1-1v-2c0-0.552,0.448-1,1-1h2c0.552,0,1,0.448,1,1v2
				C36,32.552,35.552,33,35,33z"/>
		</g>
		<g>
			<circle fill="#00A0C8" cx="36" cy="20" r="2"/>
		</g>
		<g>
			<circle fill="#00A0C8" cx="14" cy="20" r="2"/>
		</g>
		<g>
			<path fill="#D2D2D2" d="M48,37v18H24c-1.1,0-2-0.9-2-2V39c0-1.1,0.9-2,2-2H48z"/>
		</g>
		<g>
			<path fill="#C80A50" d="M54,54H24c-1.105,0-2-0.895-2-2V38c0-1.105,0.895-2,2-2h30c1.105,0,2,0.895,2,2v14
				C56,53.105,55.105,54,54,54z"/>
		</g>
		<g>
			<g>
				<path fill="#F0F0F0" d="M39,51c-0.441,0-0.831-0.29-0.958-0.712l-3-10c-0.158-0.529,0.142-1.087,0.671-1.246
					c0.529-0.158,1.087,0.142,1.245,0.67L39,46.52l2.042-6.807c0.158-0.528,0.714-0.832,1.245-0.67
					c0.529,0.159,0.829,0.716,0.671,1.246l-3,10C39.831,50.71,39.441,51,39,51z"/>
			</g>
		</g>
		<g>
			<g>
				<path fill="#F0F0F0" d="M29.837,51h-1.674C26.419,51,25,49.581,25,47.837c0-0.552,0.448-1,1-1s1,0.448,1,1
					C27,48.478,27.522,49,28.163,49h1.674C30.478,49,31,48.478,31,47.837c0-0.443-0.246-0.842-0.643-1.04l-3.609-1.805
					C25.67,44.453,25,43.369,25,42.163C25,40.419,26.419,39,28.163,39h1.674C31.581,39,33,40.419,33,42.163c0,0.552-0.448,1-1,1
					s-1-0.448-1-1C31,41.522,30.478,41,29.837,41h-1.674C27.522,41,27,41.522,27,42.163c0,0.443,0.246,0.842,0.643,1.04l3.609,1.805
					C32.33,45.547,33,46.631,33,47.837C33,49.581,31.581,51,29.837,51z"/>
			</g>
		</g>
		<g>
			<path fill="#D2D2D2" d="M48,16H37c-0.552,0-1-0.448-1-1V4L48,16z"/>
		</g>
		<g>
			<g>
				<path fill="#F0F0F0" d="M50,51h-2c-1.654,0-3-1.346-3-3v-6c0-1.654,1.346-3,3-3h2c1.654,0,3,1.346,3,3c0,0.552-0.448,1-1,1
					s-1-0.448-1-1c0-0.551-0.449-1-1-1h-2c-0.551,0-1,0.449-1,1v6c0,0.551,0.449,1,1,1h2c0.551,0,1-0.449,1-1v-2h-1.5
					c-0.552,0-1-0.448-1-1s0.448-1,1-1H52c0.552,0,1,0.448,1,1v3C53,49.654,51.654,51,50,51z"/>
			</g>
		</g>
	</g>
</g>
</svg>
