<?xml version="1.0" encoding="utf-8"?>
<!-- Generator: Adobe Illustrator 24.0.0, SVG Export Plug-In . SVG Version: 6.00 Build 0)  -->
<svg version="1.1" xmlns="http://www.w3.org/2000/svg" xmlns:xlink="http://www.w3.org/1999/xlink" x="0px" y="0px"
	 viewBox="0 0 64 64" enable-background="new 0 0 64 64" xml:space="preserve">
<g id="Captions">
</g>
<g id="Icons">
	<g>
		<g>
			<path fill="#F0F0F0" d="M48,16v43c0,0.55-0.45,1-1,1H9c-0.55,0-1-0.45-1-1V5c0-0.55,0.45-1,1-1h27L48,16z"/>
		</g>
		<g>
			<path fill="#D2D2D2" d="M48,37v18H24c-1.1,0-2-0.9-2-2V39c0-1.1,0.9-2,2-2H48z"/>
		</g>
		<g>
			<path fill="#00A0C8" d="M54,54H24c-1.105,0-2-0.895-2-2V38c0-1.105,0.895-2,2-2h30c1.105,0,2,0.895,2,2v14
				C56,53.105,55.105,54,54,54z"/>
		</g>
		<g>
			<path fill="#D2D2D2" d="M48,16H37c-0.552,0-1-0.448-1-1V4L48,16z"/>
		</g>
		<g>
			<g>
				<path fill="#F0F0F0" d="M52,46h-6c-0.553,0-1-0.447-1-1v-5c0-0.553,0.447-1,1-1h6c0.553,0,1,0.447,1,1s-0.447,1-1,1h-5v3h5
					c0.553,0,1,0.447,1,1S52.553,46,52,46z"/>
			</g>
			<g>
				<path fill="#F0F0F0" d="M46,51c-0.553,0-1-0.447-1-1v-5c0-0.553,0.447-1,1-1s1,0.447,1,1v5C47,50.553,46.553,51,46,51z"/>
			</g>
		</g>
		<g>
			<g>
				<path fill="#F0F0F0" d="M42,41h-6c-0.553,0-1-0.447-1-1s0.447-1,1-1h6c0.553,0,1,0.447,1,1S42.553,41,42,41z"/>
			</g>
			<g>
				<path fill="#F0F0F0" d="M39,51c-0.553,0-1-0.447-1-1V40c0-0.553,0.447-1,1-1s1,0.447,1,1v10C40,50.553,39.553,51,39,51z"/>
			</g>
		</g>
		<g>
			<g>
				<path fill="#F0F0F0" d="M32,41h-6c-0.552,0-1-0.447-1-1s0.448-1,1-1h6c0.552,0,1,0.447,1,1S32.552,41,32,41z"/>
			</g>
			<g>
				<path fill="#F0F0F0" d="M29,51c-0.552,0-1-0.447-1-1V40c0-0.553,0.448-1,1-1s1,0.447,1,1v10C30,50.553,29.552,51,29,51z"/>
			</g>
		</g>
		<g>
			<g>
				<g>
					<g>
						<path fill="#0A5078" d="M20,22h-6c-0.552,0-1-0.447-1-1v-3c0-2.206,1.794-4,4-4s4,1.794,4,4v3C21,21.553,20.552,22,20,22z
							 M15,20h4v-2c0-1.103-0.897-2-2-2s-2,0.897-2,2V20z"/>
					</g>
					<g>
						<path fill="#0A5078" d="M14,26c-0.552,0-1-0.447-1-1v-4c0-0.553,0.448-1,1-1s1,0.447,1,1v4C15,25.553,14.552,26,14,26z"/>
					</g>
				</g>
				<g>
					<path fill="#0A5078" d="M20,26c-0.552,0-1-0.447-1-1v-4c0-0.553,0.448-1,1-1s1,0.447,1,1v4C21,25.553,20.552,26,20,26z"/>
				</g>
			</g>
			<g>
				<g>
					<path fill="#0A5078" d="M26.5,26c-1.93,0-3.5-1.57-3.5-3.5v-2c0-1.93,1.57-3.5,3.5-3.5H29c0.552,0,1,0.447,1,1v4.5
						C30,24.43,28.43,26,26.5,26z M26.5,19c-0.827,0-1.5,0.673-1.5,1.5v2c0,0.827,0.673,1.5,1.5,1.5s1.5-0.673,1.5-1.5V19H26.5z"/>
				</g>
			</g>
			<g>
				<path fill="#0A5078" d="M31,26c-1.654,0-3-1.346-3-3v-4c0-0.553,0.448-1,1-1s1,0.447,1,1v4c0,0.552,0.449,1,1,1s1-0.448,1-1
					c0-0.553,0.448-1,1-1c0.553,0,1,0.447,1,1C34,24.654,32.654,26,31,26z"/>
			</g>
		</g>
		<g>
			<path fill="#0A5078" d="M33,30H14c-0.552,0-1-0.448-1-1v0c0-0.552,0.448-1,1-1h19c0.552,0,1,0.448,1,1v0
				C34,29.552,33.552,30,33,30z"/>
		</g>
	</g>
</g>
</svg>
