<?xml version="1.0" encoding="utf-8"?>
<!-- Generator: Adobe Illustrator 24.0.0, SVG Export Plug-In . SVG Version: 6.00 Build 0)  -->
<svg version="1.1" xmlns="http://www.w3.org/2000/svg" xmlns:xlink="http://www.w3.org/1999/xlink" x="0px" y="0px"
	 viewBox="0 0 64 64" enable-background="new 0 0 64 64" xml:space="preserve">
<g id="Captions">
</g>
<g id="Icons">
	<g>
		<path fill="#F0F0F0" d="M48,16v43c0,0.55-0.45,1-1,1H9c-0.55,0-1-0.45-1-1V5c0-0.55,0.45-1,1-1h27L48,16z"/>
	</g>
	<g>
		<path fill="#D2D2D2" d="M48,37v18H14c-1.1,0-2-0.9-2-2V39c0-1.1,0.9-2,2-2H48z"/>
	</g>
	<g>
		<g>
			<g>
				<path fill="#00A0C8" d="M20,16h-8c-0.552,0-1-0.448-1-1v-2c0-0.552,0.448-1,1-1h8c0.552,0,1,0.448,1,1v2
					C21,15.552,20.552,16,20,16z"/>
			</g>
			<g>
				<path fill="#00A0C8" d="M32,16h-8c-0.552,0-1-0.448-1-1v-2c0-0.552,0.448-1,1-1h8c0.552,0,1,0.448,1,1v2
					C33,15.552,32.552,16,32,16z"/>
			</g>
		</g>
		<g>
			<g>
				<path fill="#00A0C8" d="M20,22h-8c-0.552,0-1-0.448-1-1v-2c0-0.552,0.448-1,1-1h8c0.552,0,1,0.448,1,1v2
					C21,21.552,20.552,22,20,22z"/>
			</g>
			<g>
				<path fill="#00A0C8" d="M32,22h-8c-0.552,0-1-0.448-1-1v-2c0-0.552,0.448-1,1-1h8c0.552,0,1,0.448,1,1v2
					C33,21.552,32.552,22,32,22z"/>
			</g>
		</g>
		<g>
			<g>
				<path fill="#00A0C8" d="M20,28h-8c-0.552,0-1-0.448-1-1v-2c0-0.552,0.448-1,1-1h8c0.552,0,1,0.448,1,1v2
					C21,27.552,20.552,28,20,28z"/>
			</g>
			<g>
				<path fill="#00A0C8" d="M32,28h-8c-0.552,0-1-0.448-1-1v-2c0-0.552,0.448-1,1-1h8c0.552,0,1,0.448,1,1v2
					C33,27.552,32.552,28,32,28z"/>
			</g>
		</g>
	</g>
	<g>
		<path fill="#00A0C8" d="M54,54H14c-1.105,0-2-0.895-2-2V38c0-1.105,0.895-2,2-2h40c1.105,0,2,0.895,2,2v14
			C56,53.105,55.105,54,54,54z"/>
	</g>
	<g>
		<g>
			<path fill="#F0F0F0" d="M52.001,51c-0.34,0-0.671-0.173-0.858-0.485l-6-10c-0.284-0.474-0.131-1.088,0.343-1.372
				c0.475-0.285,1.088-0.13,1.372,0.343l6,10c0.284,0.474,0.131,1.088-0.343,1.372C52.354,50.954,52.176,51,52.001,51z"/>
		</g>
		<g>
			<path fill="#F0F0F0" d="M45.999,51c-0.175,0-0.353-0.046-0.514-0.143c-0.474-0.284-0.627-0.898-0.343-1.372l6-10
				c0.284-0.473,0.897-0.628,1.372-0.343c0.474,0.284,0.627,0.898,0.343,1.372l-6,10C46.67,50.827,46.339,51,45.999,51z"/>
		</g>
	</g>
	<g>
		<path fill="#D2D2D2" d="M48,16H37c-0.552,0-1-0.448-1-1V4L48,16z"/>
	</g>
	<g>
		<g>
			<g>
				<path fill="#F0F0F0" d="M32,51h-6c-0.553,0-1-0.448-1-1V40c0-0.552,0.447-1,1-1s1,0.448,1,1v9h5c0.553,0,1,0.448,1,1
					S32.553,51,32,51z"/>
			</g>
		</g>
		<g>
			<g>
				<path fill="#F0F0F0" d="M22.001,51c-0.34,0-0.671-0.173-0.858-0.485l-6-10c-0.284-0.474-0.131-1.088,0.343-1.372
					c0.475-0.285,1.089-0.13,1.372,0.343l6,10c0.284,0.474,0.131,1.088-0.343,1.372C22.354,50.954,22.176,51,22.001,51z"/>
			</g>
			<g>
				<path fill="#F0F0F0" d="M15.999,51c-0.175,0-0.353-0.046-0.514-0.143c-0.474-0.284-0.627-0.898-0.343-1.372l6-10
					c0.283-0.473,0.898-0.628,1.372-0.343c0.474,0.284,0.627,0.898,0.343,1.372l-6,10C16.67,50.827,16.339,51,15.999,51z"/>
			</g>
		</g>
		<g>
			<g>
				<path fill="#F0F0F0" d="M39.837,51h-1.674C36.419,51,35,49.581,35,47.837c0-0.552,0.447-1,1-1s1,0.448,1,1
					C37,48.478,37.521,49,38.163,49h1.674C40.479,49,41,48.478,41,47.837c0-0.443-0.246-0.842-0.643-1.04l-3.609-1.805
					C35.67,44.453,35,43.369,35,42.163C35,40.419,36.419,39,38.163,39h1.674C41.581,39,43,40.419,43,42.163c0,0.552-0.447,1-1,1
					s-1-0.448-1-1C41,41.522,40.479,41,39.837,41h-1.674C37.521,41,37,41.522,37,42.163c0,0.443,0.246,0.842,0.643,1.04l3.609,1.805
					C42.33,45.547,43,46.631,43,47.837C43,49.581,41.581,51,39.837,51z"/>
			</g>
		</g>
	</g>
</g>
</svg>
